Solitreo.ufo
<glyph name="exclam" format="2">
	<advance width="175"/>
	<unicode hex="0021"/>
	<outline>
		<contour>
			<point x="-11" y="0" type="curve" smooth="yes"/>
			<point x="-31" y="0"/>
			<point x="-33" y="6"/>
			<point x="-33" y="18" type="curve" smooth="yes"/>
			<point x="-33" y="32"/>
			<point x="-27" y="45"/>
			<point x="-21" y="71" type="curve" smooth="yes"/>
			<point x="-16" y="92"/>
			<point x="0" y="97"/>
			<point x="32" y="97" type="curve" smooth="yes"/>
			<point x="60" y="97"/>
			<point x="69" y="94"/>
			<point x="69" y="73" type="curve" smooth="yes"/>
			<point x="69" y="29"/>
			<point x="26" y="0"/>
		</contour>
		<contour>
			<point x="66" y="179" type="curve" smooth="yes"/>
			<point x="54" y="179"/>
			<point x="46" y="181"/>
			<point x="46" y="193" type="curve" smooth="yes"/>
			<point x="46" y="221"/>
			<point x="114" y="401"/>
			<point x="168" y="654" type="curve" smooth="yes"/>
			<point x="173" y="679"/>
			<point x="194" y="678"/>
			<point x="216" y="678" type="curve" smooth="yes"/>
			<point x="238" y="678"/>
			<point x="253" y="678"/>
			<point x="253" y="657" type="curve" smooth="yes"/>
			<point x="253" y="586"/>
			<point x="129" y="179"/>
		</contour>
	</outline>
</glyph>
<glyph name="quotedbl" format="2">
	<advance width="234"/>
	<unicode hex="0022"/>
	<outline>
		<contour>
			<point x="177" y="405" type="curve" smooth="yes"/>
			<point x="162" y="405"/>
			<point x="152" y="413"/>
			<point x="152" y="423" type="curve" smooth="yes"/>
			<point x="152" y="435"/>
			<point x="194" y="480"/>
			<point x="250" y="565" type="curve" smooth="yes"/>
			<point x="254" y="571"/>
			<point x="262" y="577"/>
			<point x="275" y="577" type="curve" smooth="yes"/>
			<point x="296" y="577"/>
			<point x="325" y="565"/>
			<point x="325" y="544" type="curve" smooth="yes"/>
			<point x="325" y="517"/>
			<point x="218" y="405"/>
		</contour>
		<contour>
			<point x="25" y="404" type="curve" smooth="yes"/>
			<point x="10" y="404"/>
			<point x="0" y="412"/>
			<point x="0" y="422" type="curve" smooth="yes"/>
			<point x="0" y="436"/>
			<point x="42" y="479"/>
			<point x="98" y="564" type="curve" smooth="yes"/>
			<point x="102" y="570"/>
			<point x="109" y="576"/>
			<point x="123" y="576" type="curve" smooth="yes"/>
			<point x="141" y="576"/>
			<point x="173" y="562"/>
			<point x="173" y="543" type="curve" smooth="yes"/>
			<point x="173" y="520"/>
			<point x="69" y="404"/>
		</contour>
	</outline>
</glyph>
<glyph name="numbersign" format="2">
  <advance width="446"/>
  <unicode hex="0023"/>
  <outline>
    <contour>
      <point x="19.608083202" y="31.3189938064" type="curve" smooth="yes"/>
      <point x="19.5550263122" y="31.3189938064"/>
      <point x="19.502071412" y="31.3194331071"/>
      <point x="19.44921875" y="31.3203125" type="curve" smooth="yes"/>
      <point x="4.3738415063" y="31.5710220687"/>
      <point x="1.64078057997" y="36.3041680914"/>
      <point x="1.64078057997" y="43.7947306113" type="curve" smooth="yes"/>
      <point x="1.64078057997" y="45.670048309"/>
      <point x="1.81208562412" y="47.7181976294"/>
      <point x="2.00390625" y="49.912109375" type="curve" smooth="yes"/>
      <point x="2.75765442166" y="58.5310176643"/>
      <point x="25.0718668704" y="116.918840492"/>
      <point x="53.8123468114" y="199.264168673" type="curve"/>
      <point x="30.840857518" y="201.590610928"/>
      <point x="14.615856783" y="205.139999919"/>
      <point x="9.48046875" y="210.180664062" type="curve" smooth="yes"/>
      <point x="1.7800063809" y="217.739078592"/>
      <point x="-2.07872754385" y="225.952726847"/>
      <point x="-2.07872754385" y="232.786619672" type="curve" smooth="yes"/>
      <point x="-2.07872754385" y="239.57757189"/>
      <point x="1.7316662025" y="245.006053526"/>
      <point x="9.369140625" y="247.075195312" type="curve" smooth="yes"/>
      <point x="12.9974054059" y="248.057856576"/>
      <point x="20.8677178798" y="248.392641382"/>
      <point x="31.9876642089" y="248.392641382" type="curve" smooth="yes"/>
      <point x="42.2965638159" y="248.392641382"/>
      <point x="55.3983523806" y="248.104911493"/>
      <point x="70.5023118242" y="247.778911387" type="curve"/>
      <point x="81.6876813755" y="280.807881275"/>
      <point x="93.353307099" y="316.39101138"/>
      <point x="104.761029564" y="353.269369011" type="curve"/>
      <point x="81.816694447" y="355.595899027"/>
      <point x="65.6120318729" y="359.143754278"/>
      <point x="60.48046875" y="364.180664062" type="curve" smooth="yes"/>
      <point x="52.7800063809" y="371.739078592"/>
      <point x="48.9212724561" y="379.952726847"/>
      <point x="48.9212724561" y="386.786619672" type="curve" smooth="yes"/>
      <point x="48.9212724561" y="393.57757189"/>
      <point x="52.7316662025" y="399.006053526"/>
      <point x="60.369140625" y="401.075195312" type="curve" smooth="yes"/>
      <point x="63.9974054059" y="402.057856576"/>
      <point x="71.8677178798" y="402.392641382"/>
      <point x="82.9876642089" y="402.392641382" type="curve" smooth="yes"/>
      <point x="92.8110533314" y="402.392641382"/>
      <point x="105.17045702" y="402.131375288"/>
      <point x="119.381697785" y="401.824690817" type="curve"/>
      <point x="134.88181811" y="454.818105225"/>
      <point x="149.244389237" y="509.288079291"/>
      <point x="160.4296875" y="561.755859375" type="curve" smooth="yes"/>
      <point x="164.983398438" y="583.116210938"/>
      <point x="181.4453125" y="583.407226562"/>
      <point x="201.4453125" y="583.408203125" type="curve" smooth="yes"/>
      <point x="202.4453125" y="583.407226562"/>
      <point x="202.4453125" y="583.407226562"/>
      <point x="203.4453125" y="583.407226562" type="curve" smooth="yes"/>
      <point x="222.87241528" y="583.407226562"/>
      <point x="236.484810206" y="583.310468349"/>
      <point x="236.484810206" y="564.069863701" type="curve" smooth="yes"/>
      <point x="236.484810206" y="539.690258798"/>
      <point x="219.535311909" y="476.048958951"/>
      <point x="194.784225964" y="400.869921149" type="curve"/>
      <point x="227.437048496" y="400.969423089"/>
      <point x="262.677980453" y="401.97442273"/>
      <point x="296.597985131" y="405.118162407" type="curve"/>
      <point x="311.461628086" y="456.310572075"/>
      <point x="325.199837957" y="508.759759124"/>
      <point x="335.984375" y="559.34765625" type="curve" smooth="yes"/>
      <point x="340.538085938" y="580.708007812"/>
      <point x="357.0" y="580.999023438"/>
      <point x="377.0" y="581.0" type="curve" smooth="yes"/>
      <point x="378.0" y="580.999023438"/>
      <point x="378.0" y="580.999023438"/>
      <point x="379.0" y="580.999023438" type="curve" smooth="yes"/>
      <point x="398.42710278" y="580.999023438"/>
      <point x="412.039497706" y="580.902265224"/>
      <point x="412.039497706" y="561.661660576" type="curve" smooth="yes"/>
      <point x="412.039497706" y="539.452240531"/>
      <point x="397.973259839" y="484.659889093"/>
      <point x="376.756761712" y="418.244394031" type="curve"/>
      <point x="384.315912251" y="420.225727133"/>
      <point x="391.562080379" y="422.423088127"/>
      <point x="398.42578125" y="424.858398438" type="curve" smooth="yes"/>
      <point x="399.883749216" y="425.375687555"/>
      <point x="401.483333942" y="425.63694203"/>
      <point x="403.181706422" y="425.63694203" type="curve" smooth="yes"/>
      <point x="412.310896603" y="425.63694203"/>
      <point x="424.294400694" y="418.088412488"/>
      <point x="432.48046875" y="402.180664062" type="curve" smooth="yes"/>
      <point x="435.906310478" y="395.523145151"/>
      <point x="437.322490624" y="389.76260526"/>
      <point x="437.322490624" y="384.895759916" type="curve" smooth="yes"/>
      <point x="437.322490624" y="374.635140949"/>
      <point x="431.027855938" y="368.346813722"/>
      <point x="424.0" y="366.0" type="curve" smooth="yes"/>
      <point x="413.016615607" y="362.332428544"/>
      <point x="388.030694483" y="358.903845949"/>
      <point x="356.003756414" y="356.144351266" type="curve"/>
      <point x="345.382374468" y="325.615508912"/>
      <point x="333.83400019" y="294.109368856"/>
      <point x="321.897195348" y="263.258113994" type="curve"/>
      <point x="330.855405238" y="265.489703495"/>
      <point x="339.401937237" y="268.011457637"/>
      <point x="347.42578125" y="270.858398438" type="curve" smooth="yes"/>
      <point x="348.883749216" y="271.375687555"/>
      <point x="350.483333942" y="271.63694203"/>
      <point x="352.181706422" y="271.63694203" type="curve" smooth="yes"/>
      <point x="361.310896603" y="271.63694203"/>
      <point x="373.294400694" y="264.088412488"/>
      <point x="381.48046875" y="248.180664062" type="curve" smooth="yes"/>
      <point x="384.906310478" y="241.523145151"/>
      <point x="386.322490624" y="235.76260526"/>
      <point x="386.322490624" y="230.895759916" type="curve" smooth="yes"/>
      <point x="386.322490624" y="220.635140949"/>
      <point x="380.027855938" y="214.346813722"/>
      <point x="373.0" y="212.0" type="curve" smooth="yes"/>
      <point x="361.125039399" y="208.034713438"/>
      <point x="332.881962242" y="204.348790366"/>
      <point x="297.068932352" y="201.48580202" type="curve"/>
      <point x="256.976354454" y="105.66825319"/>
      <point x="216.661612877" y="28.9107906814"/>
      <point x="195.162770702" y="28.9107906814" type="curve" smooth="yes"/>
      <point x="195.109713812" y="28.9107906814"/>
      <point x="195.056758912" y="28.9112299821"/>
      <point x="195.00390625" y="28.912109375" type="curve" smooth="yes"/>
      <point x="179.928529006" y="29.1628189437"/>
      <point x="177.19546808" y="33.8959649664"/>
      <point x="177.19546808" y="41.3865274863" type="curve" smooth="yes"/>
      <point x="177.19546808" y="43.261845184"/>
      <point x="177.366773124" y="45.3099945044"/>
      <point x="177.55859375" y="47.50390625" type="curve" smooth="yes"/>
      <point x="178.314220226" y="56.1442924426"/>
      <point x="200.737900137" y="114.801945694"/>
      <point x="229.58201346" y="197.472013211" type="curve"/>
      <point x="202.063228528" y="196.321644304"/>
      <point x="173.441979551" y="195.667810765"/>
      <point x="146.264271504" y="195.667810765" type="curve" smooth="yes"/>
      <point x="136.678677838" y="195.667810765"/>
      <point x="127.272657353" y="195.749146158"/>
      <point x="118.157916384" y="195.918718423" type="curve"/>
      <point x="79.1864369903" y="103.852550102"/>
      <point x="40.5070228876" y="31.3189938062"/>
    </contour>
    <contour>
      <point x="177.3845518" y="349.790402291" type="curve"/>
      <point x="165.416722534" y="315.749256525"/>
      <point x="152.37234687" y="280.697981115"/>
      <point x="138.985624005" y="246.861664142" type="curve"/>
      <point x="173.757620379" y="246.876066952"/>
      <point x="211.734201989" y="247.864217006"/>
      <point x="248.078385755" y="251.352109777" type="curve"/>
      <point x="258.70510005" y="282.863655602"/>
      <point x="269.72141607" y="316.590457968"/>
      <point x="280.503599648" y="351.468736744" type="curve"/>
      <point x="253.008861734" y="350.32040289"/>
      <point x="224.416166557" y="349.667810765"/>
      <point x="197.264271504" y="349.667810765" type="curve" smooth="yes"/>
      <point x="190.536360002" y="349.667810765"/>
      <point x="183.896911972" y="349.707879172"/>
    </contour>
  </outline>
</glyph>
<glyph name="dollar" format="2">
	<advance width="381"/>
	<unicode hex="0024"/>
	<outline>
		<contour>
			<point x="122" y="42" type="curve" smooth="yes"/>
			<point x="181" y="42"/>
			<point x="213" y="103"/>
			<point x="213" y="158" type="curve" smooth="yes"/>
			<point x="213" y="187"/>
			<point x="199" y="209"/>
			<point x="181" y="230" type="curve"/>
			<point x="157" y="161"/>
			<point x="132" y="95"/>
			<point x="109" y="43" type="curve"/>
			<point x="113" y="42"/>
			<point x="117" y="42"/>
		</contour>
		<contour>
			<point x="41" y="-64" type="curve" smooth="yes"/>
			<point x="30" y="-64"/>
			<point x="20" y="-62"/>
			<point x="20" y="-50" type="curve" smooth="yes"/>
			<point x="20" y="-38"/>
			<point x="27" y="-20"/>
			<point x="37" y="10" type="curve"/>
			<point x="11" y="26"/>
			<point x="-18" y="67"/>
			<point x="-18" y="98" type="curve" smooth="yes"/>
			<point x="-18" y="109"/>
			<point x="-15" y="117"/>
			<point x="-8" y="117" type="curve" smooth="yes"/>
			<point x="6" y="117"/>
			<point x="31" y="72"/>
			<point x="54" y="60" type="curve"/>
			<point x="74" y="120"/>
			<point x="101" y="200"/>
			<point x="128" y="286" type="curve"/>
			<point x="82" y="338"/>
			<point x="72" y="378"/>
			<point x="72" y="441" type="curve" smooth="yes"/>
			<point x="76" y="508"/>
			<point x="134" y="558"/>
			<point x="197" y="558" type="curve" smooth="yes"/>
			<point x="200" y="558"/>
			<point x="202" y="558"/>
			<point x="204" y="558" type="curve" smooth="yes"/>
			<point x="207" y="570"/>
			<point x="210" y="582"/>
			<point x="212" y="594" type="curve" smooth="yes"/>
			<point x="217" y="619"/>
			<point x="230" y="618"/>
			<point x="253" y="618" type="curve" smooth="yes"/>
			<point x="277" y="618"/>
			<point x="283" y="615"/>
			<point x="283" y="597" type="curve" smooth="yes"/>
			<point x="283" y="585"/>
			<point x="279" y="566"/>
			<point x="273" y="538" type="curve"/>
			<point x="298" y="523"/>
			<point x="312" y="502"/>
			<point x="312" y="476" type="curve" smooth="yes"/>
			<point x="312" y="461"/>
			<point x="306" y="451"/>
			<point x="298" y="451" type="curve" smooth="yes"/>
			<point x="282" y="451"/>
			<point x="273" y="483"/>
			<point x="262" y="494" type="curve"/>
			<point x="249" y="445"/>
			<point x="231" y="384"/>
			<point x="211" y="321" type="curve"/>
			<point x="252" y="276"/>
			<point x="294" y="227"/>
			<point x="294" y="160" type="curve" smooth="yes"/>
			<point x="294" y="73"/>
			<point x="227" y="-12"/>
			<point x="126" y="-12" type="curve" smooth="yes"/>
			<point x="110" y="-12"/>
			<point x="96" y="-11"/>
			<point x="85" y="-8" type="curve"/>
			<point x="68" y="-42"/>
			<point x="52" y="-64"/>
		</contour>
		<contour>
			<point x="159" y="386" type="curve"/>
			<point x="172" y="431"/>
			<point x="184" y="476"/>
			<point x="195" y="520" type="curve"/>
			<point x="172" y="520"/>
			<point x="139" y="494"/>
			<point x="139" y="446" type="curve" smooth="yes"/>
			<point x="139" y="423"/>
			<point x="146" y="406"/>
		</contour>
	</outline>
</glyph>
<glyph name="percent" format="2">
  <advance width="463"/>
  <unicode hex="0025"/>
  <outline>
    <contour>
      <point x="296.399414062" y="37.8994140625" type="curve" smooth="yes"/>
      <point x="307.319335938" y="38.9560546875"/>
      <point x="368.66015625" y="48.1982421875"/>
      <point x="380.120117188" y="134.359375" type="curve" smooth="yes"/>
      <point x="380.61328125" y="138.06640625"/>
      <point x="380.854492188" y="141.69140625"/>
      <point x="380.854492188" y="145.206054688" type="curve" smooth="yes"/>
      <point x="380.854492188" y="172.75390625"/>
      <point x="366.0078125" y="193.509765625"/>
      <point x="340.990234375" y="193.509765625" type="curve" smooth="yes"/>
      <point x="302.76953125" y="193.509765625"/>
      <point x="261.381835938" y="147.099609375"/>
      <point x="258.1796875" y="86.1298828125" type="curve" smooth="yes"/>
      <point x="258.091796875" y="84.4609375"/>
      <point x="258.048828125" y="82.8310546875"/>
      <point x="258.048828125" y="81.2412109375" type="curve" smooth="yes"/>
      <point x="258.048828125" y="53.4541015625"/>
      <point x="271.262695312" y="37.689453125"/>
      <point x="292.131835938" y="37.689453125" type="curve" smooth="yes"/>
      <point x="293.520507812" y="37.689453125"/>
      <point x="294.944335938" y="37.7587890625"/>
    </contour>
    <contour>
      <point x="351.0" y="229.0" type="curve" smooth="yes"/>
      <point x="422.115234375" y="229.0"/>
      <point x="450.724609375" y="191.440429688"/>
      <point x="450.724609375" y="145.463867188" type="curve" smooth="yes"/>
      <point x="450.724609375" y="141.810546875"/>
      <point x="450.543945312" y="138.104492188"/>
      <point x="450.189453125" y="134.359375" type="curve" smooth="yes"/>
      <point x="442.184570312" y="49.7294921875"/>
      <point x="375.569335938" y="0.58984375"/>
      <point x="294.580078125" y="0.58984375" type="curve" smooth="yes"/>
      <point x="230.416992188" y="0.58984375"/>
      <point x="205.094726562" y="37.1220703125"/>
      <point x="205.094726562" y="85.787109375" type="curve" smooth="yes"/>
      <point x="205.094726562" y="88.8876953125"/>
      <point x="205.198242188" y="92.037109375"/>
      <point x="205.399414062" y="95.2294921875" type="curve" smooth="yes"/>
      <point x="210.583007812" y="177.129882812"/>
      <point x="265.459960938" y="229.0"/>
    </contour>
    <contour>
      <point x="77.3994140625" y="375.899414062" type="curve" smooth="yes"/>
      <point x="88.3193359375" y="376.956054688"/>
      <point x="149.66015625" y="386.198242188"/>
      <point x="161.120117188" y="472.359375" type="curve" smooth="yes"/>
      <point x="161.61328125" y="476.06640625"/>
      <point x="161.854492188" y="479.69140625"/>
      <point x="161.854492188" y="483.206054688" type="curve" smooth="yes"/>
      <point x="161.854492188" y="510.75390625"/>
      <point x="147.0078125" y="531.509765625"/>
      <point x="121.990234375" y="531.509765625" type="curve" smooth="yes"/>
      <point x="83.76953125" y="531.509765625"/>
      <point x="42.3818359375" y="485.099609375"/>
      <point x="39.1796875" y="424.129882812" type="curve" smooth="yes"/>
      <point x="39.091796875" y="422.4609375"/>
      <point x="39.048828125" y="420.831054688"/>
      <point x="39.048828125" y="419.241210938" type="curve" smooth="yes"/>
      <point x="39.048828125" y="391.454101562"/>
      <point x="52.2626953125" y="375.689453125"/>
      <point x="73.1318359375" y="375.689453125" type="curve" smooth="yes"/>
      <point x="74.5205078125" y="375.689453125"/>
      <point x="75.9443359375" y="375.758789062"/>
    </contour>
    <contour>
      <point x="231.456036311" y="475.639827602" type="curve"/>
      <point x="231.382202691" y="474.549923655"/>
      <point x="231.293284371" y="473.456324937"/>
      <point x="231.189453125" y="472.359375" type="curve" smooth="yes"/>
      <point x="223.184570312" y="387.729492188"/>
      <point x="156.569335938" y="338.58984375"/>
      <point x="75.580078125" y="338.58984375" type="curve" smooth="yes"/>
      <point x="11.4169921875" y="338.58984375"/>
      <point x="-13.9052734375" y="375.122070312"/>
      <point x="-13.9052734375" y="423.787109375" type="curve" smooth="yes"/>
      <point x="-13.9052734375" y="426.887695312"/>
      <point x="-13.8017578125" y="430.037109375"/>
      <point x="-13.6005859375" y="433.229492188" type="curve" smooth="yes"/>
      <point x="-8.4169921875" y="515.129882812"/>
      <point x="46.4599609375" y="567.0"/>
      <point x="132.0" y="567.0" type="curve" smooth="yes"/>
      <point x="170.305629577" y="567.0"/>
      <point x="196.278827452" y="556.102659199"/>
      <point x="212.091315991" y="538.862340366" type="curve" smooth="yes"/>
      <point x="227.173110325" y="523.685119725"/>
      <point x="262.386738325" y="509.269472144"/>
      <point x="294.132867523" y="509.269472144" type="curve" smooth="yes"/>
      <point x="311.697646721" y="509.269472144"/>
      <point x="328.200925548" y="513.682513398"/>
      <point x="339.645507812" y="524.821289062" type="curve" smooth="yes"/>
      <point x="345.67578125" y="530.690429688"/>
      <point x="350.725585938" y="534.548828125"/>
      <point x="354.614257812" y="536.104492188" type="curve" smooth="yes"/>
      <point x="356.504882812" y="536.860351562"/>
      <point x="358.784179688" y="537.225585938"/>
      <point x="361.19140625" y="537.225585938" type="curve" smooth="yes"/>
      <point x="369.772460938" y="537.225585938"/>
      <point x="379.979492188" y="532.583984375"/>
      <point x="379.979492188" y="524.471679688" type="curve" smooth="yes"/>
      <point x="379.979492188" y="522.822265625"/>
      <point x="379.557617188" y="521.030273438"/>
      <point x="378.614257812" y="519.104492188" type="curve" smooth="yes"/>
      <point x="275.40625" y="308.328125"/>
      <point x="222.978515625" y="246.228515625"/>
      <point x="136.0" y="19.0" type="curve" smooth="yes"/>
      <point x="130.11328125" y="3.62109375"/>
      <point x="117.857421875" y="0.212890625"/>
      <point x="103.64453125" y="0.212890625" type="curve" smooth="yes"/>
      <point x="99.0048828125" y="0.212890625"/>
      <point x="94.1572265625" y="0.576171875"/>
      <point x="89.25390625" y="1.0048828125" type="curve" smooth="yes"/>
      <point x="88.2578125" y="1.0927734375"/>
      <point x="88.2578125" y="1.0927734375"/>
      <point x="87.26171875" y="1.1796875" type="curve" smooth="yes"/>
      <point x="69.9052734375" y="2.6982421875"/>
      <point x="54.1416015625" y="4.3583984375"/>
      <point x="54.1416015625" y="18.1240234375" type="curve" smooth="yes"/>
      <point x="54.1416015625" y="20.1591796875"/>
      <point x="54.4853515625" y="22.4599609375"/>
      <point x="55.220703125" y="25.0634765625" type="curve" smooth="yes"/>
      <point x="100.729492188" y="186.228515625"/>
      <point x="235.94140625" y="386.328125"/>
      <point x="294.0" y="469.0" type="curve"/>
      <point x="291.568359375" y="468.943359375"/>
      <point x="289.07421875" y="468.915039062"/>
      <point x="286.52734375" y="468.915039062" type="curve" smooth="yes"/>
      <point x="262.060456752" y="468.915039062"/>
      <point x="246.08978457" y="470.912663617"/>
    </contour>
  </outline>
</glyph>
<glyph name="ampersand" format="2">
	<advance width="372"/>
	<unicode hex="0026"/>
	<outline>
		<contour>
			<point x="136" y="-2" type="curve" smooth="yes"/>
			<point x="91" y="-2"/>
			<point x="67" y="35"/>
			<point x="56" y="64" type="curve"/>
			<point x="35" y="37"/>
			<point x="10" y="17"/>
			<point x="-8" y="17" type="curve" smooth="yes"/>
			<point x="-28" y="17"/>
			<point x="-30" y="22"/>
			<point x="-30" y="35" type="curve" smooth="yes"/>
			<point x="-30" y="49"/>
			<point x="-19" y="54"/>
			<point x="9" y="150" type="curve" smooth="yes"/>
			<point x="16" y="175"/>
			<point x="39" y="176"/>
			<point x="62" y="176" type="curve" smooth="yes"/>
			<point x="85" y="176"/>
			<point x="99" y="176"/>
			<point x="99" y="152" type="curve" smooth="yes"/>
			<point x="99" y="142"/>
			<point x="95" y="133"/>
			<point x="95" y="123" type="curve" smooth="yes"/>
			<point x="95" y="100"/>
			<point x="99" y="46"/>
			<point x="131" y="46" type="curve" smooth="yes"/>
			<point x="230" y="46"/>
			<point x="355" y="701"/>
			<point x="495" y="701" type="curve" smooth="yes"/>
			<point x="529" y="701"/>
			<point x="542" y="682"/>
			<point x="542" y="656" type="curve" smooth="yes"/>
			<point x="542" y="621"/>
			<point x="525" y="581"/>
			<point x="489" y="581" type="curve" smooth="yes"/>
			<point x="482" y="581"/>
			<point x="473" y="583"/>
			<point x="467" y="583" type="curve" smooth="yes"/>
			<point x="457" y="583"/>
			<point x="446" y="578"/>
			<point x="439" y="561" type="curve" smooth="yes"/>
			<point x="392" y="460"/>
			<point x="301" y="-2"/>
		</contour>
	</outline>
</glyph>
<glyph name="quotesingle" format="2">
	<advance width="207"/>
	<unicode hex="0027"/>
	<outline>
		<contour>
			<point x="25" y="467" type="curve" smooth="yes"/>
			<point x="10" y="467"/>
			<point x="0" y="475"/>
			<point x="0" y="486" type="curve" smooth="yes"/>
			<point x="0" y="497"/>
			<point x="14" y="511"/>
			<point x="98" y="628" type="curve" smooth="yes"/>
			<point x="102" y="634"/>
			<point x="110" y="640"/>
			<point x="123" y="640" type="curve" smooth="yes"/>
			<point x="140" y="640"/>
			<point x="173" y="627"/>
			<point x="173" y="607" type="curve" smooth="yes"/>
			<point x="173" y="583"/>
			<point x="67" y="467"/>
		</contour>
	</outline>
</glyph>
<glyph name="parenleft" format="2">
  <advance width="231"/>
  <unicode hex="0028"/>
  <outline>
    <contour>
      <point x="205.0" y="-87.0" type="curve" smooth="yes"/>
      <point x="14.5810546875" y="-83.494140625"/>
      <point x="-22.46484375" y="141.966796875"/>
      <point x="-22.46484375" y="234.97265625" type="curve" smooth="yes"/>
      <point x="-22.46484375" y="472.97265625"/>
      <point x="146.53515625" y="628.97265625"/>
      <point x="245.53515625" y="628.97265625" type="curve" smooth="yes"/>
      <point x="253.53515625" y="628.97265625"/>
      <point x="258.53515625" y="624.705078125"/>
      <point x="258.53515625" y="615.97265625" type="curve" smooth="yes"/>
      <point x="258.53515625" y="605.97265625"/>
      <point x="246.53515625" y="600.77734375"/>
      <point x="242.53515625" y="596.97265625" type="curve" smooth="yes"/>
      <point x="216.53515625" y="572.239257812"/>
      <point x="58.53515625" y="507.192382812"/>
      <point x="58.53515625" y="224.97265625" type="curve" smooth="yes"/>
      <point x="58.53515625" y="138.966796875"/>
      <point x="108.954101562" y="-37.4404296875"/>
      <point x="218.53515625" y="-47.02734375" type="curve" smooth="yes"/>
      <point x="235.697666581" y="-48.5288171935"/>
      <point x="243.302089532" y="-55.9599534112"/>
      <point x="243.302089532" y="-64.0162100459" type="curve" smooth="yes"/>
      <point x="243.302089532" y="-74.939224537"/>
      <point x="229.322812909" y="-87.011403309"/>
      <point x="206.233683991" y="-87.011403309" type="curve" smooth="yes"/>
      <point x="205.825296981" y="-87.011403309"/>
      <point x="205.414060003" y="-87.0076265924"/>
    </contour>
  </outline>
</glyph>
<glyph name="parenright" format="2">
  <advance width="231"/>
  <unicode hex="0029"/>
  <outline>
    <contour>
      <point x="31.53515625" y="676.97265625" type="curve" smooth="yes"/>
      <point x="221.954101562" y="673.466796875"/>
      <point x="259.0" y="448.005859375"/>
      <point x="259.0" y="355.0" type="curve" smooth="yes"/>
      <point x="259.0" y="117.0"/>
      <point x="90.0" y="-39.0"/>
      <point x="-9.0" y="-39.0" type="curve" smooth="yes"/>
      <point x="-17.0" y="-39.0"/>
      <point x="-22.0" y="-34.732421875"/>
      <point x="-22.0" y="-26.0" type="curve" smooth="yes"/>
      <point x="-22.0" y="-16.0"/>
      <point x="-10.0" y="-10.8046875"/>
      <point x="-6.0" y="-7.0" type="curve" smooth="yes"/>
      <point x="20.0" y="17.7333984375"/>
      <point x="178.0" y="82.7802734375"/>
      <point x="178.0" y="365.0" type="curve" smooth="yes"/>
      <point x="178.0" y="451.005859375"/>
      <point x="127.581054688" y="627.413085938"/>
      <point x="18.0" y="637.0" type="curve" smooth="yes"/>
      <point x="0.837489668984" y="638.501473444"/>
      <point x="-6.76693328243" y="645.932609662"/>
      <point x="-6.76693328243" y="653.988866296" type="curve" smooth="yes"/>
      <point x="-6.76693328243" y="664.911880787"/>
      <point x="7.2123433411" y="676.984059559"/>
      <point x="30.3014722579" y="676.984059559" type="curve" smooth="yes"/>
      <point x="30.7098592681" y="676.984059559"/>
      <point x="31.121096247" y="676.980282842"/>
    </contour>
  </outline>
</glyph>
<glyph name="asterisk" format="2">
	<advance width="317"/>
	<unicode hex="002A"/>
	<outline>
		<contour>
			<point x="82" y="279" type="curve" smooth="yes"/>
			<point x="63" y="279"/>
			<point x="61" y="286"/>
			<point x="61" y="298" type="curve" smooth="yes"/>
			<point x="61" y="306"/>
			<point x="73" y="334"/>
			<point x="92" y="381" type="curve"/>
			<point x="62" y="383"/>
			<point x="17" y="390"/>
			<point x="17" y="420" type="curve" smooth="yes"/>
			<point x="17" y="435"/>
			<point x="34" y="437"/>
			<point x="49" y="437" type="curve" smooth="yes"/>
			<point x="56" y="437"/>
			<point x="63" y="437"/>
			<point x="71" y="437" type="curve"/>
			<point x="57" y="452"/>
			<point x="36" y="475"/>
			<point x="36" y="488" type="curve" smooth="yes"/>
			<point x="36" y="507"/>
			<point x="68" y="521"/>
			<point x="86" y="521" type="curve" smooth="yes"/>
			<point x="109" y="521"/>
			<point x="116" y="501"/>
			<point x="129" y="483" type="curve"/>
			<point x="134" y="496"/>
			<point x="138" y="510"/>
			<point x="141" y="523" type="curve" smooth="yes"/>
			<point x="148" y="547"/>
			<point x="172" y="548"/>
			<point x="194" y="548" type="curve" smooth="yes"/>
			<point x="216" y="548"/>
			<point x="232" y="548"/>
			<point x="232" y="524" type="curve" smooth="yes"/>
			<point x="232" y="510"/>
			<point x="220" y="480"/>
			<point x="204" y="445" type="curve"/>
			<point x="221" y="449"/>
			<point x="254" y="461"/>
			<point x="264" y="461" type="curve" smooth="yes"/>
			<point x="285" y="461"/>
			<point x="302" y="434"/>
			<point x="302" y="414" type="curve" smooth="yes"/>
			<point x="302" y="388"/>
			<point x="240" y="385"/>
			<point x="210" y="382" type="curve"/>
			<point x="237" y="350"/>
			<point x="262" y="321"/>
			<point x="262" y="313" type="curve" smooth="yes"/>
			<point x="262" y="302"/>
			<point x="251" y="294"/>
			<point x="235" y="294" type="curve" smooth="yes"/>
			<point x="210" y="294"/>
			<point x="177" y="328"/>
			<point x="152" y="351" type="curve"/>
			<point x="142" y="335"/>
			<point x="108" y="279"/>
		</contour>
	</outline>
</glyph>
<glyph name="plus" format="2">
	<advance width="317"/>
	<unicode hex="002B"/>
	<outline>
		<contour>
			<point x="75" y="87" type="curve" smooth="yes"/>
			<point x="53" y="87"/>
			<point x="53" y="93"/>
			<point x="53" y="106" type="curve" smooth="yes"/>
			<point x="53" y="113"/>
			<point x="70" y="151"/>
			<point x="89" y="200" type="curve"/>
			<point x="60" y="202"/>
			<point x="14" y="209"/>
			<point x="14" y="238" type="curve" smooth="yes"/>
			<point x="14" y="254"/>
			<point x="30" y="256"/>
			<point x="46" y="256" type="curve" smooth="yes"/>
			<point x="61" y="256"/>
			<point x="82" y="254"/>
			<point x="109" y="254" type="curve"/>
			<point x="120" y="283"/>
			<point x="130" y="314"/>
			<point x="138" y="342" type="curve" smooth="yes"/>
			<point x="145" y="366"/>
			<point x="169" y="366"/>
			<point x="190" y="366" type="curve" smooth="yes"/>
			<point x="213" y="366"/>
			<point x="228" y="366"/>
			<point x="228" y="343" type="curve" smooth="yes"/>
			<point x="228" y="329"/>
			<point x="217" y="299"/>
			<point x="200" y="264" type="curve"/>
			<point x="228" y="267"/>
			<point x="252" y="280"/>
			<point x="261" y="280" type="curve" smooth="yes"/>
			<point x="282" y="280"/>
			<point x="299" y="249"/>
			<point x="299" y="235" type="curve" smooth="yes"/>
			<point x="299" y="219"/>
			<point x="292" y="203"/>
			<point x="166" y="199" type="curve"/>
			<point x="154" y="176"/>
			<point x="101" y="87"/>
		</contour>
	</outline>
</glyph>
<glyph name="comma" format="2">
	<advance width="223"/>
	<unicode hex="002C"/>
	<outline>
		<contour>
			<point x="8" y="-90" type="curve" smooth="yes"/>
			<point x="-3" y="-90"/>
			<point x="-11" y="-84"/>
			<point x="-11" y="-74" type="curve" smooth="yes"/>
			<point x="-11" y="-55"/>
			<point x="21" y="-25"/>
			<point x="44" y="73" type="curve" smooth="yes"/>
			<point x="46" y="82"/>
			<point x="56" y="96"/>
			<point x="84" y="96" type="curve" smooth="yes"/>
			<point x="103" y="96"/>
			<point x="123" y="92"/>
			<point x="123" y="71" type="curve" smooth="yes"/>
			<point x="123" y="38"/>
			<point x="53" y="-90"/>
		</contour>
	</outline>
</glyph>
<glyph name="hyphen" format="2">
	<advance width="317"/>
	<unicode hex="002D"/>
	<outline>
		<contour>
			<point x="136" y="198" type="curve" smooth="yes"/>
			<point x="71" y="198"/>
			<point x="14" y="204"/>
			<point x="14" y="238" type="curve" smooth="yes"/>
			<point x="14" y="254"/>
			<point x="30" y="256"/>
			<point x="46" y="256" type="curve" smooth="yes"/>
			<point x="61" y="256"/>
			<point x="82" y="254"/>
			<point x="108" y="254" type="curve" smooth="yes"/>
			<point x="201" y="254"/>
			<point x="249" y="280"/>
			<point x="261" y="280" type="curve" smooth="yes"/>
			<point x="282" y="280"/>
			<point x="299" y="249"/>
			<point x="299" y="235" type="curve" smooth="yes"/>
			<point x="299" y="217"/>
			<point x="281" y="198"/>
		</contour>
	</outline>
</glyph>
<glyph name="period" format="2">
	<advance width="200"/>
	<unicode hex="002E"/>
	<outline>
		<contour>
			<point x="22" y="0" type="curve" smooth="yes"/>
			<point x="2" y="0"/>
			<point x="0" y="6"/>
			<point x="0" y="18" type="curve" smooth="yes"/>
			<point x="0" y="32"/>
			<point x="7" y="45"/>
			<point x="12" y="71" type="curve" smooth="yes"/>
			<point x="17" y="96"/>
			<point x="42" y="97"/>
			<point x="66" y="97" type="curve" smooth="yes"/>
			<point x="88" y="97"/>
			<point x="102" y="97"/>
			<point x="102" y="73" type="curve" smooth="yes"/>
			<point x="102" y="29"/>
			<point x="59" y="0"/>
		</contour>
	</outline>
</glyph>
<glyph name="slash" format="2">
	<advance width="244"/>
	<unicode hex="002F"/>
	<outline>
		<contour>
			<point x="35" y="-96" type="curve" smooth="yes"/>
			<point x="-5" y="-96"/>
			<point x="-20" y="-91"/>
			<point x="-20" y="-72" type="curve" smooth="yes"/>
			<point x="-20" y="12"/>
			<point x="278" y="681"/>
			<point x="323" y="698" type="curve" smooth="yes"/>
			<point x="326" y="699"/>
			<point x="328" y="699"/>
			<point x="331" y="699" type="curve" smooth="yes"/>
			<point x="339" y="699"/>
			<point x="346" y="694"/>
			<point x="346" y="687" type="curve" smooth="yes"/>
			<point x="346" y="685"/>
			<point x="345" y="682"/>
			<point x="344" y="680" type="curve" smooth="yes"/>
			<point x="312" y="614"/>
			<point x="147" y="185"/>
			<point x="70" y="-75" type="curve" smooth="yes"/>
			<point x="65" y="-92"/>
			<point x="51" y="-96"/>
		</contour>
	</outline>
</glyph>
<glyph name="zero" format="2">
	<advance width="454"/>
	<unicode hex="0030"/>
	<outline>
		<contour>
			<point x="163" y="0" type="curve" smooth="yes"/>
			<point x="47" y="0"/>
			<point x="-12" y="79"/>
			<point x="-12" y="202" type="curve" smooth="yes"/>
			<point x="-12" y="352"/>
			<point x="57" y="545"/>
			<point x="222" y="545" type="curve" smooth="yes"/>
			<point x="342" y="545"/>
			<point x="400" y="460"/>
			<point x="400" y="339" type="curve" smooth="yes"/>
			<point x="400" y="195"/>
			<point x="315" y="0"/>
		</contour>
		<contour>
			<point x="154" y="51" type="curve" smooth="yes"/>
			<point x="266" y="51"/>
			<point x="310" y="268"/>
			<point x="310" y="372" type="curve" smooth="yes"/>
			<point x="310" y="444"/>
			<point x="289" y="503"/>
			<point x="229" y="503" type="curve" smooth="yes"/>
			<point x="120" y="503"/>
			<point x="72" y="282"/>
			<point x="72" y="177" type="curve" smooth="yes"/>
			<point x="72" y="110"/>
			<point x="90" y="51"/>
		</contour>
	</outline>
</glyph>
<glyph name="one" format="2">
	<advance width="317"/>
	<unicode hex="0031"/>
	<outline>
		<contour>
			<point x="61" y="-16" type="curve" smooth="yes"/>
			<point x="41" y="-16"/>
			<point x="23" y="-17"/>
			<point x="23" y="4" type="curve" smooth="yes"/>
			<point x="23" y="43"/>
			<point x="97" y="250"/>
			<point x="164" y="383" type="curve"/>
			<point x="111" y="338"/>
			<point x="49" y="296"/>
			<point x="28" y="296" type="curve" smooth="yes"/>
			<point x="18" y="296"/>
			<point x="10" y="303"/>
			<point x="10" y="313" type="curve" smooth="yes"/>
			<point x="10" y="321"/>
			<point x="15" y="328"/>
			<point x="28" y="336" type="curve" smooth="yes"/>
			<point x="88" y="374"/>
			<point x="176" y="426"/>
			<point x="267" y="558" type="curve" smooth="yes"/>
			<point x="282" y="580"/>
			<point x="289" y="590"/>
			<point x="303" y="590" type="curve" smooth="yes"/>
			<point x="309" y="590"/>
			<point x="318" y="586"/>
			<point x="318" y="576" type="curve" smooth="yes"/>
			<point x="318" y="566"/>
			<point x="192" y="261"/>
			<point x="113" y="8" type="curve" smooth="yes"/>
			<point x="106" y="-15"/>
			<point x="88" y="-16"/>
		</contour>
	</outline>
</glyph>
<glyph name="two" format="2">
	<advance width="459"/>
	<unicode hex="0032"/>
	<outline>
		<contour>
			<point x="72" y="1" type="curve" smooth="yes"/>
			<point x="36" y="1"/>
			<point x="14" y="21"/>
			<point x="14" y="65" type="curve" smooth="yes"/>
			<point x="14" y="106"/>
			<point x="45" y="131"/>
			<point x="86" y="131" type="curve" smooth="yes"/>
			<point x="99" y="131"/>
			<point x="112" y="129"/>
			<point x="127" y="125" type="curve"/>
			<point x="210" y="199"/>
			<point x="327" y="332"/>
			<point x="327" y="429" type="curve" smooth="yes"/>
			<point x="327" y="465"/>
			<point x="301" y="481"/>
			<point x="269" y="481" type="curve" smooth="yes"/>
			<point x="216" y="481"/>
			<point x="154" y="432"/>
			<point x="154" y="381" type="curve" smooth="yes"/>
			<point x="154" y="362"/>
			<point x="169" y="350"/>
			<point x="184" y="350" type="curve" smooth="yes"/>
			<point x="205" y="350"/>
			<point x="215" y="369"/>
			<point x="237" y="369" type="curve" smooth="yes"/>
			<point x="250" y="369"/>
			<point x="257" y="360"/>
			<point x="257" y="350" type="curve" smooth="yes"/>
			<point x="257" y="316"/>
			<point x="198" y="299"/>
			<point x="164" y="299" type="curve" smooth="yes"/>
			<point x="123" y="299"/>
			<point x="85" y="317"/>
			<point x="85" y="362" type="curve" smooth="yes"/>
			<point x="85" y="459"/>
			<point x="201" y="549"/>
			<point x="304" y="549" type="curve" smooth="yes"/>
			<point x="381" y="549"/>
			<point x="423" y="501"/>
			<point x="423" y="441" type="curve" smooth="yes"/>
			<point x="423" y="307"/>
			<point x="254" y="161"/>
			<point x="190" y="95" type="curve"/>
			<point x="240" y="62"/>
			<point x="282" y="53"/>
			<point x="315" y="53" type="curve" smooth="yes"/>
			<point x="355" y="53"/>
			<point x="380" y="67"/>
			<point x="408" y="67" type="curve" smooth="yes"/>
			<point x="415" y="67"/>
			<point x="418" y="60"/>
			<point x="418" y="54" type="curve" smooth="yes"/>
			<point x="418" y="23"/>
			<point x="359" y="-4"/>
			<point x="316" y="-4" type="curve" smooth="yes"/>
			<point x="258" y="-4"/>
			<point x="200" y="29"/>
			<point x="140" y="37" type="curve"/>
			<point x="111" y="10"/>
			<point x="92" y="1"/>
		</contour>
	</outline>
</glyph>
<glyph name="three" format="2">
	<advance width="451"/>
	<unicode hex="0033"/>
	<outline>
		<contour>
			<point x="100" y="-8" type="curve" smooth="yes"/>
			<point x="45" y="-8"/>
			<point x="-16" y="17"/>
			<point x="-16" y="60" type="curve" smooth="yes"/>
			<point x="-16" y="84"/>
			<point x="5" y="99"/>
			<point x="29" y="99" type="curve" smooth="yes"/>
			<point x="40" y="99"/>
			<point x="51" y="95"/>
			<point x="58" y="88" type="curve" smooth="yes"/>
			<point x="74" y="72"/>
			<point x="72" y="35"/>
			<point x="110" y="35" type="curve" smooth="yes"/>
			<point x="209" y="35"/>
			<point x="285" y="110"/>
			<point x="285" y="206" type="curve" smooth="yes"/>
			<point x="285" y="264"/>
			<point x="248" y="296"/>
			<point x="210" y="296" type="curve" smooth="yes"/>
			<point x="190" y="296"/>
			<point x="182" y="290"/>
			<point x="159" y="290" type="curve" smooth="yes"/>
			<point x="145" y="290"/>
			<point x="139" y="296"/>
			<point x="139" y="304" type="curve" smooth="yes"/>
			<point x="139" y="311"/>
			<point x="145" y="318"/>
			<point x="156" y="321" type="curve" smooth="yes"/>
			<point x="228" y="337"/>
			<point x="273" y="387"/>
			<point x="273" y="444" type="curve" smooth="yes"/>
			<point x="273" y="483"/>
			<point x="250" y="508"/>
			<point x="219" y="508" type="curve" smooth="yes"/>
			<point x="187" y="508"/>
			<point x="182" y="487"/>
			<point x="171" y="468" type="curve" smooth="yes"/>
			<point x="164" y="456"/>
			<point x="150" y="445"/>
			<point x="121" y="445" type="curve" smooth="yes"/>
			<point x="102" y="445"/>
			<point x="89" y="456"/>
			<point x="89" y="475" type="curve" smooth="yes"/>
			<point x="89" y="505"/>
			<point x="130" y="550"/>
			<point x="225" y="550" type="curve" smooth="yes"/>
			<point x="288" y="550"/>
			<point x="359" y="522"/>
			<point x="359" y="450" type="curve" smooth="yes"/>
			<point x="359" y="411"/>
			<point x="345" y="361"/>
			<point x="299" y="331" type="curve"/>
			<point x="347" y="309"/>
			<point x="371" y="263"/>
			<point x="371" y="204" type="curve" smooth="yes"/>
			<point x="371" y="58"/>
			<point x="225" y="-8"/>
		</contour>
	</outline>
</glyph>
<glyph name="four" format="2">
  <advance width="342"/>
  <unicode hex="0034"/>
  <outline>
    <contour>
      <point x="301.0" y="69.0" type="curve" smooth="yes"/>
      <point x="309.978805577" y="63.8158224101"/>
      <point x="313.040887484" y="57.283487883"/>
      <point x="313.040887484" y="50.565667391" type="curve" smooth="yes"/>
      <point x="313.040887484" y="43.05844725"/>
      <point x="309.216883675" y="35.3195876368"/>
      <point x="305.552734375" y="28.9716796875" type="curve" smooth="yes"/>
      <point x="296.74853049" y="13.7189508112"/>
      <point x="287.817091689" y="0.226208850006"/>
      <point x="271.202628696" y="0.226208850006" type="curve" smooth="yes"/>
      <point x="268.949350448" y="0.226208850006"/>
      <point x="266.554756884" y="0.474383401724"/>
      <point x="264.0" y="1.0" type="curve" smooth="yes"/>
      <point x="250.0869112" y="3.86248388357"/>
      <point x="235.402424826" y="6.45861542498"/>
      <point x="220.332525718" y="8.79917410662" type="curve"/>
      <point x="180.232235215" y="-71.714851401"/>
      <point x="137.308639714" y="-143.0"/>
      <point x="115.0" y="-143.0" type="curve" smooth="yes"/>
      <point x="96.0" y="-143.0"/>
      <point x="96.0" y="-137.0"/>
      <point x="96.0" y="-126.0" type="curve" smooth="yes"/>
      <point x="96.0" y="-119.477322001"/>
      <point x="122.289667385" y="-56.8149504828"/>
      <point x="152.349160818" y="17.5249680892" type="curve"/>
      <point x="96.1112299466" y="23.4164561524"/>
      <point x="42.33899363" y="26.0980235216"/>
      <point x="9.95139130066" y="26.0980235216" type="curve" smooth="yes"/>
      <point x="6.36320677105" y="26.0980235216"/>
      <point x="3.03750075862" y="26.0651095223"/>
      <point x="0.0" y="26.0" type="curve" smooth="yes"/>
      <point x="-1.01461290326" y="25.9782515408"/>
      <point x="-2.01420778608" y="25.9675005134"/>
      <point x="-2.99891501268" y="25.9675005134" type="curve" smooth="yes"/>
      <point x="-42.5032185462" y="25.9675005134"/>
      <point x="-58.0467448982" y="43.2706250471"/>
      <point x="-58.0467448982" y="61.9672196606" type="curve" smooth="yes"/>
      <point x="-58.0467448982" y="74.4983554106"/>
      <point x="-51.0643340378" y="87.6554611238"/>
      <point x="-39.6337890625" y="96.6484375" type="curve" smooth="yes"/>
      <point x="106.0" y="211.22575883"/>
      <point x="297.000077154" y="485.764413342"/>
      <point x="316.0" y="492.0" type="curve" smooth="yes"/>
      <point x="319.560952402" y="493.16866934"/>
      <point x="322.590227381" y="493.732947497"/>
      <point x="325.116619462" y="493.732947497" type="curve" smooth="yes"/>
      <point x="331.999542686" y="493.732947497"/>
      <point x="335.149867949" y="489.544649373"/>
      <point x="335.149867949" y="481.979204552" type="curve" smooth="yes"/>
      <point x="335.149867949" y="422.137478689"/>
      <point x="138.046211768" y="151.00075755"/>
      <point x="32.0" y="70.0" type="curve"/>
      <point x="76.0157389413" y="70.5395165552"/>
      <point x="128.369123094" y="73.4974917449"/>
      <point x="175.440760987" y="75.2614707681" type="curve"/>
      <point x="198.061243984" y="132.612475714"/>
      <point x="219.634583289" y="190.220859984"/>
      <point x="231.0" y="230.0" type="curve" smooth="yes"/>
      <point x="237.0" y="251.0"/>
      <point x="256.0" y="252.0"/>
      <point x="276.0" y="252.0" type="curve" smooth="yes"/>
      <point x="277.0" y="252.0"/>
      <point x="277.0" y="252.0"/>
      <point x="278.0" y="252.0" type="curve" smooth="yes"/>
      <point x="298.0" y="252.0"/>
      <point x="312.0" y="252.0"/>
      <point x="312.0" y="231.0" type="curve" smooth="yes"/>
      <point x="312.0" y="217.980465848"/>
      <point x="286.123257336" y="150.48817751"/>
      <point x="252.430462662" y="76.3414921786" type="curve"/>
      <point x="275.654047434" y="75.6719204891"/>
      <point x="293.103995715" y="73.5589904034"/>
    </contour>
  </outline>
</glyph>
<glyph name="five" format="2">
	<advance width="451"/>
	<unicode hex="0035"/>
	<outline>
		<contour>
			<point x="100" y="-8" type="curve" smooth="yes"/>
			<point x="45" y="-8"/>
			<point x="-16" y="17"/>
			<point x="-16" y="60" type="curve" smooth="yes"/>
			<point x="-16" y="84"/>
			<point x="5" y="99"/>
			<point x="29" y="99" type="curve" smooth="yes"/>
			<point x="40" y="99"/>
			<point x="51" y="95"/>
			<point x="58" y="88" type="curve" smooth="yes"/>
			<point x="74" y="72"/>
			<point x="72" y="35"/>
			<point x="110" y="35" type="curve" smooth="yes"/>
			<point x="207" y="35"/>
			<point x="285" y="118"/>
			<point x="285" y="215" type="curve" smooth="yes"/>
			<point x="285" y="276"/>
			<point x="238" y="309"/>
			<point x="196" y="309" type="curve" smooth="yes"/>
			<point x="147" y="309"/>
			<point x="113" y="269"/>
			<point x="100" y="269" type="curve" smooth="yes"/>
			<point x="84" y="269"/>
			<point x="78" y="272"/>
			<point x="78" y="285" type="curve" smooth="yes"/>
			<point x="78" y="302"/>
			<point x="135" y="425"/>
			<point x="162" y="523" type="curve" smooth="yes"/>
			<point x="169" y="547"/>
			<point x="193" y="548"/>
			<point x="214" y="548" type="curve" smooth="yes"/>
			<point x="282" y="548"/>
			<point x="321" y="526"/>
			<point x="362" y="526" type="curve" smooth="yes"/>
			<point x="396" y="526"/>
			<point x="408" y="541"/>
			<point x="433" y="541" type="curve" smooth="yes"/>
			<point x="445" y="541"/>
			<point x="451" y="536"/>
			<point x="451" y="528" type="curve" smooth="yes"/>
			<point x="451" y="494"/>
			<point x="376" y="486"/>
			<point x="341" y="486" type="curve" smooth="yes"/>
			<point x="301" y="486"/>
			<point x="276" y="496"/>
			<point x="247" y="496" type="curve" smooth="yes"/>
			<point x="244" y="496"/>
			<point x="242" y="496"/>
			<point x="239" y="495" type="curve"/>
			<point x="216" y="445"/>
			<point x="180" y="367"/>
			<point x="167" y="346" type="curve"/>
			<point x="184" y="353"/>
			<point x="203" y="357"/>
			<point x="221" y="357" type="curve" smooth="yes"/>
			<point x="318" y="357"/>
			<point x="371" y="296"/>
			<point x="371" y="212" type="curve" smooth="yes"/>
			<point x="371" y="75"/>
			<point x="245" y="-8"/>
		</contour>
	</outline>
</glyph>
<glyph name="six" format="2">
	<advance width="429"/>
	<unicode hex="0036"/>
	<outline>
		<contour>
			<point x="190" y="-2" type="curve" smooth="yes"/>
			<point x="74" y="-2"/>
			<point x="0" y="83"/>
			<point x="0" y="211" type="curve" smooth="yes"/>
			<point x="0" y="410"/>
			<point x="166" y="642"/>
			<point x="340" y="642" type="curve" smooth="yes"/>
			<point x="365" y="642"/>
			<point x="376" y="639"/>
			<point x="376" y="627" type="curve" smooth="yes"/>
			<point x="376" y="618"/>
			<point x="372" y="613"/>
			<point x="354" y="605" type="curve" smooth="yes"/>
			<point x="279" y="572"/>
			<point x="82" y="492"/>
			<point x="82" y="211" type="curve" smooth="yes"/>
			<point x="82" y="127"/>
			<point x="107" y="41"/>
			<point x="194" y="41" type="curve" smooth="yes"/>
			<point x="278" y="41"/>
			<point x="313" y="149"/>
			<point x="313" y="221" type="curve" smooth="yes"/>
			<point x="313" y="279"/>
			<point x="290" y="312"/>
			<point x="246" y="312" type="curve" smooth="yes"/>
			<point x="219" y="312"/>
			<point x="201" y="300"/>
			<point x="179" y="300" type="curve" smooth="yes"/>
			<point x="164" y="300"/>
			<point x="158" y="311"/>
			<point x="158" y="322" type="curve" smooth="yes"/>
			<point x="158" y="350"/>
			<point x="189" y="359"/>
			<point x="243" y="359" type="curve" smooth="yes"/>
			<point x="333" y="359"/>
			<point x="383" y="296"/>
			<point x="383" y="206" type="curve" smooth="yes"/>
			<point x="383" y="97"/>
			<point x="306" y="-2"/>
		</contour>
	</outline>
</glyph>
<glyph name="seven" format="2">
	<advance width="317"/>
	<unicode hex="0037"/>
	<outline>
		<contour>
			<point x="16" y="-160" type="curve" smooth="yes"/>
			<point x="0" y="-160"/>
			<point x="-39" y="-160"/>
			<point x="-39" y="-140" type="curve" smooth="yes"/>
			<point x="-39" y="-112"/>
			<point x="45" y="76"/>
			<point x="121" y="202" type="curve"/>
			<point x="103" y="210"/>
			<point x="68" y="225"/>
			<point x="68" y="245" type="curve" smooth="yes"/>
			<point x="68" y="265"/>
			<point x="95" y="284"/>
			<point x="113" y="284" type="curve" smooth="yes"/>
			<point x="125" y="284"/>
			<point x="140" y="267"/>
			<point x="154" y="258" type="curve"/>
			<point x="199" y="334"/>
			<point x="244" y="405"/>
			<point x="281" y="455" type="curve"/>
			<point x="278" y="455"/>
			<point x="275" y="455"/>
			<point x="273" y="455" type="curve" smooth="yes"/>
			<point x="220" y="455"/>
			<point x="148" y="466"/>
			<point x="122" y="491" type="curve"/>
			<point x="102" y="454"/>
			<point x="67" y="420"/>
			<point x="42" y="420" type="curve" smooth="yes"/>
			<point x="22" y="420"/>
			<point x="20" y="425"/>
			<point x="20" y="437" type="curve" smooth="yes"/>
			<point x="20" y="454"/>
			<point x="39" y="503"/>
			<point x="47" y="536" type="curve" smooth="yes"/>
			<point x="52" y="560"/>
			<point x="75" y="562"/>
			<point x="97" y="562" type="curve" smooth="yes"/>
			<point x="149" y="562"/>
			<point x="156" y="502"/>
			<point x="262" y="502" type="curve" smooth="yes"/>
			<point x="292" y="502"/>
			<point x="319" y="506"/>
			<point x="332" y="517" type="curve" smooth="yes"/>
			<point x="341" y="524"/>
			<point x="345" y="531"/>
			<point x="356" y="531" type="curve" smooth="yes"/>
			<point x="365" y="531"/>
			<point x="377" y="526"/>
			<point x="377" y="517" type="curve" smooth="yes"/>
			<point x="377" y="508"/>
			<point x="270" y="308"/>
			<point x="225" y="224" type="curve"/>
			<point x="243" y="219"/>
			<point x="279" y="218"/>
			<point x="279" y="199" type="curve" smooth="yes"/>
			<point x="279" y="181"/>
			<point x="254" y="173"/>
			<point x="238" y="173" type="curve" smooth="yes"/>
			<point x="227" y="173"/>
			<point x="214" y="175"/>
			<point x="200" y="178" type="curve"/>
			<point x="147" y="80"/>
			<point x="99" y="-15"/>
			<point x="52" y="-139" type="curve" smooth="yes"/>
			<point x="45" y="-156"/>
			<point x="32" y="-160"/>
		</contour>
	</outline>
</glyph>
<glyph name="eight" format="2">
	<advance width="381"/>
	<unicode hex="0038"/>
	<outline>
		<contour>
			<point x="127" y="42" type="curve" smooth="yes"/>
			<point x="179" y="42"/>
			<point x="213" y="105"/>
			<point x="213" y="158" type="curve" smooth="yes"/>
			<point x="213" y="205"/>
			<point x="185" y="238"/>
			<point x="154" y="272" type="curve"/>
			<point x="104" y="231"/>
			<point x="56" y="191"/>
			<point x="56" y="126" type="curve" smooth="yes"/>
			<point x="56" y="74"/>
			<point x="91" y="42"/>
		</contour>
		<contour>
			<point x="121" y="-11" type="curve" smooth="yes"/>
			<point x="50" y="-11"/>
			<point x="-2" y="45"/>
			<point x="-2" y="125" type="curve" smooth="yes"/>
			<point x="-2" y="213"/>
			<point x="45" y="263"/>
			<point x="114" y="317" type="curve"/>
			<point x="83" y="358"/>
			<point x="72" y="388"/>
			<point x="72" y="441" type="curve" smooth="yes"/>
			<point x="72" y="504"/>
			<point x="134" y="558"/>
			<point x="197" y="558" type="curve" smooth="yes"/>
			<point x="262" y="558"/>
			<point x="305" y="523"/>
			<point x="311" y="489" type="curve" smooth="yes"/>
			<point x="311" y="486"/>
			<point x="311" y="484"/>
			<point x="311" y="482" type="curve"/>
			<point x="316" y="487"/>
			<point x="321" y="493"/>
			<point x="325" y="499" type="curve" smooth="yes"/>
			<point x="338" y="516"/>
			<point x="348" y="523"/>
			<point x="355" y="523" type="curve" smooth="yes"/>
			<point x="364" y="523"/>
			<point x="368" y="514"/>
			<point x="368" y="503" type="curve" smooth="yes"/>
			<point x="368" y="495"/>
			<point x="366" y="487"/>
			<point x="362" y="481" type="curve" smooth="yes"/>
			<point x="323" y="413"/>
			<point x="265" y="362"/>
			<point x="210" y="317" type="curve"/>
			<point x="250" y="273"/>
			<point x="294" y="228"/>
			<point x="294" y="160" type="curve" smooth="yes"/>
			<point x="294" y="75"/>
			<point x="221" y="-11"/>
		</contour>
		<contour>
			<point x="172" y="360" type="curve"/>
			<point x="212" y="389"/>
			<point x="252" y="419"/>
			<point x="288" y="456" type="curve"/>
			<point x="284" y="459"/>
			<point x="279" y="465"/>
			<point x="275" y="474" type="curve" smooth="yes"/>
			<point x="266" y="493"/>
			<point x="243" y="521"/>
			<point x="206" y="521" type="curve" smooth="yes"/>
			<point x="175" y="521"/>
			<point x="139" y="500"/>
			<point x="139" y="446" type="curve" smooth="yes"/>
			<point x="139" y="414"/>
			<point x="153" y="386"/>
		</contour>
	</outline>
</glyph>
<glyph name="nine" format="2">
	<advance width="378"/>
	<unicode hex="0039"/>
	<outline>
		<contour>
			<point x="60" y="-26" type="curve" smooth="yes"/>
			<point x="8" y="-26"/>
			<point x="-65" y="5"/>
			<point x="-65" y="55" type="curve" smooth="yes"/>
			<point x="-65" y="77"/>
			<point x="-45" y="91"/>
			<point x="-23" y="91" type="curve" smooth="yes"/>
			<point x="-13" y="91"/>
			<point x="-3" y="88"/>
			<point x="4" y="83" type="curve" smooth="yes"/>
			<point x="21" y="70"/>
			<point x="24" y="18"/>
			<point x="66" y="18" type="curve" smooth="yes"/>
			<point x="149" y="18"/>
			<point x="234" y="157"/>
			<point x="261" y="243" type="curve"/>
			<point x="235" y="224"/>
			<point x="200" y="211"/>
			<point x="156" y="211" type="curve" smooth="yes"/>
			<point x="79" y="211"/>
			<point x="19" y="260"/>
			<point x="19" y="345" type="curve" smooth="yes"/>
			<point x="19" y="444"/>
			<point x="117" y="548"/>
			<point x="227" y="548" type="curve" smooth="yes"/>
			<point x="258" y="548"/>
			<point x="295" y="538"/>
			<point x="312" y="523" type="curve"/>
			<point x="314" y="541"/>
			<point x="351" y="548"/>
			<point x="366" y="548" type="curve" smooth="yes"/>
			<point x="391" y="548"/>
			<point x="403" y="547"/>
			<point x="403" y="528" type="curve" smooth="yes"/>
			<point x="403" y="438"/>
			<point x="319" y="-26"/>
		</contour>
		<contour>
			<point x="168" y="258" type="curve" smooth="yes"/>
			<point x="259" y="258"/>
			<point x="302" y="355"/>
			<point x="302" y="418" type="curve" smooth="yes"/>
			<point x="302" y="461"/>
			<point x="282" y="498"/>
			<point x="228" y="498" type="curve" smooth="yes"/>
			<point x="158" y="498"/>
			<point x="93" y="412"/>
			<point x="93" y="348" type="curve" smooth="yes"/>
			<point x="93" y="300"/>
			<point x="122" y="258"/>
		</contour>
	</outline>
</glyph>
<glyph name="colon" format="2">
	<advance width="223"/>
	<unicode hex="003A"/>
	<outline>
		<contour>
			<point x="55" y="183" type="curve" smooth="yes"/>
			<point x="35" y="183"/>
			<point x="32" y="188"/>
			<point x="32" y="200" type="curve" smooth="yes"/>
			<point x="32" y="215"/>
			<point x="39" y="227"/>
			<point x="45" y="254" type="curve" smooth="yes"/>
			<point x="49" y="279"/>
			<point x="76" y="279"/>
			<point x="98" y="279" type="curve" smooth="yes"/>
			<point x="120" y="279"/>
			<point x="135" y="278"/>
			<point x="135" y="256" type="curve" smooth="yes"/>
			<point x="135" y="211"/>
			<point x="91" y="183"/>
		</contour>
		<contour>
			<point x="22" y="0" type="curve" smooth="yes"/>
			<point x="2" y="0"/>
			<point x="0" y="6"/>
			<point x="0" y="18" type="curve" smooth="yes"/>
			<point x="0" y="32"/>
			<point x="7" y="45"/>
			<point x="12" y="71" type="curve" smooth="yes"/>
			<point x="17" y="96"/>
			<point x="42" y="97"/>
			<point x="66" y="97" type="curve" smooth="yes"/>
			<point x="88" y="97"/>
			<point x="102" y="97"/>
			<point x="102" y="73" type="curve" smooth="yes"/>
			<point x="102" y="29"/>
			<point x="59" y="0"/>
		</contour>
	</outline>
</glyph>
<glyph name="semicolon" format="2">
	<advance width="223"/>
	<unicode hex="003B"/>
	<outline>
		<contour>
			<point x="-21" y="-92" type="curve" smooth="yes"/>
			<point x="-32" y="-92"/>
			<point x="-40" y="-86"/>
			<point x="-40" y="-76" type="curve" smooth="yes"/>
			<point x="-40" y="-58"/>
			<point x="-8" y="-26"/>
			<point x="16" y="71" type="curve" smooth="yes"/>
			<point x="18" y="81"/>
			<point x="27" y="95"/>
			<point x="55" y="95" type="curve" smooth="yes"/>
			<point x="73" y="95"/>
			<point x="95" y="90"/>
			<point x="95" y="70" type="curve" smooth="yes"/>
			<point x="95" y="43"/>
			<point x="26" y="-92"/>
		</contour>
		<contour>
			<point x="55" y="183" type="curve" smooth="yes"/>
			<point x="35" y="183"/>
			<point x="32" y="188"/>
			<point x="32" y="200" type="curve" smooth="yes"/>
			<point x="32" y="215"/>
			<point x="39" y="227"/>
			<point x="45" y="254" type="curve" smooth="yes"/>
			<point x="49" y="279"/>
			<point x="76" y="279"/>
			<point x="98" y="279" type="curve" smooth="yes"/>
			<point x="120" y="279"/>
			<point x="135" y="279"/>
			<point x="135" y="256" type="curve" smooth="yes"/>
			<point x="135" y="211"/>
			<point x="91" y="183"/>
		</contour>
	</outline>
</glyph>
<glyph name="less" format="2">
	<advance width="224"/>
	<unicode hex="003C"/>
	<outline>
		<contour>
			<point x="156" y="-2" type="curve" smooth="yes"/>
			<point x="138" y="-2"/>
			<point x="125" y="30"/>
			<point x="12" y="102" type="curve" smooth="yes"/>
			<point x="0" y="109"/>
			<point x="-4" y="125"/>
			<point x="-4" y="140" type="curve" smooth="yes"/>
			<point x="-4" y="151"/>
			<point x="-2" y="162"/>
			<point x="2" y="170" type="curve" smooth="yes"/>
			<point x="9" y="186"/>
			<point x="43" y="222"/>
			<point x="99" y="307" type="curve" smooth="yes"/>
			<point x="103" y="313"/>
			<point x="111" y="319"/>
			<point x="124" y="319" type="curve" smooth="yes"/>
			<point x="141" y="319"/>
			<point x="174" y="306"/>
			<point x="174" y="286" type="curve" smooth="yes"/>
			<point x="174" y="263"/>
			<point x="87" y="175"/>
			<point x="51" y="149" type="curve"/>
			<point x="81" y="127"/>
			<point x="174" y="62"/>
			<point x="174" y="23" type="curve" smooth="yes"/>
			<point x="174" y="8"/>
			<point x="166" y="-2"/>
		</contour>
	</outline>
</glyph>
<glyph name="equal" format="2">
	<advance width="317"/>
	<unicode hex="003D"/>
	<outline>
		<contour>
			<point x="128" y="126" type="curve" smooth="yes"/>
			<point x="85" y="126"/>
			<point x="6" y="127"/>
			<point x="6" y="166" type="curve" smooth="yes"/>
			<point x="6" y="182"/>
			<point x="22" y="184"/>
			<point x="38" y="184" type="curve" smooth="yes"/>
			<point x="53" y="184"/>
			<point x="74" y="182"/>
			<point x="100" y="182" type="curve" smooth="yes"/>
			<point x="189" y="182"/>
			<point x="239" y="208"/>
			<point x="253" y="208" type="curve" smooth="yes"/>
			<point x="271" y="208"/>
			<point x="291" y="180"/>
			<point x="291" y="162" type="curve" smooth="yes"/>
			<point x="291" y="144"/>
			<point x="269" y="126"/>
		</contour>
		<contour>
			<point x="135" y="232" type="curve" smooth="yes"/>
			<point x="93" y="232"/>
			<point x="12" y="232"/>
			<point x="12" y="272" type="curve" smooth="yes"/>
			<point x="12" y="287"/>
			<point x="29" y="290"/>
			<point x="44" y="290" type="curve" smooth="yes"/>
			<point x="60" y="290"/>
			<point x="80" y="288"/>
			<point x="106" y="288" type="curve" smooth="yes"/>
			<point x="202" y="288"/>
			<point x="244" y="314"/>
			<point x="259" y="314" type="curve" smooth="yes"/>
			<point x="276" y="314"/>
			<point x="297" y="290"/>
			<point x="297" y="268" type="curve" smooth="yes"/>
			<point x="297" y="251"/>
			<point x="281" y="232"/>
		</contour>
	</outline>
</glyph>
<glyph name="greater" format="2">
	<advance width="199"/>
	<unicode hex="003E"/>
	<outline>
		<contour>
			<point x="41" y="2" type="curve" smooth="yes"/>
			<point x="20" y="2"/>
			<point x="-9" y="19"/>
			<point x="-9" y="38" type="curve" smooth="yes"/>
			<point x="-9" y="44"/>
			<point x="-7" y="48"/>
			<point x="-4" y="51" type="curve" smooth="yes"/>
			<point x="27" y="88"/>
			<point x="88" y="142"/>
			<point x="125" y="165" type="curve"/>
			<point x="93" y="192"/>
			<point x="20" y="252"/>
			<point x="20" y="295" type="curve" smooth="yes"/>
			<point x="20" y="309"/>
			<point x="30" y="319"/>
			<point x="39" y="319" type="curve" smooth="yes"/>
			<point x="55" y="319"/>
			<point x="70" y="282"/>
			<point x="168" y="208" type="curve" smooth="yes"/>
			<point x="178" y="201"/>
			<point x="182" y="188"/>
			<point x="182" y="176" type="curve" smooth="yes"/>
			<point x="182" y="162"/>
			<point x="178" y="149"/>
			<point x="173" y="140" type="curve" smooth="yes"/>
			<point x="164" y="124"/>
			<point x="127" y="91"/>
			<point x="64" y="12" type="curve" smooth="yes"/>
			<point x="60" y="7"/>
			<point x="53" y="2"/>
		</contour>
	</outline>
</glyph>
<glyph name="question" format="2">
  <advance width="202"/>
  <unicode hex="003F"/>
  <outline>
    <contour>
      <point x="-12.0" y="16.0" type="curve" smooth="yes"/>
      <point x="-12.0" y="29.0"/>
      <point x="-5.9052734375" y="40.0"/>
      <point x="-1.0" y="64.0" type="curve" smooth="yes"/>
      <point x="3.373046875" y="85.3984375"/>
      <point x="24.0" y="87.0"/>
      <point x="44.0" y="87.0" type="curve" smooth="yes"/>
      <point x="45.0" y="87.0"/>
      <point x="46.0" y="87.0"/>
      <point x="47.0" y="87.0" type="curve" smooth="yes"/>
      <point x="67.0" y="87.0"/>
      <point x="80.0" y="87.0"/>
      <point x="80.0" y="66.0" type="curve" smooth="yes"/>
      <point x="80.0" y="26.0"/>
      <point x="41.0" y="0.0"/>
      <point x="8.0" y="0.0" type="curve" smooth="yes"/>
      <point x="-10.0" y="0.0"/>
      <point x="-12.0" y="5.0"/>
    </contour>
    <contour>
      <point x="34.0" y="216.0" type="curve" smooth="yes"/>
      <point x="59.134765625" y="302.0"/>
      <point x="162.705441887" y="377.000091536"/>
      <point x="176.0" y="466.0" type="curve" smooth="yes"/>
      <point x="176.91635474" y="472.134501594"/>
      <point x="177.347998664" y="477.891116406"/>
      <point x="177.347998664" y="483.283527433" type="curve" smooth="yes"/>
      <point x="177.347998664" y="531.202766346"/>
      <point x="143.26172867" y="550.361381545"/>
      <point x="112.328737285" y="550.361381545" type="curve" smooth="yes"/>
      <point x="109.859415852" y="550.361381545"/>
      <point x="107.410188759" y="550.239292829"/>
      <point x="105.0" y="550.0" type="curve" smooth="yes"/>
      <point x="78.0" y="547.319335938"/>
      <point x="49.2158203125" y="530.6796875"/>
      <point x="31.0" y="492.0" type="curve" smooth="yes"/>
      <point x="21.4451513424" y="471.711191868"/>
      <point x="9.05273753963" y="463.263132285"/>
      <point x="-1.39316640509" y="463.263132285" type="curve" smooth="yes"/>
      <point x="-13.1529392809" y="463.263132285"/>
      <point x="-22.4457503853" y="473.970008465"/>
      <point x="-22.4457503853" y="490.543121052" type="curve" smooth="yes"/>
      <point x="-22.4457503853" y="492.607512787"/>
      <point x="-22.3015643596" y="494.762924268"/>
      <point x="-22.0" y="497.0" type="curve" smooth="yes"/>
      <point x="-15.259765625" y="547.0"/>
      <point x="37.9999788135" y="592.777626349"/>
      <point x="121.0" y="599.0" type="curve" smooth="yes"/>
      <point x="125.615183936" y="599.34599267"/>
      <point x="130.16163497" y="599.515345768"/>
      <point x="134.632426369" y="599.515345768" type="curve" smooth="yes"/>
      <point x="209.434336218" y="599.515345768"/>
      <point x="263.056497718" y="552.107556186"/>
      <point x="263.056497718" y="491.419295995" type="curve" smooth="yes"/>
      <point x="263.056497718" y="490.2841029"/>
      <point x="263.037735922" y="489.144263116"/>
      <point x="263.0" y="488.0" type="curve" smooth="yes"/>
      <point x="258.844726562" y="362.0"/>
      <point x="135.374360698" y="321.999857338"/>
      <point x="77.0" y="184.0" type="curve" smooth="yes"/>
      <point x="72.4105444915" y="173.150301642"/>
      <point x="60.0726823084" y="165.314131718"/>
      <point x="49.1529622136" y="165.314131718" type="curve" smooth="yes"/>
      <point x="38.8048985679" y="165.314131718"/>
      <point x="29.7303817437" y="172.351317471"/>
      <point x="29.7303817437" y="190.529881576" type="curve" smooth="yes"/>
      <point x="29.7303817437" y="197.369745866"/>
      <point x="31.0150746556" y="205.786911744"/>
    </contour>
  </outline>
</glyph>
<glyph name="at" format="2">
	<advance width="706"/>
	<unicode hex="0040"/>
	<outline>
		<contour>
			<point x="53" y="-66" type="curve" smooth="yes"/>
			<point x="10" y="-66"/>
			<point x="-8" y="-19"/>
			<point x="-8" y="18" type="curve" smooth="yes"/>
			<point x="-8" y="54"/>
			<point x="2" y="89"/>
			<point x="70" y="89" type="curve" smooth="yes"/>
			<point x="123" y="89"/>
			<point x="190" y="58"/>
			<point x="246" y="58" type="curve" smooth="yes"/>
			<point x="309" y="58"/>
			<point x="334" y="106"/>
			<point x="334" y="177" type="curve" smooth="yes"/>
			<point x="334" y="213"/>
			<point x="372" y="223"/>
			<point x="412" y="223" type="curve" smooth="yes"/>
			<point x="423" y="223"/>
			<point x="435" y="216"/>
			<point x="435" y="201" type="curve" smooth="yes"/>
			<point x="435" y="164"/>
			<point x="424" y="148"/>
			<point x="424" y="126" type="curve" smooth="yes"/>
			<point x="424" y="102"/>
			<point x="427" y="48"/>
			<point x="460" y="48" type="curve" smooth="yes"/>
			<point x="559" y="48"/>
			<point x="683" y="703"/>
			<point x="824" y="703" type="curve" smooth="yes"/>
			<point x="857" y="703"/>
			<point x="870" y="687"/>
			<point x="870" y="654" type="curve" smooth="yes"/>
			<point x="870" y="621"/>
			<point x="853" y="583"/>
			<point x="817" y="583" type="curve" smooth="yes"/>
			<point x="809" y="583"/>
			<point x="802" y="585"/>
			<point x="796" y="585" type="curve" smooth="yes"/>
			<point x="784" y="585"/>
			<point x="774" y="580"/>
			<point x="767" y="563" type="curve" smooth="yes"/>
			<point x="721" y="462"/>
			<point x="629" y="0"/>
			<point x="464" y="0" type="curve" smooth="yes"/>
			<point x="418" y="0"/>
			<point x="394" y="40"/>
			<point x="383" y="68" type="curve"/>
			<point x="348" y="33"/>
			<point x="303" y="14"/>
			<point x="255" y="14" type="curve" smooth="yes"/>
			<point x="201" y="14"/>
			<point x="161" y="38"/>
			<point x="116" y="38" type="curve" smooth="yes"/>
			<point x="78" y="38"/>
			<point x="70" y="19"/>
			<point x="70" y="-2" type="curve" smooth="yes"/>
			<point x="70" y="-18"/>
			<point x="75" y="-36"/>
			<point x="75" y="-47" type="curve" smooth="yes"/>
			<point x="75" y="-59"/>
			<point x="75" y="-66"/>
		</contour>
	</outline>
</glyph>
<glyph name="A" format="2">
	<advance width="669.6875"/>
	<unicode hex="0041"/>
	<anchor x="335" y="0" name="bottom"/>
	<anchor x="631" y="69" name="ogonek"/>
	<anchor x="335" y="700" name="top"/>
	<outline>
		<contour>
			<point x="40" y="0" type="curve" smooth="yes"/>
			<point x="91" y="0" type="line" smooth="yes"/>
			<point x="106" y="0"/>
			<point x="114" y="11"/>
			<point x="116" y="17" type="curve" smooth="yes"/>
			<point x="171" y="159" type="line"/>
			<point x="499" y="159" type="line"/>
			<point x="554" y="17" type="line" smooth="yes"/>
			<point x="556" y="11"/>
			<point x="563" y="0"/>
			<point x="579" y="0" type="curve" smooth="yes"/>
			<point x="630" y="0" type="line" smooth="yes"/>
			<point x="641" y="0"/>
			<point x="650" y="9"/>
			<point x="650" y="20" type="curve" smooth="yes"/>
			<point x="650" y="22"/>
			<point x="649" y="28"/>
			<point x="648" y="31" type="curve" smooth="yes"/>
			<point x="401" y="678" type="line" smooth="yes"/>
			<point x="396" y="691"/>
			<point x="387" y="700"/>
			<point x="369" y="700" type="curve" smooth="yes"/>
			<point x="301" y="700" type="line" smooth="yes"/>
			<point x="283" y="700"/>
			<point x="274" y="691"/>
			<point x="269" y="678" type="curve" smooth="yes"/>
			<point x="21" y="31" type="line" smooth="yes"/>
			<point x="20" y="28"/>
			<point x="20" y="22"/>
			<point x="20" y="20" type="curve" smooth="yes"/>
			<point x="20" y="9"/>
			<point x="29" y="0"/>
		</contour>
		<contour>
			<point x="200" y="245" type="line"/>
			<point x="335" y="600" type="line"/>
			<point x="470" y="245" type="line"/>
		</contour>
	</outline>
</glyph>
<glyph name="B" format="2">
	<advance width="668.1875"/>
	<unicode hex="0042"/>
	<anchor x="335" y="0" name="bottom"/>
	<anchor x="335" y="700" name="top"/>
	<outline>
		<contour>
			<point x="110" y="0" type="curve" smooth="yes"/>
			<point x="392" y="0" type="line"/>
			<point x="536" y="0"/>
			<point x="613" y="92"/>
			<point x="613" y="202" type="curve" smooth="yes"/>
			<point x="613" y="283"/>
			<point x="565" y="342"/>
			<point x="513" y="368" type="curve"/>
			<point x="551" y="387"/>
			<point x="599" y="433"/>
			<point x="599" y="515" type="curve" smooth="yes"/>
			<point x="599" y="619"/>
			<point x="534" y="700"/>
			<point x="384" y="700" type="curve" smooth="yes"/>
			<point x="110" y="700" type="line" smooth="yes"/>
			<point x="96" y="700"/>
			<point x="87" y="690"/>
			<point x="87" y="676" type="curve" smooth="yes"/>
			<point x="87" y="23" type="line" smooth="yes"/>
			<point x="87" y="10"/>
			<point x="96" y="0"/>
		</contour>
		<contour>
			<point x="185" y="81" type="line"/>
			<point x="185" y="324" type="line"/>
			<point x="379" y="324" type="line"/>
			<point x="465" y="324"/>
			<point x="513" y="273"/>
			<point x="513" y="202" type="curve" smooth="yes"/>
			<point x="513" y="133"/>
			<point x="465" y="81"/>
			<point x="379" y="81" type="curve" smooth="yes"/>
		</contour>
		<contour>
			<point x="185" y="404" type="line"/>
			<point x="185" y="619" type="line"/>
			<point x="369" y="619" type="line"/>
			<point x="455" y="619"/>
			<point x="499" y="582"/>
			<point x="499" y="514" type="curve" smooth="yes"/>
			<point x="499" y="446"/>
			<point x="455" y="404"/>
			<point x="369" y="404" type="curve" smooth="yes"/>
		</contour>
	</outline>
</glyph>
<glyph name="C" format="2">
	<advance width="666.375"/>
	<unicode hex="0043"/>
	<anchor x="334" y="0" name="bottom"/>
	<anchor x="334" y="700" name="top"/>
	<outline>
		<contour>
			<point x="339" y="-10" type="curve" smooth="yes"/>
			<point x="525" y="-10"/>
			<point x="614" y="102"/>
			<point x="619" y="214" type="curve" smooth="yes"/>
			<point x="620" y="226"/>
			<point x="610" y="234"/>
			<point x="598" y="234" type="curve" smooth="yes"/>
			<point x="543" y="234" type="line" smooth="yes"/>
			<point x="530" y="234"/>
			<point x="522" y="229"/>
			<point x="518" y="211" type="curve" smooth="yes"/>
			<point x="495" y="107"/>
			<point x="432" y="75"/>
			<point x="339" y="75" type="curve" smooth="yes"/>
			<point x="231" y="75"/>
			<point x="165" y="132"/>
			<point x="161" y="266" type="curve" smooth="yes"/>
			<point x="159" y="323"/>
			<point x="159" y="379"/>
			<point x="161" y="434" type="curve" smooth="yes"/>
			<point x="165" y="568"/>
			<point x="231" y="625"/>
			<point x="339" y="625" type="curve" smooth="yes"/>
			<point x="432" y="625"/>
			<point x="494" y="593"/>
			<point x="518" y="489" type="curve" smooth="yes"/>
			<point x="522" y="472"/>
			<point x="530" y="466"/>
			<point x="543" y="466" type="curve" smooth="yes"/>
			<point x="598" y="466" type="line" smooth="yes"/>
			<point x="610" y="466"/>
			<point x="620" y="475"/>
			<point x="619" y="487" type="curve" smooth="yes"/>
			<point x="614" y="598"/>
			<point x="525" y="710"/>
			<point x="339" y="710" type="curve" smooth="yes"/>
			<point x="156" y="710"/>
			<point x="67" y="601"/>
			<point x="61" y="439" type="curve" smooth="yes"/>
			<point x="59" y="382"/>
			<point x="59" y="315"/>
			<point x="61" y="261" type="curve" smooth="yes"/>
			<point x="67" y="98"/>
			<point x="155" y="-10"/>
		</contour>
	</outline>
</glyph>
<glyph name="D" format="2">
	<advance width="688.8125"/>
	<unicode hex="0044"/>
	<anchor x="345" y="0" name="bottom"/>
	<anchor x="345" y="350" name="center"/>
	<anchor x="344" y="700" name="top"/>
	<outline>
		<contour>
			<point x="110" y="0" type="curve" smooth="yes"/>
			<point x="342" y="0" type="line" smooth="yes"/>
			<point x="545" y="0"/>
			<point x="620" y="87"/>
			<point x="625" y="272" type="curve" smooth="yes"/>
			<point x="626" y="331"/>
			<point x="626" y="370"/>
			<point x="625" y="429" type="curve" smooth="yes"/>
			<point x="621" y="604"/>
			<point x="544" y="700"/>
			<point x="337" y="700" type="curve"/>
			<point x="110" y="700" type="line" smooth="yes"/>
			<point x="96" y="700"/>
			<point x="87" y="690"/>
			<point x="87" y="676" type="curve" smooth="yes"/>
			<point x="87" y="23" type="line" smooth="yes"/>
			<point x="87" y="10"/>
			<point x="96" y="0"/>
		</contour>
		<contour>
			<point x="185" y="85" type="line"/>
			<point x="185" y="615" type="line"/>
			<point x="332" y="615" type="line" smooth="yes"/>
			<point x="470" y="615"/>
			<point x="523" y="554"/>
			<point x="526" y="425" type="curve" smooth="yes"/>
			<point x="528" y="366"/>
			<point x="528" y="335"/>
			<point x="526" y="276" type="curve" smooth="yes"/>
			<point x="523" y="139"/>
			<point x="474" y="85"/>
			<point x="337" y="85" type="curve" smooth="yes"/>
		</contour>
	</outline>
</glyph>
<glyph name="E" format="2">
	<advance width="606.0625"/>
	<unicode hex="0045"/>
	<anchor x="303" y="0" name="bottom"/>
	<anchor x="550" y="69" name="ogonek"/>
	<anchor x="303" y="700" name="top"/>
	<anchor x="20" y="700" name="topleft"/>
	<outline>
		<contour>
			<point x="110" y="0" type="curve" smooth="yes"/>
			<point x="531" y="0" type="line" smooth="yes"/>
			<point x="545" y="0"/>
			<point x="554" y="10"/>
			<point x="554" y="23" type="curve" smooth="yes"/>
			<point x="554" y="62" type="line" smooth="yes"/>
			<point x="554" y="76"/>
			<point x="545" y="85"/>
			<point x="531" y="85" type="curve"/>
			<point x="183" y="85" type="line"/>
			<point x="183" y="312" type="line"/>
			<point x="501" y="312" type="line" smooth="yes"/>
			<point x="515" y="312"/>
			<point x="524" y="322"/>
			<point x="524" y="335" type="curve" smooth="yes"/>
			<point x="524" y="372" type="line" smooth="yes"/>
			<point x="524" y="386"/>
			<point x="515" y="396"/>
			<point x="501" y="396" type="curve" smooth="yes"/>
			<point x="183" y="396" type="line"/>
			<point x="183" y="615" type="line"/>
			<point x="523" y="615" type="line" smooth="yes"/>
			<point x="537" y="615"/>
			<point x="546" y="624"/>
			<point x="546" y="638" type="curve" smooth="yes"/>
			<point x="546" y="676" type="line" smooth="yes"/>
			<point x="546" y="690"/>
			<point x="537" y="700"/>
			<point x="523" y="700" type="curve" smooth="yes"/>
			<point x="110" y="700" type="line" smooth="yes"/>
			<point x="96" y="700"/>
			<point x="87" y="690"/>
			<point x="87" y="676" type="curve" smooth="yes"/>
			<point x="87" y="23" type="line" smooth="yes"/>
			<point x="87" y="10"/>
			<point x="96" y="0"/>
		</contour>
	</outline>
</glyph>
<glyph name="F" format="2">
	<advance width="584.25"/>
	<unicode hex="0046"/>
	<anchor x="292" y="0" name="bottom"/>
	<anchor x="292" y="700" name="top"/>
	<outline>
		<contour>
			<point x="110" y="0" type="curve" smooth="yes"/>
			<point x="160" y="0" type="line" smooth="yes"/>
			<point x="174" y="0"/>
			<point x="184" y="10"/>
			<point x="184" y="23" type="curve" smooth="yes"/>
			<point x="184" y="293" type="line"/>
			<point x="498" y="293" type="line" smooth="yes"/>
			<point x="512" y="293"/>
			<point x="522" y="303"/>
			<point x="522" y="316" type="curve" smooth="yes"/>
			<point x="522" y="356" type="line" smooth="yes"/>
			<point x="522" y="371"/>
			<point x="512" y="380"/>
			<point x="498" y="380" type="curve" smooth="yes"/>
			<point x="184" y="380" type="line"/>
			<point x="184" y="613" type="line"/>
			<point x="518" y="613" type="line" smooth="yes"/>
			<point x="532" y="613"/>
			<point x="542" y="622"/>
			<point x="542" y="636" type="curve" smooth="yes"/>
			<point x="542" y="676" type="line" smooth="yes"/>
			<point x="542" y="690"/>
			<point x="532" y="700"/>
			<point x="518" y="700" type="curve" smooth="yes"/>
			<point x="110" y="700" type="line"/>
			<point x="96" y="700"/>
			<point x="87" y="690"/>
			<point x="87" y="676" type="curve" smooth="yes"/>
			<point x="87" y="23" type="line" smooth="yes"/>
			<point x="87" y="10"/>
			<point x="96" y="0"/>
		</contour>
	</outline>
</glyph>
<glyph name="G" format="2">
	<advance width="680.6875"/>
	<unicode hex="0047"/>
	<anchor x="352" y="0" name="bottom"/>
	<anchor x="346" y="700" name="top"/>
	<outline>
		<contour>
			<point x="342" y="-10" type="curve" smooth="yes"/>
			<point x="519" y="-10"/>
			<point x="625" y="97"/>
			<point x="625" y="261" type="curve" smooth="yes"/>
			<point x="625" y="357" type="line" smooth="yes"/>
			<point x="625" y="371"/>
			<point x="616" y="381"/>
			<point x="602" y="381" type="curve" smooth="yes"/>
			<point x="376" y="381" type="line" smooth="yes"/>
			<point x="363" y="381"/>
			<point x="353" y="371"/>
			<point x="353" y="357" type="curve" smooth="yes"/>
			<point x="353" y="325" type="line" smooth="yes"/>
			<point x="353" y="310"/>
			<point x="363" y="301"/>
			<point x="376" y="301" type="curve" smooth="yes"/>
			<point x="526" y="301" type="line"/>
			<point x="526" y="259" type="line" smooth="yes"/>
			<point x="526" y="132"/>
			<point x="448" y="75"/>
			<point x="342" y="75" type="curve" smooth="yes"/>
			<point x="236" y="75"/>
			<point x="166" y="129"/>
			<point x="161" y="262" type="curve" smooth="yes"/>
			<point x="159" y="321"/>
			<point x="159" y="381"/>
			<point x="161" y="440" type="curve" smooth="yes"/>
			<point x="166" y="571"/>
			<point x="236" y="625"/>
			<point x="342" y="625" type="curve" smooth="yes"/>
			<point x="447" y="625"/>
			<point x="497" y="568"/>
			<point x="514" y="516" type="curve" smooth="yes"/>
			<point x="519" y="502"/>
			<point x="524" y="498"/>
			<point x="537" y="498" type="curve" smooth="yes"/>
			<point x="596" y="498" type="line" smooth="yes"/>
			<point x="609" y="498"/>
			<point x="618" y="506"/>
			<point x="617" y="518" type="curve" smooth="yes"/>
			<point x="614" y="587"/>
			<point x="531" y="710"/>
			<point x="342" y="710" type="curve" smooth="yes"/>
			<point x="166" y="710"/>
			<point x="67" y="606"/>
			<point x="61" y="445" type="curve" smooth="yes"/>
			<point x="59" y="386"/>
			<point x="59" y="316"/>
			<point x="61" y="257" type="curve" smooth="yes"/>
			<point x="67" y="95"/>
			<point x="164" y="-10"/>
		</contour>
	</outline>
</glyph>
<glyph name="H" format="2">
	<advance width="713.5"/>
	<unicode hex="0048"/>
	<anchor x="357" y="0" name="bottom"/>
	<anchor x="357" y="350" name="center"/>
	<anchor x="357" y="700" name="top"/>
	<anchor x="20" y="700" name="topleft"/>
	<outline>
		<contour>
			<point x="110" y="0" type="curve" smooth="yes"/>
			<point x="161" y="0" type="line" smooth="yes"/>
			<point x="175" y="0"/>
			<point x="185" y="10"/>
			<point x="185" y="23" type="curve" smooth="yes"/>
			<point x="185" y="310" type="line"/>
			<point x="529" y="310" type="line"/>
			<point x="529" y="23" type="line" smooth="yes"/>
			<point x="529" y="10"/>
			<point x="538" y="0"/>
			<point x="552" y="0" type="curve" smooth="yes"/>
			<point x="603" y="0" type="line" smooth="yes"/>
			<point x="617" y="0"/>
			<point x="627" y="10"/>
			<point x="627" y="23" type="curve" smooth="yes"/>
			<point x="627" y="676" type="line" smooth="yes"/>
			<point x="627" y="690"/>
			<point x="617" y="700"/>
			<point x="603" y="700" type="curve" smooth="yes"/>
			<point x="552" y="700" type="line"/>
			<point x="538" y="700"/>
			<point x="529" y="690"/>
			<point x="529" y="676" type="curve" smooth="yes"/>
			<point x="529" y="400" type="line"/>
			<point x="185" y="400" type="line"/>
			<point x="185" y="676" type="line" smooth="yes"/>
			<point x="185" y="690"/>
			<point x="175" y="700"/>
			<point x="161" y="700" type="curve" smooth="yes"/>
			<point x="110" y="700" type="line" smooth="yes"/>
			<point x="96" y="700"/>
			<point x="87" y="690"/>
			<point x="87" y="676" type="curve" smooth="yes"/>
			<point x="87" y="23" type="line" smooth="yes"/>
			<point x="87" y="9"/>
			<point x="96" y="0"/>
		</contour>
	</outline>
</glyph>
<glyph name="I" format="2">
	<advance width="272.9375"/>
	<unicode hex="0049"/>
	<anchor x="137" y="0" name="bottom"/>
	<anchor x="184" y="69" name="ogonek"/>
	<anchor x="137" y="700" name="top"/>
	<anchor x="20" y="700" name="topleft"/>
	<outline>
		<contour>
			<point x="110" y="0" type="curve" smooth="yes"/>
			<point x="163" y="0" type="line" smooth="yes"/>
			<point x="177" y="0"/>
			<point x="186" y="10"/>
			<point x="186" y="23" type="curve" smooth="yes"/>
			<point x="186" y="677" type="line" smooth="yes"/>
			<point x="186" y="690"/>
			<point x="177" y="700"/>
			<point x="163" y="700" type="curve" smooth="yes"/>
			<point x="110" y="700" type="line" smooth="yes"/>
			<point x="96" y="700"/>
			<point x="87" y="690"/>
			<point x="87" y="677" type="curve" smooth="yes"/>
			<point x="87" y="23" type="line" smooth="yes"/>
			<point x="87" y="10"/>
			<point x="96" y="0"/>
		</contour>
	</outline>
</glyph>
<glyph name="J" format="2">
	<advance width="633.75"/>
	<unicode hex="004A"/>
	<anchor x="317" y="0" name="bottom"/>
	<anchor x="316" y="700" name="top"/>
	<outline>
		<contour>
			<point x="295" y="-10" type="curve" smooth="yes"/>
			<point x="457" y="-10"/>
			<point x="553" y="94"/>
			<point x="553" y="256" type="curve"/>
			<point x="553" y="676" type="line" smooth="yes"/>
			<point x="553" y="690"/>
			<point x="544" y="700"/>
			<point x="529" y="700" type="curve" smooth="yes"/>
			<point x="98" y="700" type="line" smooth="yes"/>
			<point x="84" y="700"/>
			<point x="75" y="690"/>
			<point x="75" y="677" type="curve" smooth="yes"/>
			<point x="75" y="636" type="line" smooth="yes"/>
			<point x="75" y="623"/>
			<point x="84" y="613"/>
			<point x="98" y="613" type="curve" smooth="yes"/>
			<point x="453" y="613" type="line"/>
			<point x="453" y="258" type="line" smooth="yes"/>
			<point x="453" y="148"/>
			<point x="399" y="75"/>
			<point x="297" y="75" type="curve" smooth="yes"/>
			<point x="216" y="75"/>
			<point x="149" y="111"/>
			<point x="140" y="201" type="curve" smooth="yes"/>
			<point x="137" y="215"/>
			<point x="129" y="224"/>
			<point x="114" y="224" type="curve" smooth="yes"/>
			<point x="60" y="224" type="line" smooth="yes"/>
			<point x="46" y="224"/>
			<point x="38" y="214"/>
			<point x="38" y="202" type="curve" smooth="yes"/>
			<point x="43" y="57"/>
			<point x="159" y="-10"/>
		</contour>
	</outline>
</glyph>
<glyph name="K" format="2">
	<advance width="601.25"/>
	<unicode hex="004B"/>
	<anchor x="314" y="0" name="bottom"/>
	<anchor x="301" y="700" name="top"/>
	<outline>
		<contour>
			<point x="110" y="0" type="curve" smooth="yes"/>
			<point x="160" y="0" type="line" smooth="yes"/>
			<point x="174" y="0"/>
			<point x="184" y="10"/>
			<point x="184" y="23" type="curve" smooth="yes"/>
			<point x="184" y="298" type="line"/>
			<point x="470" y="17" type="line" smooth="yes"/>
			<point x="475" y="12"/>
			<point x="486" y="0"/>
			<point x="509" y="0" type="curve" smooth="yes"/>
			<point x="565" y="0" type="line" smooth="yes"/>
			<point x="576" y="0"/>
			<point x="585" y="9"/>
			<point x="585" y="20" type="curve" smooth="yes"/>
			<point x="585" y="24"/>
			<point x="584" y="29"/>
			<point x="580" y="34" type="curve" smooth="yes"/>
			<point x="251" y="365" type="line"/>
			<point x="560" y="667" type="line" smooth="yes"/>
			<point x="563" y="671"/>
			<point x="564" y="676"/>
			<point x="564" y="680" type="curve" smooth="yes"/>
			<point x="564" y="691"/>
			<point x="555" y="700"/>
			<point x="544" y="700" type="curve" smooth="yes"/>
			<point x="490" y="700" type="line" smooth="yes"/>
			<point x="468" y="700"/>
			<point x="456" y="689"/>
			<point x="451" y="684" type="curve" smooth="yes"/>
			<point x="184" y="428" type="line"/>
			<point x="184" y="676" type="line" smooth="yes"/>
			<point x="184" y="690"/>
			<point x="174" y="700"/>
			<point x="160" y="700" type="curve" smooth="yes"/>
			<point x="110" y="700" type="line" smooth="yes"/>
			<point x="96" y="700"/>
			<point x="87" y="690"/>
			<point x="87" y="676" type="curve" smooth="yes"/>
			<point x="87" y="23" type="line" smooth="yes"/>
			<point x="87" y="10"/>
			<point x="96" y="0"/>
		</contour>
	</outline>
</glyph>
<glyph name="L" format="2">
	<advance width="562.625"/>
	<unicode hex="004C"/>
	<anchor x="308" y="0" name="bottom"/>
	<anchor x="281" y="350" name="center"/>
	<anchor x="133" y="700" name="top"/>
	<anchor x="355" y="682" name="topright"/>
	<outline>
		<contour>
			<point x="110" y="0" type="curve"/>
			<point x="518" y="0" type="line"/>
			<point x="532" y="0"/>
			<point x="542" y="10"/>
			<point x="542" y="23" type="curve"/>
			<point x="542" y="63" type="line"/>
			<point x="542" y="78"/>
			<point x="532" y="87"/>
			<point x="518" y="87" type="curve"/>
			<point x="186" y="87" type="line"/>
			<point x="186" y="677" type="line"/>
			<point x="186" y="690"/>
			<point x="176" y="700"/>
			<point x="163" y="700" type="curve"/>
			<point x="110" y="700" type="line"/>
			<point x="96" y="700"/>
			<point x="87" y="690"/>
			<point x="87" y="677" type="curve"/>
			<point x="87" y="23" type="line"/>
			<point x="87" y="10"/>
			<point x="96" y="0"/>
		</contour>
	</outline>
</glyph>
<glyph name="M" format="2">
	<advance width="794.25"/>
	<unicode hex="004D"/>
	<anchor x="397" y="0" name="bottom"/>
	<anchor x="397" y="700" name="top"/>
	<outline>
		<contour>
			<point x="110" y="0" type="curve" smooth="yes"/>
			<point x="159" y="0" type="line" smooth="yes"/>
			<point x="172" y="0"/>
			<point x="182" y="10"/>
			<point x="182" y="23" type="curve" smooth="yes"/>
			<point x="182" y="515" type="line"/>
			<point x="350" y="189" type="line" smooth="yes"/>
			<point x="356" y="176"/>
			<point x="365" y="168"/>
			<point x="382" y="168" type="curve" smooth="yes"/>
			<point x="413" y="168" type="line" smooth="yes"/>
			<point x="429" y="168"/>
			<point x="439" y="176"/>
			<point x="445" y="189" type="curve" smooth="yes"/>
			<point x="612" y="515" type="line"/>
			<point x="612" y="23" type="line" smooth="yes"/>
			<point x="612" y="10"/>
			<point x="622" y="0"/>
			<point x="635" y="0" type="curve" smooth="yes"/>
			<point x="684" y="0" type="line" smooth="yes"/>
			<point x="698" y="0"/>
			<point x="708" y="10"/>
			<point x="708" y="23" type="curve" smooth="yes"/>
			<point x="708" y="676" type="line" smooth="yes"/>
			<point x="708" y="690"/>
			<point x="698" y="700"/>
			<point x="684" y="700" type="curve" smooth="yes"/>
			<point x="635" y="700" type="line" smooth="yes"/>
			<point x="619" y="700"/>
			<point x="612" y="689"/>
			<point x="610" y="684" type="curve" smooth="yes"/>
			<point x="397" y="280" type="line"/>
			<point x="186" y="684" type="line" smooth="yes"/>
			<point x="183" y="689"/>
			<point x="176" y="700"/>
			<point x="160" y="700" type="curve" smooth="yes"/>
			<point x="110" y="700" type="line" smooth="yes"/>
			<point x="96" y="700"/>
			<point x="87" y="690"/>
			<point x="87" y="676" type="curve" smooth="yes"/>
			<point x="87" y="23" type="line" smooth="yes"/>
			<point x="87" y="10"/>
			<point x="96" y="0"/>
		</contour>
	</outline>
</glyph>
<glyph name="N" format="2">
	<advance width="694.5"/>
	<unicode hex="004E"/>
	<anchor x="350" y="0" name="bottom"/>
	<anchor x="347" y="700" name="top"/>
	<outline>
		<contour>
			<point x="110" y="0" type="curve" smooth="yes"/>
			<point x="158" y="0" type="line" smooth="yes"/>
			<point x="172" y="0"/>
			<point x="182" y="10"/>
			<point x="182" y="23" type="curve" smooth="yes"/>
			<point x="182" y="519" type="line"/>
			<point x="513" y="14" type="line"/>
			<point x="515" y="11"/>
			<point x="522" y="0"/>
			<point x="537" y="0" type="curve" smooth="yes"/>
			<point x="585" y="0" type="line" smooth="yes"/>
			<point x="598" y="0"/>
			<point x="608" y="10"/>
			<point x="608" y="24" type="curve" smooth="yes"/>
			<point x="608" y="676" type="line" smooth="yes"/>
			<point x="608" y="690"/>
			<point x="598" y="700"/>
			<point x="584" y="700" type="curve" smooth="yes"/>
			<point x="536" y="700" type="line" smooth="yes"/>
			<point x="522" y="700"/>
			<point x="513" y="690"/>
			<point x="513" y="676" type="curve" smooth="yes"/>
			<point x="513" y="176" type="line"/>
			<point x="181" y="686" type="line" smooth="yes"/>
			<point x="179" y="690"/>
			<point x="172" y="700"/>
			<point x="156" y="700" type="curve" smooth="yes"/>
			<point x="110" y="700" type="line" smooth="yes"/>
			<point x="96" y="700"/>
			<point x="87" y="690"/>
			<point x="87" y="676" type="curve" smooth="yes"/>
			<point x="87" y="23" type="line" smooth="yes"/>
			<point x="87" y="10"/>
			<point x="96" y="0"/>
		</contour>
	</outline>
</glyph>
<glyph name="O" format="2">
	<advance width="677"/>
	<unicode hex="004F"/>
	<anchor x="339" y="0" name="bottom"/>
	<anchor x="339" y="350" name="center"/>
	<anchor x="610" y="10" name="ogonek"/>
	<anchor x="339" y="700" name="top"/>
	<anchor x="20" y="700" name="topleft"/>
	<anchor x="657" y="700" name="topright"/>
	<outline>
		<contour>
			<point x="339" y="-10" type="curve" smooth="yes"/>
			<point x="510" y="-10"/>
			<point x="610" y="78"/>
			<point x="616" y="265" type="curve" smooth="yes"/>
			<point x="618" y="324"/>
			<point x="618" y="375"/>
			<point x="616" y="434" type="curve" smooth="yes"/>
			<point x="610" y="618"/>
			<point x="502" y="710"/>
			<point x="339" y="710" type="curve" smooth="yes"/>
			<point x="175" y="710"/>
			<point x="67" y="618"/>
			<point x="61" y="434" type="curve" smooth="yes"/>
			<point x="59" y="375"/>
			<point x="59" y="324"/>
			<point x="61" y="265" type="curve" smooth="yes"/>
			<point x="67" y="78"/>
			<point x="167" y="-10"/>
		</contour>
		<contour>
			<point x="339" y="75" type="curve" smooth="yes"/>
			<point x="238" y="75"/>
			<point x="166" y="133"/>
			<point x="161" y="270" type="curve" smooth="yes"/>
			<point x="159" y="330"/>
			<point x="159" y="371"/>
			<point x="161" y="430" type="curve" smooth="yes"/>
			<point x="166" y="567"/>
			<point x="239" y="625"/>
			<point x="339" y="625" type="curve" smooth="yes"/>
			<point x="438" y="625"/>
			<point x="511" y="567"/>
			<point x="516" y="430" type="curve" smooth="yes"/>
			<point x="518" y="371"/>
			<point x="518" y="330"/>
			<point x="516" y="270" type="curve" smooth="yes"/>
			<point x="511" y="133"/>
			<point x="439" y="75"/>
		</contour>
	</outline>
</glyph>
<glyph name="P" format="2">
	<advance width="642.4375"/>
	<unicode hex="0050"/>
	<anchor x="321" y="0" name="bottom"/>
	<anchor x="321" y="700" name="top"/>
	<outline>
		<contour>
			<point x="110" y="0" type="curve" smooth="yes"/>
			<point x="163" y="0" type="line" smooth="yes"/>
			<point x="177" y="0"/>
			<point x="187" y="10"/>
			<point x="187" y="23" type="curve" smooth="yes"/>
			<point x="187" y="273" type="line"/>
			<point x="364" y="273" type="line" smooth="yes"/>
			<point x="512" y="273"/>
			<point x="607" y="344"/>
			<point x="607" y="486" type="curve" smooth="yes"/>
			<point x="607" y="628"/>
			<point x="512" y="700"/>
			<point x="364" y="700" type="curve" smooth="yes"/>
			<point x="110" y="700" type="line" smooth="yes"/>
			<point x="96" y="700"/>
			<point x="87" y="690"/>
			<point x="87" y="676" type="curve" smooth="yes"/>
			<point x="87" y="23" type="line" smooth="yes"/>
			<point x="87" y="10"/>
			<point x="96" y="0"/>
		</contour>
		<contour>
			<point x="186" y="357" type="line"/>
			<point x="186" y="616" type="line"/>
			<point x="359" y="616" type="line" smooth="yes"/>
			<point x="460" y="616"/>
			<point x="507" y="568"/>
			<point x="507" y="486" type="curve" smooth="yes"/>
			<point x="507" y="402"/>
			<point x="457" y="357"/>
			<point x="359" y="357" type="curve" smooth="yes"/>
		</contour>
	</outline>
</glyph>
<glyph name="Q" format="2">
	<advance width="677"/>
	<unicode hex="0051"/>
	<anchor x="339" y="0" name="bottom"/>
	<anchor x="339" y="700" name="top"/>
	<outline>
		<contour>
			<point x="538" y="-65" type="curve"/>
			<point x="592" y="-65" type="line"/>
			<point x="604" y="-65"/>
			<point x="613" y="-56"/>
			<point x="612" y="-45" type="curve" smooth="yes"/>
			<point x="612" y="-39"/>
			<point x="610" y="-36"/>
			<point x="609" y="-34" type="curve"/>
			<point x="543" y="60" type="line"/>
			<point x="588" y="105"/>
			<point x="612" y="173"/>
			<point x="615" y="265" type="curve" smooth="yes"/>
			<point x="617" y="324"/>
			<point x="617" y="375"/>
			<point x="615" y="434" type="curve" smooth="yes"/>
			<point x="610" y="618"/>
			<point x="502" y="710"/>
			<point x="338" y="710" type="curve" smooth="yes"/>
			<point x="175" y="710"/>
			<point x="67" y="618"/>
			<point x="61" y="434" type="curve" smooth="yes"/>
			<point x="59" y="375"/>
			<point x="59" y="324"/>
			<point x="61" y="265" type="curve" smooth="yes"/>
			<point x="67" y="78"/>
			<point x="167" y="-10"/>
			<point x="338" y="-10" type="curve" smooth="yes"/>
			<point x="387" y="-10"/>
			<point x="428" y="-2"/>
			<point x="463" y="14" type="curve"/>
			<point x="504" y="-42" type="line"/>
			<point x="510" y="-50"/>
			<point x="521" y="-65"/>
		</contour>
		<contour>
			<point x="338" y="75" type="curve" smooth="yes"/>
			<point x="237" y="75"/>
			<point x="166" y="133"/>
			<point x="161" y="270" type="curve" smooth="yes"/>
			<point x="159" y="330"/>
			<point x="159" y="371"/>
			<point x="161" y="430" type="curve" smooth="yes"/>
			<point x="166" y="567"/>
			<point x="238" y="625"/>
			<point x="338" y="625" type="curve" smooth="yes"/>
			<point x="438" y="625"/>
			<point x="511" y="567"/>
			<point x="516" y="430" type="curve" smooth="yes"/>
			<point x="518" y="371"/>
			<point x="518" y="330"/>
			<point x="516" y="270" type="curve" smooth="yes"/>
			<point x="511" y="133"/>
			<point x="439" y="75"/>
		</contour>
	</outline>
</glyph>
<glyph name="R" format="2">
	<advance width="655.375"/>
	<unicode hex="0052"/>
	<anchor x="332" y="0" name="bottom"/>
	<anchor x="307" y="700" name="top"/>
	<outline>
		<contour>
			<point x="110" y="0" type="curve" smooth="yes"/>
			<point x="161" y="0" type="line" smooth="yes"/>
			<point x="175" y="0"/>
			<point x="185" y="10"/>
			<point x="185" y="23" type="curve" smooth="yes"/>
			<point x="185" y="281" type="line"/>
			<point x="360" y="281" type="line"/>
			<point x="505" y="27" type="line" smooth="yes"/>
			<point x="512" y="14"/>
			<point x="521" y="0"/>
			<point x="544" y="0" type="curve" smooth="yes"/>
			<point x="592" y="0" type="line" smooth="yes"/>
			<point x="603" y="0"/>
			<point x="613" y="9"/>
			<point x="613" y="20" type="curve" smooth="yes"/>
			<point x="613" y="25"/>
			<point x="612" y="27"/>
			<point x="610" y="31" type="curve" smooth="yes"/>
			<point x="456" y="297" type="line"/>
			<point x="545" y="322"/>
			<point x="599" y="387"/>
			<point x="599" y="490" type="curve" smooth="yes"/>
			<point x="599" y="629"/>
			<point x="504" y="700"/>
			<point x="354" y="700" type="curve" smooth="yes"/>
			<point x="110" y="700" type="line" smooth="yes"/>
			<point x="96" y="700"/>
			<point x="87" y="690"/>
			<point x="87" y="676" type="curve" smooth="yes"/>
			<point x="87" y="23" type="line" smooth="yes"/>
			<point x="87" y="10"/>
			<point x="96" y="0"/>
		</contour>
		<contour>
			<point x="185" y="366" type="line"/>
			<point x="185" y="616" type="line"/>
			<point x="350" y="616" type="line" smooth="yes"/>
			<point x="451" y="616"/>
			<point x="499" y="573"/>
			<point x="499" y="491" type="curve" smooth="yes"/>
			<point x="499" y="408"/>
			<point x="450" y="366"/>
			<point x="350" y="366" type="curve" smooth="yes"/>
		</contour>
	</outline>
</glyph>
<glyph name="S" format="2">
	<advance width="622.25"/>
	<unicode hex="0053"/>
	<anchor x="313" y="0" name="bottom"/>
	<anchor x="312" y="700" name="top"/>
	<outline>
		<contour>
			<point x="312" y="-10" type="curve" smooth="yes"/>
			<point x="473" y="-10"/>
			<point x="578" y="64"/>
			<point x="578" y="189" type="curve" smooth="yes"/>
			<point x="578" y="303"/>
			<point x="506" y="346"/>
			<point x="347" y="390" type="curve" smooth="yes"/>
			<point x="214" y="429"/>
			<point x="161" y="453"/>
			<point x="161" y="522" type="curve" smooth="yes"/>
			<point x="161" y="592"/>
			<point x="220" y="625"/>
			<point x="307" y="625" type="curve" smooth="yes"/>
			<point x="392" y="625"/>
			<point x="449" y="583"/>
			<point x="457" y="528" type="curve" smooth="yes"/>
			<point x="461" y="513"/>
			<point x="473" y="509"/>
			<point x="483" y="509" type="curve" smooth="yes"/>
			<point x="536" y="509" type="line" smooth="yes"/>
			<point x="550" y="509"/>
			<point x="557" y="519"/>
			<point x="557" y="529" type="curve" smooth="yes"/>
			<point x="554" y="608"/>
			<point x="473" y="710"/>
			<point x="307" y="710" type="curve" smooth="yes"/>
			<point x="152" y="710"/>
			<point x="62" y="628"/>
			<point x="62" y="521" type="curve" smooth="yes"/>
			<point x="62" y="406"/>
			<point x="132" y="361"/>
			<point x="278" y="319" type="curve" smooth="yes"/>
			<point x="417" y="278"/>
			<point x="479" y="256"/>
			<point x="479" y="187" type="curve" smooth="yes"/>
			<point x="479" y="119"/>
			<point x="426" y="75"/>
			<point x="312" y="75" type="curve" smooth="yes"/>
			<point x="200" y="75"/>
			<point x="151" y="129"/>
			<point x="141" y="177" type="curve" smooth="yes"/>
			<point x="137" y="188"/>
			<point x="130" y="197"/>
			<point x="115" y="197" type="curve" smooth="yes"/>
			<point x="64" y="197" type="line" smooth="yes"/>
			<point x="52" y="197"/>
			<point x="42" y="187"/>
			<point x="42" y="176" type="curve" smooth="yes"/>
			<point x="45" y="81"/>
			<point x="139" y="-10"/>
		</contour>
	</outline>
</glyph>
<glyph name="T" format="2">
	<advance width="578.9375"/>
	<unicode hex="0054"/>
	<anchor x="290" y="0" name="bottom"/>
	<anchor x="290" y="350" name="center"/>
	<anchor x="290" y="700" name="top"/>
	<outline>
		<contour>
			<point x="263" y="0" type="curve" smooth="yes"/>
			<point x="315" y="0" type="line" smooth="yes"/>
			<point x="329" y="0"/>
			<point x="339" y="10"/>
			<point x="339" y="23" type="curve" smooth="yes"/>
			<point x="339" y="611" type="line"/>
			<point x="530" y="611" type="line" smooth="yes"/>
			<point x="544" y="611"/>
			<point x="554" y="621"/>
			<point x="554" y="634" type="curve" smooth="yes"/>
			<point x="554" y="676" type="line" smooth="yes"/>
			<point x="554" y="690"/>
			<point x="544" y="700"/>
			<point x="530" y="700" type="curve" smooth="yes"/>
			<point x="48" y="700" type="line" smooth="yes"/>
			<point x="35" y="700"/>
			<point x="25" y="690"/>
			<point x="25" y="676" type="curve" smooth="yes"/>
			<point x="25" y="634" type="line" smooth="yes"/>
			<point x="25" y="621"/>
			<point x="35" y="611"/>
			<point x="48" y="611" type="curve" smooth="yes"/>
			<point x="240" y="611" type="line"/>
			<point x="240" y="23" type="line" smooth="yes"/>
			<point x="240" y="10"/>
			<point x="250" y="0"/>
		</contour>
	</outline>
</glyph>
<glyph name="U" format="2">
	<advance width="701.3125"/>
	<unicode hex="0055"/>
	<anchor x="351" y="0" name="bottom"/>
	<anchor x="421" y="62" name="ogonek"/>
	<anchor x="351" y="700" name="top"/>
	<anchor x="681" y="700" name="topright"/>
	<outline>
		<contour>
			<point x="351" y="-10" type="curve" smooth="yes"/>
			<point x="519" y="-10"/>
			<point x="621" y="77"/>
			<point x="621" y="270" type="curve" smooth="yes"/>
			<point x="621" y="676" type="line"/>
			<point x="621" y="690"/>
			<point x="611" y="700"/>
			<point x="598" y="700" type="curve"/>
			<point x="546" y="700" type="line"/>
			<point x="532" y="700"/>
			<point x="523" y="690"/>
			<point x="523" y="676" type="curve"/>
			<point x="523" y="268" type="line" smooth="yes"/>
			<point x="523" y="137"/>
			<point x="457" y="76"/>
			<point x="351" y="76" type="curve" smooth="yes"/>
			<point x="244" y="76"/>
			<point x="179" y="137"/>
			<point x="179" y="268" type="curve" smooth="yes"/>
			<point x="179" y="676" type="line"/>
			<point x="179" y="690"/>
			<point x="169" y="700"/>
			<point x="155" y="700" type="curve"/>
			<point x="104" y="700" type="line"/>
			<point x="90" y="700"/>
			<point x="81" y="690"/>
			<point x="81" y="676" type="curve"/>
			<point x="81" y="270" type="line" smooth="yes"/>
			<point x="81" y="77"/>
			<point x="184" y="-10"/>
		</contour>
	</outline>
</glyph>
<glyph name="V" format="2">
	<advance width="654.5"/>
	<unicode hex="0056"/>
	<anchor x="327" y="0" name="bottom"/>
	<anchor x="327" y="700" name="top"/>
	<outline>
		<contour>
			<point x="295" y="0" type="curve" smooth="yes"/>
			<point x="360" y="0" type="line" smooth="yes"/>
			<point x="380" y="0"/>
			<point x="390" y="10"/>
			<point x="396" y="26" type="curve" smooth="yes"/>
			<point x="620" y="669" type="line" smooth="yes"/>
			<point x="621" y="673"/>
			<point x="622" y="678"/>
			<point x="622" y="680" type="curve" smooth="yes"/>
			<point x="622" y="691"/>
			<point x="612" y="700"/>
			<point x="601" y="700" type="curve" smooth="yes"/>
			<point x="549" y="700" type="line" smooth="yes"/>
			<point x="534" y="700"/>
			<point x="525" y="689"/>
			<point x="523" y="682" type="curve" smooth="yes"/>
			<point x="327" y="115" type="line"/>
			<point x="132" y="682" type="line" smooth="yes"/>
			<point x="129" y="689"/>
			<point x="121" y="700"/>
			<point x="105" y="700" type="curve" smooth="yes"/>
			<point x="53" y="700" type="line" smooth="yes"/>
			<point x="42" y="700"/>
			<point x="33" y="691"/>
			<point x="33" y="680" type="curve" smooth="yes"/>
			<point x="33" y="678"/>
			<point x="34" y="673"/>
			<point x="35" y="669" type="curve" smooth="yes"/>
			<point x="258" y="26" type="line" smooth="yes"/>
			<point x="264" y="10"/>
			<point x="275" y="0"/>
		</contour>
	</outline>
</glyph>
<glyph name="W" format="2">
	<advance width="800.75"/>
	<unicode hex="0057"/>
	<anchor x="400" y="0" name="bottom"/>
	<anchor x="400" y="700" name="top"/>
	<outline>
		<contour>
			<point x="205" y="0" type="curve"/>
			<point x="244" y="0" type="line"/>
			<point x="262" y="0"/>
			<point x="272" y="10"/>
			<point x="277" y="25" type="curve"/>
			<point x="400" y="406" type="line"/>
			<point x="524" y="25" type="line"/>
			<point x="528" y="10"/>
			<point x="539" y="0"/>
			<point x="557" y="0" type="curve"/>
			<point x="596" y="0" type="line"/>
			<point x="614" y="0"/>
			<point x="623" y="9"/>
			<point x="627" y="27" type="curve"/>
			<point x="756" y="669" type="line"/>
			<point x="756" y="674"/>
			<point x="757" y="678"/>
			<point x="757" y="680" type="curve" smooth="yes"/>
			<point x="757" y="691"/>
			<point x="748" y="700"/>
			<point x="737" y="700" type="curve"/>
			<point x="685" y="700" type="line"/>
			<point x="670" y="700"/>
			<point x="662" y="694"/>
			<point x="660" y="683" type="curve"/>
			<point x="559" y="167" type="line"/>
			<point x="450" y="521" type="line"/>
			<point x="447" y="532"/>
			<point x="438" y="545"/>
			<point x="419" y="545" type="curve"/>
			<point x="382" y="545" type="line"/>
			<point x="363" y="545"/>
			<point x="354" y="532"/>
			<point x="350" y="521" type="curve"/>
			<point x="242" y="167" type="line"/>
			<point x="140" y="683" type="line"/>
			<point x="138" y="694"/>
			<point x="131" y="700"/>
			<point x="116" y="700" type="curve"/>
			<point x="64" y="700" type="line"/>
			<point x="53" y="700"/>
			<point x="44" y="691"/>
			<point x="44" y="680" type="curve" smooth="yes"/>
			<point x="44" y="678"/>
			<point x="44" y="674"/>
			<point x="45" y="669" type="curve"/>
			<point x="174" y="27" type="line"/>
			<point x="177" y="9"/>
			<point x="187" y="0"/>
		</contour>
	</outline>
</glyph>
<glyph name="X" format="2">
	<advance width="633.375"/>
	<unicode hex="0058"/>
	<anchor x="317" y="0" name="bottom"/>
	<anchor x="317" y="700" name="top"/>
	<outline>
		<contour>
			<point x="45" y="0" type="curve"/>
			<point x="104" y="0" type="line"/>
			<point x="116" y="0"/>
			<point x="124" y="7"/>
			<point x="130" y="17" type="curve"/>
			<point x="315" y="276" type="line"/>
			<point x="501" y="17" type="line"/>
			<point x="508" y="7"/>
			<point x="516" y="0"/>
			<point x="528" y="0" type="curve"/>
			<point x="589" y="0" type="line"/>
			<point x="601" y="0"/>
			<point x="610" y="9"/>
			<point x="610" y="20" type="curve" smooth="yes"/>
			<point x="610" y="25"/>
			<point x="608" y="30"/>
			<point x="606" y="33" type="curve"/>
			<point x="378" y="355" type="line"/>
			<point x="593" y="667" type="line"/>
			<point x="596" y="670"/>
			<point x="597" y="675"/>
			<point x="597" y="680" type="curve" smooth="yes"/>
			<point x="597" y="691"/>
			<point x="588" y="700"/>
			<point x="577" y="700" type="curve"/>
			<point x="520" y="700" type="line"/>
			<point x="508" y="700"/>
			<point x="500" y="693"/>
			<point x="494" y="683" type="curve"/>
			<point x="319" y="433" type="line"/>
			<point x="143" y="683" type="line"/>
			<point x="136" y="693"/>
			<point x="128" y="700"/>
			<point x="116" y="700" type="curve"/>
			<point x="56" y="700" type="line"/>
			<point x="45" y="700"/>
			<point x="36" y="691"/>
			<point x="36" y="680" type="curve" smooth="yes"/>
			<point x="36" y="675"/>
			<point x="37" y="670"/>
			<point x="39" y="667" type="curve"/>
			<point x="257" y="356" type="line"/>
			<point x="28" y="33" type="line"/>
			<point x="26" y="30"/>
			<point x="24" y="25"/>
			<point x="24" y="20" type="curve" smooth="yes"/>
			<point x="24" y="9"/>
			<point x="34" y="0"/>
		</contour>
	</outline>
</glyph>
<glyph name="Y" format="2">
	<advance width="646.625"/>
	<unicode hex="0059"/>
	<anchor x="323" y="0" name="bottom"/>
	<anchor x="323" y="700" name="top"/>
	<anchor x="20" y="700" name="topleft"/>
	<outline>
		<contour>
			<point x="297" y="0" type="curve" smooth="yes"/>
			<point x="349" y="0" type="line" smooth="yes"/>
			<point x="363" y="0"/>
			<point x="373" y="10"/>
			<point x="373" y="23" type="curve" smooth="yes"/>
			<point x="373" y="259" type="line"/>
			<point x="613" y="667" type="line" smooth="yes"/>
			<point x="615" y="671"/>
			<point x="617" y="675"/>
			<point x="617" y="680" type="curve" smooth="yes"/>
			<point x="617" y="691"/>
			<point x="608" y="700"/>
			<point x="596" y="700" type="curve" smooth="yes"/>
			<point x="545" y="700" type="line" smooth="yes"/>
			<point x="533" y="700"/>
			<point x="524" y="692"/>
			<point x="518" y="683" type="curve" smooth="yes"/>
			<point x="323" y="359" type="line"/>
			<point x="128" y="683" type="line" smooth="yes"/>
			<point x="123" y="692"/>
			<point x="114" y="700"/>
			<point x="102" y="700" type="curve" smooth="yes"/>
			<point x="50" y="700" type="line" smooth="yes"/>
			<point x="39" y="700"/>
			<point x="30" y="691"/>
			<point x="30" y="680" type="curve" smooth="yes"/>
			<point x="30" y="675"/>
			<point x="32" y="671"/>
			<point x="33" y="667" type="curve" smooth="yes"/>
			<point x="274" y="259" type="line"/>
			<point x="274" y="23" type="line" smooth="yes"/>
			<point x="274" y="10"/>
			<point x="283" y="0"/>
		</contour>
	</outline>
</glyph>
<glyph name="Z" format="2">
	<advance width="600.375"/>
	<unicode hex="005A"/>
	<anchor x="301" y="0" name="bottom"/>
	<anchor x="301" y="350" name="center"/>
	<anchor x="291" y="700" name="top"/>
	<outline>
		<contour>
			<point x="64" y="0" type="curve" smooth="yes"/>
			<point x="536" y="0" type="line" smooth="yes"/>
			<point x="551" y="0"/>
			<point x="560" y="10"/>
			<point x="560" y="23" type="curve" smooth="yes"/>
			<point x="560" y="63" type="line" smooth="yes"/>
			<point x="560" y="78"/>
			<point x="551" y="87"/>
			<point x="536" y="87" type="curve" smooth="yes"/>
			<point x="168" y="87" type="line"/>
			<point x="537" y="598" type="line" smooth="yes"/>
			<point x="543" y="607"/>
			<point x="550" y="617"/>
			<point x="550" y="633" type="curve" smooth="yes"/>
			<point x="550" y="676" type="line" smooth="yes"/>
			<point x="550" y="690"/>
			<point x="540" y="700"/>
			<point x="526" y="700" type="curve" smooth="yes"/>
			<point x="73" y="700" type="line" smooth="yes"/>
			<point x="59" y="700"/>
			<point x="50" y="690"/>
			<point x="50" y="676" type="curve" smooth="yes"/>
			<point x="50" y="636" type="line" smooth="yes"/>
			<point x="50" y="623"/>
			<point x="59" y="613"/>
			<point x="73" y="613" type="curve" smooth="yes"/>
			<point x="428" y="613" type="line"/>
			<point x="56" y="104" type="line" smooth="yes"/>
			<point x="52" y="99"/>
			<point x="41" y="87"/>
			<point x="41" y="67" type="curve" smooth="yes"/>
			<point x="41" y="24" type="line" smooth="yes"/>
			<point x="41" y="10"/>
			<point x="50" y="0"/>
		</contour>
	</outline>
</glyph>
<glyph name="bracketleft" format="2">
	<advance width="165"/>
	<unicode hex="005B"/>
	<outline>
		<contour>
			<point x="22" y="-159" type="curve" smooth="yes"/>
			<point x="-10" y="-159"/>
			<point x="-33" y="-158"/>
			<point x="-33" y="-135" type="curve" smooth="yes"/>
			<point x="-33" y="-54"/>
			<point x="75" y="583"/>
			<point x="115" y="656" type="curve" smooth="yes"/>
			<point x="121" y="667"/>
			<point x="131" y="667"/>
			<point x="140" y="667" type="curve" smooth="yes"/>
			<point x="145" y="667"/>
			<point x="152" y="666"/>
			<point x="163" y="666" type="curve" smooth="yes"/>
			<point x="210" y="666"/>
			<point x="248" y="691"/>
			<point x="270" y="691" type="curve" smooth="yes"/>
			<point x="290" y="691"/>
			<point x="304" y="663"/>
			<point x="304" y="643" type="curve" smooth="yes"/>
			<point x="304" y="631"/>
			<point x="296" y="625"/>
			<point x="288" y="623" type="curve" smooth="yes"/>
			<point x="263" y="617"/>
			<point x="226" y="608"/>
			<point x="191" y="608" type="curve" smooth="yes"/>
			<point x="173" y="608"/>
			<point x="156" y="611"/>
			<point x="141" y="617" type="curve"/>
			<point x="127" y="493"/>
			<point x="82" y="132"/>
			<point x="60" y="-103" type="curve"/>
			<point x="73" y="-104"/>
			<point x="79" y="-104"/>
			<point x="87" y="-104" type="curve" smooth="yes"/>
			<point x="136" y="-104"/>
			<point x="170" y="-79"/>
			<point x="194" y="-79" type="curve" smooth="yes"/>
			<point x="214" y="-79"/>
			<point x="229" y="-108"/>
			<point x="229" y="-131" type="curve" smooth="yes"/>
			<point x="229" y="-146"/>
			<point x="191" y="-162"/>
			<point x="116" y="-162" type="curve" smooth="yes"/>
			<point x="88" y="-162"/>
			<point x="73" y="-158"/>
			<point x="55" y="-146" type="curve"/>
			<point x="49" y="-157"/>
			<point x="35" y="-159"/>
		</contour>
	</outline>
</glyph>
<glyph name="backslash" format="2">
	<advance width="307"/>
	<unicode hex="005C"/>
	<outline>
		<contour>
			<point x="289" y="-96" type="curve" smooth="yes"/>
			<point x="273" y="-96"/>
			<point x="259" y="-92"/>
			<point x="254" y="-75" type="curve" smooth="yes"/>
			<point x="177" y="185"/>
			<point x="12" y="614"/>
			<point x="-20" y="680" type="curve" smooth="yes"/>
			<point x="-21" y="682"/>
			<point x="-22" y="685"/>
			<point x="-22" y="687" type="curve" smooth="yes"/>
			<point x="-22" y="694"/>
			<point x="-15" y="699"/>
			<point x="-7" y="699" type="curve" smooth="yes"/>
			<point x="-4" y="699"/>
			<point x="-2" y="699"/>
			<point x="1" y="698" type="curve" smooth="yes"/>
			<point x="46" y="681"/>
			<point x="344" y="12"/>
			<point x="344" y="-72" type="curve" smooth="yes"/>
			<point x="344" y="-91"/>
			<point x="329" y="-96"/>
		</contour>
	</outline>
</glyph>
<glyph name="bracketright" format="2">
	<advance width="165"/>
	<unicode hex="005D"/>
	<outline>
		<contour>
			<point x="-33" y="-162" type="curve" smooth="yes"/>
			<point x="-68" y="-162"/>
			<point x="-146" y="-153"/>
			<point x="-146" y="-128" type="curve" smooth="yes"/>
			<point x="-146" y="-108"/>
			<point x="-130" y="-79"/>
			<point x="-110" y="-79" type="curve" smooth="yes"/>
			<point x="-85" y="-79"/>
			<point x="-47" y="-106"/>
			<point x="-5" y="-106" type="curve" smooth="yes"/>
			<point x="7" y="-106"/>
			<point x="19" y="-105"/>
			<point x="27" y="-104" type="curve"/>
			<point x="41" y="33"/>
			<point x="116" y="471"/>
			<point x="159" y="615" type="curve"/>
			<point x="148" y="613"/>
			<point x="137" y="612"/>
			<point x="126" y="612" type="curve" smooth="yes"/>
			<point x="73" y="612"/>
			<point x="13" y="625"/>
			<point x="13" y="643" type="curve" smooth="yes"/>
			<point x="13" y="665"/>
			<point x="27" y="694"/>
			<point x="47" y="694" type="curve" smooth="yes"/>
			<point x="67" y="694"/>
			<point x="112" y="669"/>
			<point x="155" y="669" type="curve" smooth="yes"/>
			<point x="165" y="669"/>
			<point x="173" y="670"/>
			<point x="181" y="670" type="curve" smooth="yes"/>
			<point x="197" y="670"/>
			<point x="204" y="662"/>
			<point x="204" y="652" type="curve" smooth="yes"/>
			<point x="204" y="637"/>
			<point x="137" y="117"/>
			<point x="115" y="-139" type="curve" smooth="yes"/>
			<point x="113" y="-157"/>
			<point x="96" y="-160"/>
			<point x="80" y="-160" type="curve" smooth="yes"/>
			<point x="67" y="-160"/>
			<point x="34" y="-160"/>
			<point x="27" y="-147" type="curve"/>
			<point x="11" y="-158"/>
			<point x="-10" y="-162"/>
		</contour>
	</outline>
</glyph>
<glyph name="asciicircum" format="2">
  <advance width="297"/>
  <unicode hex="005E"/>
  <outline>
    <contour>
      <point x="277.690429688" y="399.237304688" type="curve" smooth="yes"/>
      <point x="282.909179688" y="395.787109375"/>
      <point x="288.750976562" y="388.666015625"/>
      <point x="288.750976562" y="376.516601562" type="curve" smooth="yes"/>
      <point x="288.750976562" y="369.513671875"/>
      <point x="286.809570312" y="360.840820312"/>
      <point x="281.690429688" y="350.237304688" type="curve" smooth="yes"/>
      <point x="275.088867188" y="336.561523438"/>
      <point x="266.458007812" y="331.709960938"/>
      <point x="258.755859375" y="331.709960938" type="curve" smooth="yes"/>
      <point x="254.655273438" y="331.709960938"/>
      <point x="250.818359375" y="333.084960938"/>
      <point x="247.690429688" y="335.237304688" type="curve" smooth="yes"/>
      <point x="211.990234375" y="359.803710938"/>
      <point x="157.0" y="410.056640625"/>
      <point x="134.0" y="442.0" type="curve"/>
      <point x="105.545898438" y="401.54296875"/>
      <point x="54.755859375" y="337.936523438"/>
      <point x="31.9453125" y="332.8671875" type="curve" smooth="yes"/>
      <point x="28.658203125" y="332.13671875"/>
      <point x="25.5361328125" y="331.798828125"/>
      <point x="22.623046875" y="331.798828125" type="curve" smooth="yes"/>
      <point x="9.1611328125" y="331.798828125"/>
      <point x="0.1826171875" y="339.02734375"/>
      <point x="0.1826171875" y="348.177734375" type="curve" smooth="yes"/>
      <point x="0.1826171875" y="349.6953125"/>
      <point x="0.4296875" y="351.267578125"/>
      <point x="0.9453125" y="352.8671875" type="curve" smooth="yes"/>
      <point x="5.7763671875" y="367.8671875"/>
      <point x="35.6787109375" y="383.06640625"/>
      <point x="94.0" y="477.0" type="curve" smooth="yes"/>
      <point x="100.713326419" y="487.812456854"/>
      <point x="114.03518147" y="491.759267265"/>
      <point x="127.345901316" y="491.759267265" type="curve" smooth="yes"/>
      <point x="137.425210256" y="491.759267265"/>
      <point x="147.498134257" y="489.496162322"/>
      <point x="154.690429688" y="486.237304688" type="curve" smooth="yes"/>
      <point x="169.044921875" y="479.733398438"/>
      <point x="201.69140625" y="449.479492188"/>
    </contour>
  </outline>
</glyph>
<glyph name="underscore" format="2">
	<advance width="496"/>
	<unicode hex="005F"/>
	<outline>
		<contour>
			<point x="90" y="-87" type="curve" smooth="yes"/>
			<point x="15" y="-87"/>
			<point x="-50" y="-83"/>
			<point x="-62" y="-71" type="curve" smooth="yes"/>
			<point x="-71" y="-63"/>
			<point x="-75" y="-54"/>
			<point x="-75" y="-46" type="curve" smooth="yes"/>
			<point x="-75" y="-31"/>
			<point x="-66" y="-29"/>
			<point x="-37" y="-29" type="curve" smooth="yes"/>
			<point x="-11" y="-29"/>
			<point x="32" y="-30"/>
			<point x="81" y="-30" type="curve" smooth="yes"/>
			<point x="289" y="-30"/>
			<point x="290" y="-3"/>
			<point x="319" y="-3" type="curve" smooth="yes"/>
			<point x="338" y="-3"/>
			<point x="357" y="-29"/>
			<point x="357" y="-48" type="curve" smooth="yes"/>
			<point x="357" y="-67"/>
			<point x="335" y="-87"/>
		</contour>
	</outline>
</glyph>
<glyph name="grave" format="2">
	<advance width="207"/>
	<unicode hex="0060"/>
	<outline>
		<contour>
			<point x="122" y="526" type="curve" smooth="yes"/>
			<point x="109" y="526"/>
			<point x="101" y="533"/>
			<point x="97" y="539" type="curve" smooth="yes"/>
			<point x="41" y="621"/>
			<point x="-1" y="668"/>
			<point x="-1" y="680" type="curve" smooth="yes"/>
			<point x="-1" y="692"/>
			<point x="9" y="699"/>
			<point x="28" y="699" type="curve" smooth="yes"/>
			<point x="62" y="699"/>
			<point x="172" y="587"/>
			<point x="172" y="560" type="curve" smooth="yes"/>
			<point x="172" y="539"/>
			<point x="139" y="526"/>
		</contour>
	</outline>
</glyph>
<glyph name="a" format="2">
	<advance width="552.125"/>
	<unicode hex="0061"/>
	<anchor x="276" y="0" name="bottom"/>
	<anchor x="481" y="70" name="ogonek"/>
	<anchor x="273" y="520" name="top"/>
	<outline>
		<contour>
			<point x="219" y="-10" type="curve" smooth="yes"/>
			<point x="314" y="-10"/>
			<point x="365" y="30"/>
			<point x="390" y="66" type="curve"/>
			<point x="390" y="23" type="line" smooth="yes"/>
			<point x="390" y="10"/>
			<point x="399" y="0"/>
			<point x="413" y="0" type="curve" smooth="yes"/>
			<point x="459" y="0" type="line" smooth="yes"/>
			<point x="473" y="0"/>
			<point x="482" y="10"/>
			<point x="482" y="23" type="curve" smooth="yes"/>
			<point x="482" y="347" type="line" smooth="yes"/>
			<point x="482" y="438"/>
			<point x="434" y="530"/>
			<point x="272" y="530" type="curve" smooth="yes"/>
			<point x="129" y="530"/>
			<point x="73" y="440"/>
			<point x="72" y="400" type="curve" smooth="yes"/>
			<point x="72" y="388"/>
			<point x="79" y="378"/>
			<point x="94" y="378" type="curve"/>
			<point x="139" y="378" type="line"/>
			<point x="149" y="378"/>
			<point x="156" y="384"/>
			<point x="160" y="393" type="curve" smooth="yes"/>
			<point x="175" y="431"/>
			<point x="211" y="457"/>
			<point x="271" y="457" type="curve" smooth="yes"/>
			<point x="353" y="457"/>
			<point x="388" y="419"/>
			<point x="388" y="355" type="curve" smooth="yes"/>
			<point x="388" y="326" type="line"/>
			<point x="239" y="305" type="line" smooth="yes"/>
			<point x="119" y="288"/>
			<point x="37" y="232"/>
			<point x="37" y="141" type="curve" smooth="yes"/>
			<point x="37" y="56"/>
			<point x="120" y="-10"/>
		</contour>
		<contour>
			<point x="240" y="65" type="curve" smooth="yes"/>
			<point x="185" y="65"/>
			<point x="129" y="92"/>
			<point x="129" y="148" type="curve" smooth="yes"/>
			<point x="129" y="195"/>
			<point x="177" y="228"/>
			<point x="272" y="241" type="curve" smooth="yes"/>
			<point x="388" y="258" type="line"/>
			<point x="388" y="230" type="line" smooth="yes"/>
			<point x="388" y="118"/>
			<point x="322" y="65"/>
		</contour>
	</outline>
</glyph>
<glyph name="b" format="2">
	<advance width="595.1875"/>
	<unicode hex="0062"/>
	<anchor x="298" y="0" name="bottom"/>
	<anchor x="298" y="750" name="top"/>
	<outline>
		<contour>
			<point x="331" y="-10" type="curve" smooth="yes"/>
			<point x="479" y="-10"/>
			<point x="540" y="104"/>
			<point x="545" y="230" type="curve" smooth="yes"/>
			<point x="546" y="252"/>
			<point x="546" y="268"/>
			<point x="545" y="290" type="curve" smooth="yes"/>
			<point x="540" y="415"/>
			<point x="479" y="530"/>
			<point x="331" y="530" type="curve" smooth="yes"/>
			<point x="253" y="530"/>
			<point x="202" y="498"/>
			<point x="169" y="457" type="curve"/>
			<point x="169" y="687" type="line" smooth="yes"/>
			<point x="169" y="700"/>
			<point x="160" y="710"/>
			<point x="147" y="710" type="curve" smooth="yes"/>
			<point x="98" y="710" type="line" smooth="yes"/>
			<point x="85" y="710"/>
			<point x="75" y="700"/>
			<point x="75" y="687" type="curve" smooth="yes"/>
			<point x="75" y="23" type="line" smooth="yes"/>
			<point x="75" y="10"/>
			<point x="85" y="0"/>
			<point x="98" y="0" type="curve" smooth="yes"/>
			<point x="144" y="0" type="line" smooth="yes"/>
			<point x="157" y="0"/>
			<point x="167" y="10"/>
			<point x="167" y="23" type="curve" smooth="yes"/>
			<point x="167" y="65" type="line"/>
			<point x="199" y="22"/>
			<point x="251" y="-10"/>
		</contour>
		<contour>
			<point x="310" y="71" type="curve" smooth="yes"/>
			<point x="211" y="71"/>
			<point x="172" y="151"/>
			<point x="169" y="225" type="curve" smooth="yes"/>
			<point x="168" y="246"/>
			<point x="168" y="280"/>
			<point x="169" y="302" type="curve" smooth="yes"/>
			<point x="171" y="373"/>
			<point x="214" y="449"/>
			<point x="310" y="449" type="curve" smooth="yes"/>
			<point x="412" y="449"/>
			<point x="445" y="374"/>
			<point x="449" y="289" type="curve" smooth="yes"/>
			<point x="450" y="269"/>
			<point x="450" y="251"/>
			<point x="449" y="231" type="curve" smooth="yes"/>
			<point x="445" y="146"/>
			<point x="412" y="71"/>
		</contour>
	</outline>
</glyph>
<glyph name="c" format="2">
	<advance width="552.125"/>
	<unicode hex="0063"/>
	<anchor x="276" y="0" name="bottom"/>
	<anchor x="279" y="520" name="top"/>
	<outline>
		<contour>
			<point x="284" y="-10" type="curve" smooth="yes"/>
			<point x="440" y="-10"/>
			<point x="504" y="89"/>
			<point x="507" y="156" type="curve" smooth="yes"/>
			<point x="508" y="169"/>
			<point x="497" y="179"/>
			<point x="484" y="179" type="curve" smooth="yes"/>
			<point x="436" y="179" type="line" smooth="yes"/>
			<point x="422" y="179"/>
			<point x="417" y="173"/>
			<point x="411" y="158" type="curve" smooth="yes"/>
			<point x="387" y="92"/>
			<point x="346" y="69"/>
			<point x="285" y="69" type="curve" smooth="yes"/>
			<point x="205" y="69"/>
			<point x="151" y="115"/>
			<point x="147" y="225" type="curve" smooth="yes"/>
			<point x="146" y="245"/>
			<point x="146" y="273"/>
			<point x="147" y="295" type="curve" smooth="yes"/>
			<point x="151" y="404"/>
			<point x="205" y="451"/>
			<point x="285" y="451" type="curve" smooth="yes"/>
			<point x="346" y="451"/>
			<point x="387" y="428"/>
			<point x="411" y="362" type="curve" smooth="yes"/>
			<point x="417" y="347"/>
			<point x="422" y="342"/>
			<point x="436" y="342" type="curve" smooth="yes"/>
			<point x="484" y="342" type="line" smooth="yes"/>
			<point x="497" y="342"/>
			<point x="508" y="351"/>
			<point x="507" y="364" type="curve" smooth="yes"/>
			<point x="504" y="433"/>
			<point x="438" y="530"/>
			<point x="284" y="530" type="curve" smooth="yes"/>
			<point x="141" y="530"/>
			<point x="57" y="444"/>
			<point x="52" y="300" type="curve" smooth="yes"/>
			<point x="51" y="279"/>
			<point x="51" y="240"/>
			<point x="52" y="220" type="curve" smooth="yes"/>
			<point x="57" y="76"/>
			<point x="141" y="-10"/>
		</contour>
	</outline>
</glyph>
<glyph name="d" format="2">
	<advance width="595.1875"/>
	<unicode hex="0064"/>
	<anchor x="298" y="0" name="bottom"/>
	<anchor x="443" y="614" name="center"/>
	<anchor x="298" y="750" name="top"/>
	<anchor x="606" y="710" name="topright"/>
	<outline>
		<contour>
			<point x="264" y="-10" type="curve" smooth="yes"/>
			<point x="345" y="-10"/>
			<point x="396" y="22"/>
			<point x="429" y="65" type="curve"/>
			<point x="429" y="23" type="line" smooth="yes"/>
			<point x="429" y="10"/>
			<point x="438" y="0"/>
			<point x="452" y="0" type="curve" smooth="yes"/>
			<point x="497" y="0" type="line" smooth="yes"/>
			<point x="511" y="0"/>
			<point x="520" y="10"/>
			<point x="520" y="23" type="curve" smooth="yes"/>
			<point x="520" y="687" type="line" smooth="yes"/>
			<point x="520" y="700"/>
			<point x="511" y="710"/>
			<point x="497" y="710" type="curve" smooth="yes"/>
			<point x="449" y="710" type="line" smooth="yes"/>
			<point x="435" y="710"/>
			<point x="426" y="700"/>
			<point x="426" y="687" type="curve" smooth="yes"/>
			<point x="426" y="457" type="line"/>
			<point x="393" y="498"/>
			<point x="342" y="530"/>
			<point x="264" y="530" type="curve" smooth="yes"/>
			<point x="116" y="530"/>
			<point x="55" y="415"/>
			<point x="51" y="290" type="curve" smooth="yes"/>
			<point x="50" y="268"/>
			<point x="50" y="252"/>
			<point x="51" y="230" type="curve" smooth="yes"/>
			<point x="55" y="104"/>
			<point x="116" y="-10"/>
		</contour>
		<contour>
			<point x="285" y="71" type="curve" smooth="yes"/>
			<point x="183" y="71"/>
			<point x="150" y="146"/>
			<point x="146" y="231" type="curve" smooth="yes"/>
			<point x="145" y="251"/>
			<point x="145" y="269"/>
			<point x="146" y="289" type="curve" smooth="yes"/>
			<point x="150" y="374"/>
			<point x="183" y="449"/>
			<point x="285" y="449" type="curve" smooth="yes"/>
			<point x="381" y="449"/>
			<point x="424" y="373"/>
			<point x="426" y="302" type="curve" smooth="yes"/>
			<point x="427" y="280"/>
			<point x="427" y="246"/>
			<point x="426" y="225" type="curve" smooth="yes"/>
			<point x="423" y="151"/>
			<point x="384" y="71"/>
		</contour>
	</outline>
</glyph>
<glyph name="e" format="2">
	<advance width="560.4375"/>
	<unicode hex="0065"/>
	<anchor x="280" y="0" name="bottom"/>
	<anchor x="415" y="51" name="ogonek"/>
	<anchor x="281" y="520" name="top"/>
	<outline>
		<contour>
			<point x="282" y="-10" type="curve" smooth="yes"/>
			<point x="419" y="-10"/>
			<point x="498" y="77"/>
			<point x="500" y="117" type="curve" smooth="yes"/>
			<point x="501" y="130"/>
			<point x="491" y="138"/>
			<point x="479" y="138" type="curve" smooth="yes"/>
			<point x="430" y="138" type="line" smooth="yes"/>
			<point x="415" y="138"/>
			<point x="412" y="137"/>
			<point x="400" y="121" type="curve" smooth="yes"/>
			<point x="389" y="105"/>
			<point x="352" y="64"/>
			<point x="281" y="64" type="curve" smooth="yes"/>
			<point x="197" y="64"/>
			<point x="149" y="138"/>
			<point x="145" y="220" type="curve" smooth="yes"/>
			<point x="145" y="222"/>
			<point x="145" y="228"/>
			<point x="145" y="229" type="curve"/>
			<point x="491" y="229" type="line" smooth="yes"/>
			<point x="504" y="229"/>
			<point x="514" y="238"/>
			<point x="514" y="252" type="curve" smooth="yes"/>
			<point x="514" y="269" type="line" smooth="yes"/>
			<point x="514" y="427"/>
			<point x="431" y="530"/>
			<point x="281" y="530" type="curve" smooth="yes"/>
			<point x="144" y="530"/>
			<point x="59" y="436"/>
			<point x="50" y="294" type="curve" smooth="yes"/>
			<point x="49" y="277"/>
			<point x="49" y="244"/>
			<point x="50" y="227" type="curve" smooth="yes"/>
			<point x="58" y="81"/>
			<point x="144" y="-10"/>
		</contour>
		<contour>
			<point x="145" y="298" type="line"/>
			<point x="145" y="301" type="line" smooth="yes"/>
			<point x="145" y="391"/>
			<point x="195" y="457"/>
			<point x="281" y="457" type="curve" smooth="yes"/>
			<point x="367" y="457"/>
			<point x="419" y="391"/>
			<point x="419" y="301" type="curve" smooth="yes"/>
			<point x="419" y="298" type="line"/>
		</contour>
	</outline>
</glyph>
<glyph name="f" format="2">
	<advance width="384.75"/>
	<unicode hex="0066"/>
	<anchor x="192" y="0" name="bottom"/>
	<anchor x="192" y="718" name="top"/>
	<outline>
		<contour>
			<point x="149" y="0" type="curve" smooth="yes"/>
			<point x="196" y="0" type="line" smooth="yes"/>
			<point x="209" y="0"/>
			<point x="219" y="10"/>
			<point x="219" y="23" type="curve" smooth="yes"/>
			<point x="219" y="440" type="line"/>
			<point x="348" y="440" type="line" smooth="yes"/>
			<point x="361" y="440"/>
			<point x="371" y="450"/>
			<point x="371" y="463" type="curve" smooth="yes"/>
			<point x="371" y="497" type="line" smooth="yes"/>
			<point x="371" y="510"/>
			<point x="361" y="520"/>
			<point x="348" y="520" type="curve" smooth="yes"/>
			<point x="219" y="520" type="line"/>
			<point x="219" y="565" type="line" smooth="yes"/>
			<point x="219" y="626"/>
			<point x="237" y="660"/>
			<point x="300" y="660" type="curve" smooth="yes"/>
			<point x="358" y="660" type="line" smooth="yes"/>
			<point x="371" y="660"/>
			<point x="381" y="670"/>
			<point x="381" y="683" type="curve" smooth="yes"/>
			<point x="381" y="717" type="line" smooth="yes"/>
			<point x="381" y="730"/>
			<point x="371" y="740"/>
			<point x="358" y="740" type="curve" smooth="yes"/>
			<point x="298" y="740" type="line" smooth="yes"/>
			<point x="172" y="740"/>
			<point x="126" y="673"/>
			<point x="126" y="570" type="curve" smooth="yes"/>
			<point x="126" y="520" type="line"/>
			<point x="41" y="520" type="line" smooth="yes"/>
			<point x="28" y="520"/>
			<point x="18" y="510"/>
			<point x="18" y="497" type="curve" smooth="yes"/>
			<point x="18" y="463" type="line" smooth="yes"/>
			<point x="18" y="450"/>
			<point x="28" y="440"/>
			<point x="41" y="440" type="curve" smooth="yes"/>
			<point x="126" y="440" type="line"/>
			<point x="126" y="23" type="line" smooth="yes"/>
			<point x="126" y="10"/>
			<point x="136" y="0"/>
		</contour>
	</outline>
</glyph>
<glyph name="g" format="2">
	<advance width="596.9375"/>
	<unicode hex="0067"/>
	<anchor x="299" y="-225" name="bottom"/>
	<anchor x="287" y="520" name="top"/>
	<outline>
		<contour>
			<point x="287" y="-220" type="curve" smooth="yes"/>
			<point x="461" y="-220"/>
			<point x="522" y="-124"/>
			<point x="522" y="11" type="curve" smooth="yes"/>
			<point x="522" y="496" type="line" smooth="yes"/>
			<point x="522" y="510"/>
			<point x="511" y="520"/>
			<point x="498" y="520" type="curve" smooth="yes"/>
			<point x="452" y="520" type="line" smooth="yes"/>
			<point x="439" y="520"/>
			<point x="429" y="510"/>
			<point x="429" y="496" type="curve" smooth="yes"/>
			<point x="429" y="453" type="line"/>
			<point x="396" y="496"/>
			<point x="344" y="530"/>
			<point x="265" y="530" type="curve" smooth="yes"/>
			<point x="115" y="530"/>
			<point x="55" y="415"/>
			<point x="51" y="290" type="curve" smooth="yes"/>
			<point x="50" y="270"/>
			<point x="50" y="255"/>
			<point x="51" y="235" type="curve" smooth="yes"/>
			<point x="55" y="109"/>
			<point x="115" y="-4"/>
			<point x="265" y="-4" type="curve" smooth="yes"/>
			<point x="342" y="-4"/>
			<point x="394" y="27"/>
			<point x="426" y="68" type="curve"/>
			<point x="426" y="0" type="line" smooth="yes"/>
			<point x="426" y="-111"/>
			<point x="376" y="-143"/>
			<point x="282" y="-143" type="curve" smooth="yes"/>
			<point x="193" y="-143"/>
			<point x="168" y="-93"/>
			<point x="157" y="-64" type="curve" smooth="yes"/>
			<point x="151" y="-47"/>
			<point x="143" y="-43"/>
			<point x="132" y="-43" type="curve" smooth="yes"/>
			<point x="84" y="-43" type="line" smooth="yes"/>
			<point x="72" y="-43"/>
			<point x="60" y="-54"/>
			<point x="61" y="-67" type="curve" smooth="yes"/>
			<point x="64" y="-108"/>
			<point x="106" y="-220"/>
		</contour>
		<contour>
			<point x="285" y="76" type="curve" smooth="yes"/>
			<point x="183" y="76"/>
			<point x="150" y="152"/>
			<point x="147" y="236" type="curve" smooth="yes"/>
			<point x="146" y="254"/>
			<point x="146" y="271"/>
			<point x="147" y="289" type="curve" smooth="yes"/>
			<point x="150" y="374"/>
			<point x="183" y="449"/>
			<point x="285" y="449" type="curve" smooth="yes"/>
			<point x="384" y="449"/>
			<point x="423" y="370"/>
			<point x="426" y="297" type="curve"/>
			<point x="427" y="279"/>
			<point x="427" y="246"/>
			<point x="426" y="228" type="curve"/>
			<point x="423" y="156"/>
			<point x="384" y="76"/>
		</contour>
	</outline>
</glyph>
<glyph name="h" format="2">
	<advance width="608.625"/>
	<unicode hex="0068"/>
	<anchor x="305" y="0" name="bottom"/>
	<anchor x="151" y="597" name="center"/>
	<anchor x="306" y="675" name="top"/>
	<outline>
		<contour>
			<point x="98" y="0" type="curve" smooth="yes"/>
			<point x="148" y="0" type="line" smooth="yes"/>
			<point x="162" y="0"/>
			<point x="171" y="10"/>
			<point x="171" y="23" type="curve" smooth="yes"/>
			<point x="171" y="300" type="line" smooth="yes"/>
			<point x="171" y="394"/>
			<point x="226" y="449"/>
			<point x="309" y="449" type="curve" smooth="yes"/>
			<point x="397" y="449"/>
			<point x="443" y="393"/>
			<point x="443" y="300" type="curve" smooth="yes"/>
			<point x="443" y="23" type="line" smooth="yes"/>
			<point x="443" y="10"/>
			<point x="453" y="0"/>
			<point x="466" y="0" type="curve" smooth="yes"/>
			<point x="516" y="0" type="line" smooth="yes"/>
			<point x="530" y="0"/>
			<point x="539" y="10"/>
			<point x="539" y="23" type="curve" smooth="yes"/>
			<point x="539" y="305" type="line" smooth="yes"/>
			<point x="539" y="438"/>
			<point x="466" y="530"/>
			<point x="336" y="530" type="curve" smooth="yes"/>
			<point x="255" y="530"/>
			<point x="207" y="500"/>
			<point x="171" y="454" type="curve"/>
			<point x="171" y="687" type="line" smooth="yes"/>
			<point x="171" y="700"/>
			<point x="162" y="710"/>
			<point x="148" y="710" type="curve" smooth="yes"/>
			<point x="98" y="710" type="line" smooth="yes"/>
			<point x="85" y="710"/>
			<point x="75" y="700"/>
			<point x="75" y="687" type="curve" smooth="yes"/>
			<point x="75" y="23" type="line" smooth="yes"/>
			<point x="75" y="10"/>
			<point x="85" y="0"/>
		</contour>
	</outline>
</glyph>
<glyph name="i" format="2">
	<advance width="241.75"/>
	<unicode hex="0069"/>
	<anchor x="121" y="0" name="bottom"/>
	<anchor x="122" y="722" name="top"/>
	<outline>
		<contour>
			<point x="97" y="0" type="curve" smooth="yes"/>
			<point x="145" y="0" type="line" smooth="yes"/>
			<point x="158" y="0"/>
			<point x="168" y="10"/>
			<point x="168" y="23" type="curve" smooth="yes"/>
			<point x="168" y="497" type="line" smooth="yes"/>
			<point x="168" y="510"/>
			<point x="158" y="520"/>
			<point x="145" y="520" type="curve" smooth="yes"/>
			<point x="97" y="520" type="line" smooth="yes"/>
			<point x="84" y="520"/>
			<point x="74" y="510"/>
			<point x="74" y="497" type="curve" smooth="yes"/>
			<point x="74" y="23" type="line" smooth="yes"/>
			<point x="74" y="10"/>
			<point x="84" y="0"/>
		</contour>
		<contour>
			<point x="89" y="617" type="curve" smooth="yes"/>
			<point x="152" y="617" type="line" smooth="yes"/>
			<point x="165" y="617"/>
			<point x="176" y="627"/>
			<point x="176" y="640" type="curve" smooth="yes"/>
			<point x="176" y="694" type="line" smooth="yes"/>
			<point x="176" y="707"/>
			<point x="165" y="718"/>
			<point x="152" y="718" type="curve" smooth="yes"/>
			<point x="89" y="718" type="line" smooth="yes"/>
			<point x="76" y="718"/>
			<point x="66" y="707"/>
			<point x="66" y="694" type="curve" smooth="yes"/>
			<point x="66" y="640" type="line" smooth="yes"/>
			<point x="66" y="627"/>
			<point x="76" y="617"/>
		</contour>
	</outline>
</glyph>
<glyph name="j" format="2">
	<advance width="254"/>
	<unicode hex="006A"/>
	<anchor x="131" y="722" name="top"/>
	<outline>
		<contour>
			<point x="-11" y="-190" type="curve" smooth="yes"/>
			<point x="8" y="-190" type="line" smooth="yes"/>
			<point x="135" y="-190"/>
			<point x="179" y="-117"/>
			<point x="179" y="-12" type="curve" smooth="yes"/>
			<point x="179" y="497" type="line" smooth="yes"/>
			<point x="179" y="510"/>
			<point x="169" y="520"/>
			<point x="156" y="520" type="curve" smooth="yes"/>
			<point x="107" y="520" type="line" smooth="yes"/>
			<point x="94" y="520"/>
			<point x="84" y="510"/>
			<point x="84" y="497" type="curve" smooth="yes"/>
			<point x="84" y="-11" type="line" smooth="yes"/>
			<point x="84" y="-67"/>
			<point x="74" y="-110"/>
			<point x="3" y="-110" type="curve" smooth="yes"/>
			<point x="-11" y="-110" type="line" smooth="yes"/>
			<point x="-25" y="-110"/>
			<point x="-34" y="-120"/>
			<point x="-34" y="-133" type="curve" smooth="yes"/>
			<point x="-34" y="-167" type="line" smooth="yes"/>
			<point x="-34" y="-180"/>
			<point x="-25" y="-190"/>
		</contour>
		<contour>
			<point x="99" y="617" type="curve" smooth="yes"/>
			<point x="163" y="617" type="line" smooth="yes"/>
			<point x="177" y="617"/>
			<point x="187" y="627"/>
			<point x="187" y="640" type="curve" smooth="yes"/>
			<point x="187" y="694" type="line" smooth="yes"/>
			<point x="187" y="707"/>
			<point x="177" y="718"/>
			<point x="163" y="718" type="curve" smooth="yes"/>
			<point x="99" y="718" type="line" smooth="yes"/>
			<point x="86" y="718"/>
			<point x="76" y="707"/>
			<point x="76" y="694" type="curve" smooth="yes"/>
			<point x="76" y="640" type="line" smooth="yes"/>
			<point x="76" y="627"/>
			<point x="86" y="617"/>
		</contour>
	</outline>
</glyph>
<glyph name="k" format="2">
	<advance width="516.25"/>
	<unicode hex="006B"/>
	<anchor x="259" y="0" name="bottom"/>
	<anchor x="259" y="750" name="top"/>
	<outline>
		<contour>
			<point x="98" y="0" type="curve" smooth="yes"/>
			<point x="145" y="0" type="line" smooth="yes"/>
			<point x="158" y="0"/>
			<point x="168" y="10"/>
			<point x="168" y="23" type="curve" smooth="yes"/>
			<point x="168" y="230" type="line"/>
			<point x="391" y="17" type="line" smooth="yes"/>
			<point x="406" y="3"/>
			<point x="411" y="0"/>
			<point x="431" y="0" type="curve" smooth="yes"/>
			<point x="483" y="0" type="line" smooth="yes"/>
			<point x="495" y="0"/>
			<point x="504" y="9"/>
			<point x="504" y="21" type="curve" smooth="yes"/>
			<point x="504" y="26"/>
			<point x="500" y="32"/>
			<point x="492" y="39" type="curve" smooth="yes"/>
			<point x="236" y="288" type="line"/>
			<point x="467" y="480" type="line" smooth="yes"/>
			<point x="476" y="486"/>
			<point x="479" y="494"/>
			<point x="479" y="499" type="curve" smooth="yes"/>
			<point x="479" y="511"/>
			<point x="470" y="520"/>
			<point x="458" y="520" type="curve" smooth="yes"/>
			<point x="405" y="520" type="line" smooth="yes"/>
			<point x="385" y="520"/>
			<point x="381" y="515"/>
			<point x="365" y="503" type="curve" smooth="yes"/>
			<point x="168" y="339" type="line"/>
			<point x="168" y="687" type="line" smooth="yes"/>
			<point x="168" y="700"/>
			<point x="158" y="710"/>
			<point x="145" y="710" type="curve" smooth="yes"/>
			<point x="98" y="710" type="line" smooth="yes"/>
			<point x="85" y="710"/>
			<point x="75" y="700"/>
			<point x="75" y="687" type="curve" smooth="yes"/>
			<point x="75" y="23" type="line" smooth="yes"/>
			<point x="75" y="10"/>
			<point x="85" y="0"/>
		</contour>
	</outline>
</glyph>
<glyph name="l" format="2">
	<advance width="243.375"/>
	<unicode hex="006C"/>
	<anchor x="122" y="0" name="bottom"/>
	<anchor x="122" y="375" name="center"/>
	<anchor x="122" y="676" name="top"/>
	<anchor x="253" y="710" name="topright"/>
	<outline>
		<contour>
			<point x="98" y="0" type="curve" smooth="yes"/>
			<point x="145" y="0" type="line" smooth="yes"/>
			<point x="159" y="0"/>
			<point x="168" y="10"/>
			<point x="168" y="23" type="curve" smooth="yes"/>
			<point x="168" y="687" type="line" smooth="yes"/>
			<point x="168" y="700"/>
			<point x="159" y="710"/>
			<point x="145" y="710" type="curve" smooth="yes"/>
			<point x="98" y="710" type="line" smooth="yes"/>
			<point x="85" y="710"/>
			<point x="75" y="700"/>
			<point x="75" y="687" type="curve" smooth="yes"/>
			<point x="75" y="23" type="line" smooth="yes"/>
			<point x="75" y="10"/>
			<point x="85" y="0"/>
		</contour>
	</outline>
</glyph>
<glyph name="m" format="2">
	<advance width="889.25"/>
	<unicode hex="006D"/>
	<anchor x="445" y="0" name="bottom"/>
	<anchor x="445" y="520" name="top"/>
	<outline>
		<contour>
			<point x="97" y="0" type="curve" smooth="yes"/>
			<point x="145" y="0" type="line" smooth="yes"/>
			<point x="158" y="0"/>
			<point x="168" y="10"/>
			<point x="168" y="23" type="curve" smooth="yes"/>
			<point x="168" y="304" type="line" smooth="yes"/>
			<point x="168" y="415"/>
			<point x="229" y="449"/>
			<point x="283" y="449" type="curve" smooth="yes"/>
			<point x="342" y="449"/>
			<point x="401" y="415"/>
			<point x="401" y="303" type="curve" smooth="yes"/>
			<point x="401" y="23" type="line" smooth="yes"/>
			<point x="401" y="10"/>
			<point x="411" y="0"/>
			<point x="424" y="0" type="curve" smooth="yes"/>
			<point x="471" y="0" type="line" smooth="yes"/>
			<point x="484" y="0"/>
			<point x="494" y="10"/>
			<point x="494" y="23" type="curve" smooth="yes"/>
			<point x="494" y="303" type="line" smooth="yes"/>
			<point x="494" y="415"/>
			<point x="555" y="449"/>
			<point x="609" y="449" type="curve" smooth="yes"/>
			<point x="673" y="449"/>
			<point x="727" y="415"/>
			<point x="727" y="303" type="curve" smooth="yes"/>
			<point x="727" y="23" type="line" smooth="yes"/>
			<point x="727" y="10"/>
			<point x="737" y="0"/>
			<point x="750" y="0" type="curve" smooth="yes"/>
			<point x="797" y="0" type="line" smooth="yes"/>
			<point x="810" y="0"/>
			<point x="820" y="10"/>
			<point x="820" y="23" type="curve" smooth="yes"/>
			<point x="820" y="312" type="line" smooth="yes"/>
			<point x="820" y="458"/>
			<point x="739" y="530"/>
			<point x="634" y="530" type="curve" smooth="yes"/>
			<point x="560" y="530"/>
			<point x="498" y="493"/>
			<point x="467" y="438" type="curve"/>
			<point x="437" y="499"/>
			<point x="383" y="531"/>
			<point x="307" y="530" type="curve" smooth="yes"/>
			<point x="241" y="529"/>
			<point x="196" y="503"/>
			<point x="165" y="462" type="curve"/>
			<point x="165" y="497" type="line" smooth="yes"/>
			<point x="165" y="510"/>
			<point x="155" y="520"/>
			<point x="142" y="520" type="curve" smooth="yes"/>
			<point x="97" y="520" type="line" smooth="yes"/>
			<point x="84" y="520"/>
			<point x="74" y="510"/>
			<point x="74" y="497" type="curve" smooth="yes"/>
			<point x="74" y="23" type="line" smooth="yes"/>
			<point x="74" y="10"/>
			<point x="84" y="0"/>
		</contour>
	</outline>
</glyph>
<glyph name="n" format="2">
	<advance width="605.75"/>
	<unicode hex="006E"/>
	<anchor x="306" y="0" name="bottom"/>
	<anchor x="305" y="520" name="top"/>
	<outline>
		<contour>
			<point x="97" y="0" type="curve" smooth="yes"/>
			<point x="147" y="0" type="line" smooth="yes"/>
			<point x="160" y="0"/>
			<point x="170" y="10"/>
			<point x="170" y="23" type="curve" smooth="yes"/>
			<point x="170" y="300" type="line" smooth="yes"/>
			<point x="170" y="394"/>
			<point x="224" y="449"/>
			<point x="307" y="449" type="curve" smooth="yes"/>
			<point x="395" y="449"/>
			<point x="441" y="393"/>
			<point x="441" y="300" type="curve" smooth="yes"/>
			<point x="441" y="23" type="line" smooth="yes"/>
			<point x="441" y="10"/>
			<point x="451" y="0"/>
			<point x="464" y="0" type="curve" smooth="yes"/>
			<point x="514" y="0" type="line" smooth="yes"/>
			<point x="527" y="0"/>
			<point x="537" y="10"/>
			<point x="537" y="23" type="curve" smooth="yes"/>
			<point x="537" y="305" type="line" smooth="yes"/>
			<point x="537" y="438"/>
			<point x="464" y="530"/>
			<point x="334" y="530" type="curve" smooth="yes"/>
			<point x="251" y="530"/>
			<point x="202" y="498"/>
			<point x="167" y="453" type="curve"/>
			<point x="167" y="497" type="line" smooth="yes"/>
			<point x="167" y="510"/>
			<point x="157" y="520"/>
			<point x="144" y="520" type="curve" smooth="yes"/>
			<point x="97" y="520" type="line" smooth="yes"/>
			<point x="84" y="520"/>
			<point x="74" y="510"/>
			<point x="74" y="497" type="curve" smooth="yes"/>
			<point x="74" y="23" type="line" smooth="yes"/>
			<point x="74" y="10"/>
			<point x="84" y="0"/>
		</contour>
	</outline>
</glyph>
<glyph name="o" format="2">
	<advance width="573.75"/>
	<unicode hex="006F"/>
	<anchor x="287" y="0" name="bottom"/>
	<anchor x="287" y="260" name="center"/>
	<anchor x="516" y="10" name="ogonek"/>
	<anchor x="287" y="520" name="top"/>
	<anchor x="554" y="520" name="topright"/>
	<outline>
		<contour>
			<point x="287" y="-10" type="curve" smooth="yes"/>
			<point x="438" y="-10"/>
			<point x="517" y="85"/>
			<point x="522" y="217" type="curve" smooth="yes"/>
			<point x="523" y="239"/>
			<point x="523" y="281"/>
			<point x="522" y="303" type="curve" smooth="yes"/>
			<point x="517" y="435"/>
			<point x="436" y="530"/>
			<point x="287" y="530" type="curve" smooth="yes"/>
			<point x="137" y="530"/>
			<point x="57" y="435"/>
			<point x="52" y="303" type="curve" smooth="yes"/>
			<point x="51" y="281"/>
			<point x="51" y="239"/>
			<point x="52" y="217" type="curve" smooth="yes"/>
			<point x="57" y="85"/>
			<point x="135" y="-10"/>
		</contour>
		<contour>
			<point x="287" y="67" type="curve" smooth="yes"/>
			<point x="204" y="67"/>
			<point x="151" y="121"/>
			<point x="148" y="222" type="curve" smooth="yes"/>
			<point x="147" y="242"/>
			<point x="147" y="278"/>
			<point x="148" y="298" type="curve" smooth="yes"/>
			<point x="151" y="399"/>
			<point x="204" y="453"/>
			<point x="287" y="453" type="curve" smooth="yes"/>
			<point x="370" y="453"/>
			<point x="422" y="399"/>
			<point x="426" y="298" type="curve" smooth="yes"/>
			<point x="427" y="278"/>
			<point x="427" y="242"/>
			<point x="426" y="222" type="curve" smooth="yes"/>
			<point x="422" y="121"/>
			<point x="370" y="67"/>
		</contour>
	</outline>
</glyph>
<glyph name="p" format="2">
	<advance width="596"/>
	<unicode hex="0070"/>
	<anchor x="299" y="0" name="bottom"/>
	<anchor x="299" y="520" name="top"/>
	<outline>
		<contour>
			<point x="98" y="-190" type="curve" smooth="yes"/>
			<point x="147" y="-190" type="line" smooth="yes"/>
			<point x="160" y="-190"/>
			<point x="169" y="-180"/>
			<point x="169" y="-167" type="curve" smooth="yes"/>
			<point x="169" y="65" type="line"/>
			<point x="202" y="22"/>
			<point x="253" y="-10"/>
			<point x="331" y="-10" type="curve" smooth="yes"/>
			<point x="479" y="-10"/>
			<point x="540" y="101"/>
			<point x="545" y="226" type="curve" smooth="yes"/>
			<point x="546" y="248"/>
			<point x="546" y="272"/>
			<point x="545" y="294" type="curve" smooth="yes"/>
			<point x="540" y="421"/>
			<point x="479" y="530"/>
			<point x="331" y="530" type="curve" smooth="yes"/>
			<point x="251" y="530"/>
			<point x="199" y="497"/>
			<point x="167" y="453" type="curve"/>
			<point x="167" y="497" type="line" smooth="yes"/>
			<point x="167" y="510"/>
			<point x="157" y="520"/>
			<point x="144" y="520" type="curve" smooth="yes"/>
			<point x="98" y="520" type="line" smooth="yes"/>
			<point x="85" y="520"/>
			<point x="75" y="510"/>
			<point x="75" y="497" type="curve" smooth="yes"/>
			<point x="75" y="-167" type="line" smooth="yes"/>
			<point x="75" y="-180"/>
			<point x="85" y="-190"/>
		</contour>
		<contour>
			<point x="310" y="71" type="curve" smooth="yes"/>
			<point x="214" y="71"/>
			<point x="171" y="147"/>
			<point x="169" y="218" type="curve" smooth="yes"/>
			<point x="168" y="240"/>
			<point x="168" y="274"/>
			<point x="169" y="295" type="curve" smooth="yes"/>
			<point x="172" y="369"/>
			<point x="211" y="449"/>
			<point x="310" y="449" type="curve" smooth="yes"/>
			<point x="412" y="449"/>
			<point x="445" y="374"/>
			<point x="449" y="289" type="curve" smooth="yes"/>
			<point x="450" y="269"/>
			<point x="450" y="251"/>
			<point x="449" y="231" type="curve" smooth="yes"/>
			<point x="445" y="146"/>
			<point x="412" y="71"/>
		</contour>
	</outline>
</glyph>
<glyph name="q" format="2">
	<advance width="596"/>
	<unicode hex="0071"/>
	<anchor x="299" y="0" name="bottom"/>
	<anchor x="299" y="520" name="top"/>
	<outline>
		<contour>
			<point x="450" y="-190" type="curve" smooth="yes"/>
			<point x="498" y="-190" type="line" smooth="yes"/>
			<point x="511" y="-190"/>
			<point x="521" y="-180"/>
			<point x="521" y="-167" type="curve" smooth="yes"/>
			<point x="521" y="497" type="line" smooth="yes"/>
			<point x="521" y="510"/>
			<point x="511" y="520"/>
			<point x="498" y="520" type="curve" smooth="yes"/>
			<point x="452" y="520" type="line" smooth="yes"/>
			<point x="439" y="520"/>
			<point x="429" y="510"/>
			<point x="429" y="497" type="curve" smooth="yes"/>
			<point x="429" y="453" type="line"/>
			<point x="397" y="497"/>
			<point x="346" y="530"/>
			<point x="265" y="530" type="curve" smooth="yes"/>
			<point x="117" y="530"/>
			<point x="56" y="421"/>
			<point x="52" y="294" type="curve" smooth="yes"/>
			<point x="51" y="272"/>
			<point x="51" y="248"/>
			<point x="52" y="226" type="curve" smooth="yes"/>
			<point x="56" y="101"/>
			<point x="117" y="-10"/>
			<point x="265" y="-10" type="curve" smooth="yes"/>
			<point x="343" y="-10"/>
			<point x="394" y="22"/>
			<point x="427" y="65" type="curve"/>
			<point x="427" y="-167" type="line" smooth="yes"/>
			<point x="427" y="-180"/>
			<point x="436" y="-190"/>
		</contour>
		<contour>
			<point x="286" y="71" type="curve" smooth="yes"/>
			<point x="184" y="71"/>
			<point x="151" y="146"/>
			<point x="147" y="231" type="curve" smooth="yes"/>
			<point x="146" y="251"/>
			<point x="146" y="269"/>
			<point x="147" y="289" type="curve" smooth="yes"/>
			<point x="151" y="374"/>
			<point x="184" y="449"/>
			<point x="286" y="449" type="curve" smooth="yes"/>
			<point x="385" y="449"/>
			<point x="424" y="369"/>
			<point x="427" y="295" type="curve" smooth="yes"/>
			<point x="428" y="274"/>
			<point x="428" y="240"/>
			<point x="427" y="218" type="curve" smooth="yes"/>
			<point x="425" y="147"/>
			<point x="382" y="71"/>
		</contour>
	</outline>
</glyph>
<glyph name="r" format="2">
	<advance width="379.875"/>
	<unicode hex="0072"/>
	<anchor x="122" y="0" name="bottom"/>
	<anchor x="207" y="520" name="top"/>
	<outline>
		<contour>
			<point x="97" y="0" type="curve" smooth="yes"/>
			<point x="146" y="0" type="line" smooth="yes"/>
			<point x="159" y="0"/>
			<point x="170" y="10"/>
			<point x="170" y="23" type="curve" smooth="yes"/>
			<point x="170" y="317" type="line" smooth="yes"/>
			<point x="170" y="389"/>
			<point x="214" y="434"/>
			<point x="286" y="434" type="curve" smooth="yes"/>
			<point x="346" y="434" type="line" smooth="yes"/>
			<point x="359" y="434"/>
			<point x="369" y="443"/>
			<point x="369" y="456" type="curve" smooth="yes"/>
			<point x="369" y="497" type="line" smooth="yes"/>
			<point x="369" y="510"/>
			<point x="359" y="520"/>
			<point x="346" y="520" type="curve" smooth="yes"/>
			<point x="307" y="520" type="line" smooth="yes"/>
			<point x="241" y="520"/>
			<point x="194" y="497"/>
			<point x="167" y="452" type="curve"/>
			<point x="167" y="496" type="line" smooth="yes"/>
			<point x="167" y="510"/>
			<point x="156" y="520"/>
			<point x="143" y="520" type="curve" smooth="yes"/>
			<point x="97" y="520" type="line" smooth="yes"/>
			<point x="84" y="520"/>
			<point x="74" y="510"/>
			<point x="74" y="496" type="curve" smooth="yes"/>
			<point x="74" y="23" type="line" smooth="yes"/>
			<point x="74" y="10"/>
			<point x="84" y="0"/>
		</contour>
	</outline>
</glyph>
<glyph name="s" format="2">
	<advance width="510.375"/>
	<unicode hex="0073"/>
	<anchor x="255" y="0" name="bottom"/>
	<anchor x="253" y="520" name="top"/>
	<outline>
		<contour>
			<point x="254" y="-10" type="curve" smooth="yes"/>
			<point x="393" y="-10"/>
			<point x="468" y="58"/>
			<point x="468" y="143" type="curve" smooth="yes"/>
			<point x="468" y="217"/>
			<point x="425" y="268"/>
			<point x="294" y="296" type="curve" smooth="yes"/>
			<point x="172" y="322"/>
			<point x="149" y="343"/>
			<point x="149" y="383" type="curve" smooth="yes"/>
			<point x="149" y="425"/>
			<point x="182" y="457"/>
			<point x="249" y="457" type="curve" smooth="yes"/>
			<point x="320" y="457"/>
			<point x="342" y="427"/>
			<point x="364" y="401" type="curve" smooth="yes"/>
			<point x="369" y="395"/>
			<point x="375" y="391"/>
			<point x="384" y="391" type="curve" smooth="yes"/>
			<point x="426" y="391" type="line" smooth="yes"/>
			<point x="438" y="391"/>
			<point x="449" y="400"/>
			<point x="448" y="414" type="curve" smooth="yes"/>
			<point x="446" y="448"/>
			<point x="386" y="530"/>
			<point x="249" y="530" type="curve" smooth="yes"/>
			<point x="121" y="530"/>
			<point x="56" y="453"/>
			<point x="56" y="380" type="curve" smooth="yes"/>
			<point x="56" y="308"/>
			<point x="95" y="259"/>
			<point x="216" y="232" type="curve" smooth="yes"/>
			<point x="337" y="205"/>
			<point x="372" y="188"/>
			<point x="372" y="140" type="curve" smooth="yes"/>
			<point x="372" y="90"/>
			<point x="322" y="63"/>
			<point x="255" y="63" type="curve" smooth="yes"/>
			<point x="185" y="63"/>
			<point x="153" y="94"/>
			<point x="128" y="123" type="curve" smooth="yes"/>
			<point x="121" y="132"/>
			<point x="116" y="133"/>
			<point x="110" y="133" type="curve" smooth="yes"/>
			<point x="65" y="133" type="line" smooth="yes"/>
			<point x="55" y="133"/>
			<point x="41" y="125"/>
			<point x="42" y="110" type="curve" smooth="yes"/>
			<point x="45" y="78"/>
			<point x="104" y="-10"/>
		</contour>
	</outline>
</glyph>
<glyph name="t" format="2">
	<advance width="391.4375"/>
	<unicode hex="0074"/>
	<anchor x="245" y="0" name="bottom"/>
	<anchor x="192" y="260" name="center"/>
	<anchor x="196" y="520" name="top"/>
	<anchor x="319" y="778" name="topright"/>
	<outline>
		<contour>
			<point x="277" y="0" type="curve" smooth="yes"/>
			<point x="346" y="0" type="line" smooth="yes"/>
			<point x="359" y="0"/>
			<point x="369" y="10"/>
			<point x="369" y="23" type="curve" smooth="yes"/>
			<point x="369" y="59" type="line" smooth="yes"/>
			<point x="369" y="72"/>
			<point x="359" y="82"/>
			<point x="346" y="82" type="curve" smooth="yes"/>
			<point x="285" y="82" type="line" smooth="yes"/>
			<point x="231" y="82"/>
			<point x="212" y="120"/>
			<point x="212" y="183" type="curve" smooth="yes"/>
			<point x="212" y="440" type="line"/>
			<point x="336" y="440" type="line" smooth="yes"/>
			<point x="350" y="440"/>
			<point x="359" y="450"/>
			<point x="359" y="463" type="curve" smooth="yes"/>
			<point x="359" y="497" type="line" smooth="yes"/>
			<point x="359" y="510"/>
			<point x="350" y="520"/>
			<point x="336" y="520" type="curve" smooth="yes"/>
			<point x="212" y="520" type="line"/>
			<point x="212" y="687" type="line" smooth="yes"/>
			<point x="212" y="700"/>
			<point x="202" y="710"/>
			<point x="189" y="710" type="curve" smooth="yes"/>
			<point x="142" y="710" type="line" smooth="yes"/>
			<point x="129" y="710"/>
			<point x="119" y="700"/>
			<point x="119" y="687" type="curve" smooth="yes"/>
			<point x="119" y="520" type="line"/>
			<point x="41" y="520" type="line" smooth="yes"/>
			<point x="28" y="520"/>
			<point x="18" y="510"/>
			<point x="18" y="497" type="curve" smooth="yes"/>
			<point x="18" y="463" type="line" smooth="yes"/>
			<point x="18" y="450"/>
			<point x="28" y="440"/>
			<point x="41" y="440" type="curve" smooth="yes"/>
			<point x="119" y="440" type="line"/>
			<point x="119" y="176" type="line" smooth="yes"/>
			<point x="119" y="69"/>
			<point x="164" y="0"/>
		</contour>
	</outline>
</glyph>
<glyph name="u" format="2">
	<advance width="601.6875"/>
	<unicode hex="0075"/>
	<anchor x="301" y="0" name="bottom"/>
	<anchor x="523" y="48" name="ogonek"/>
	<anchor x="298" y="520" name="top"/>
	<anchor x="582" y="520" name="topright"/>
	<outline>
		<contour>
			<point x="268" y="-10" type="curve" smooth="yes"/>
			<point x="351" y="-10"/>
			<point x="400" y="20"/>
			<point x="435" y="67" type="curve"/>
			<point x="435" y="23" type="line" smooth="yes"/>
			<point x="435" y="10"/>
			<point x="445" y="0"/>
			<point x="458" y="0" type="curve" smooth="yes"/>
			<point x="505" y="0" type="line" smooth="yes"/>
			<point x="518" y="0"/>
			<point x="527" y="10"/>
			<point x="527" y="23" type="curve" smooth="yes"/>
			<point x="527" y="497" type="line" smooth="yes"/>
			<point x="527" y="510"/>
			<point x="518" y="520"/>
			<point x="505" y="520" type="curve" smooth="yes"/>
			<point x="455" y="520" type="line" smooth="yes"/>
			<point x="442" y="520"/>
			<point x="432" y="510"/>
			<point x="432" y="497" type="curve" smooth="yes"/>
			<point x="432" y="220" type="line" smooth="yes"/>
			<point x="432" y="126"/>
			<point x="378" y="71"/>
			<point x="295" y="71" type="curve" smooth="yes"/>
			<point x="208" y="71"/>
			<point x="165" y="121"/>
			<point x="165" y="220" type="curve" smooth="yes"/>
			<point x="165" y="497" type="line" smooth="yes"/>
			<point x="165" y="510"/>
			<point x="155" y="520"/>
			<point x="142" y="520" type="curve" smooth="yes"/>
			<point x="92" y="520" type="line" smooth="yes"/>
			<point x="79" y="520"/>
			<point x="69" y="510"/>
			<point x="69" y="497" type="curve" smooth="yes"/>
			<point x="69" y="215" type="line" smooth="yes"/>
			<point x="69" y="82"/>
			<point x="139" y="-10"/>
		</contour>
	</outline>
</glyph>
<glyph name="v" format="2">
	<advance width="553.625"/>
	<unicode hex="0076"/>
	<anchor x="277" y="0" name="bottom"/>
	<anchor x="277" y="520" name="top"/>
	<outline>
		<contour>
			<point x="255" y="0" type="curve"/>
			<point x="298" y="0" type="line" smooth="yes"/>
			<point x="319" y="0"/>
			<point x="329" y="11"/>
			<point x="335" y="25" type="curve" smooth="yes"/>
			<point x="521" y="489" type="line" smooth="yes"/>
			<point x="522" y="492"/>
			<point x="523" y="497"/>
			<point x="523" y="499" type="curve" smooth="yes"/>
			<point x="523" y="511"/>
			<point x="513" y="520"/>
			<point x="502" y="520" type="curve" smooth="yes"/>
			<point x="453" y="520" type="line" smooth="yes"/>
			<point x="439" y="520"/>
			<point x="432" y="509"/>
			<point x="429" y="503" type="curve" smooth="yes"/>
			<point x="277" y="109" type="line"/>
			<point x="125" y="503" type="line" smooth="yes"/>
			<point x="122" y="509"/>
			<point x="115" y="520"/>
			<point x="100" y="520" type="curve" smooth="yes"/>
			<point x="52" y="520" type="line" smooth="yes"/>
			<point x="40" y="520"/>
			<point x="31" y="511"/>
			<point x="31" y="499" type="curve" smooth="yes"/>
			<point x="31" y="497"/>
			<point x="32" y="492"/>
			<point x="33" y="489" type="curve" smooth="yes"/>
			<point x="218" y="25" type="line" smooth="yes"/>
			<point x="224" y="11"/>
			<point x="235" y="0"/>
		</contour>
	</outline>
</glyph>
<glyph name="w" format="2">
	<advance width="801.5625"/>
	<unicode hex="0077"/>
	<anchor x="401" y="0" name="bottom"/>
	<anchor x="401" y="520" name="top"/>
	<outline>
		<contour>
			<point x="212" y="0" type="curve"/>
			<point x="251" y="0" type="line"/>
			<point x="270" y="0"/>
			<point x="280" y="9"/>
			<point x="285" y="25" type="curve"/>
			<point x="401" y="383" type="line"/>
			<point x="517" y="25" type="line"/>
			<point x="521" y="9"/>
			<point x="532" y="0"/>
			<point x="550" y="0" type="curve"/>
			<point x="589" y="0" type="line"/>
			<point x="608" y="0"/>
			<point x="616" y="9"/>
			<point x="622" y="25" type="curve"/>
			<point x="763" y="489" type="line"/>
			<point x="764" y="492"/>
			<point x="765" y="497"/>
			<point x="765" y="499" type="curve" smooth="yes"/>
			<point x="765" y="511"/>
			<point x="756" y="520"/>
			<point x="745" y="520" type="curve"/>
			<point x="700" y="520" type="line"/>
			<point x="686" y="520"/>
			<point x="677" y="509"/>
			<point x="676" y="503" type="curve"/>
			<point x="565" y="126" type="line"/>
			<point x="446" y="499" type="line"/>
			<point x="444" y="508"/>
			<point x="435" y="520"/>
			<point x="418" y="520" type="curve"/>
			<point x="384" y="520" type="line"/>
			<point x="366" y="520"/>
			<point x="358" y="508"/>
			<point x="356" y="499" type="curve"/>
			<point x="237" y="126" type="line"/>
			<point x="126" y="503" type="line"/>
			<point x="124" y="509"/>
			<point x="116" y="520"/>
			<point x="101" y="520" type="curve"/>
			<point x="57" y="520" type="line"/>
			<point x="46" y="520"/>
			<point x="36" y="511"/>
			<point x="36" y="499" type="curve" smooth="yes"/>
			<point x="36" y="497"/>
			<point x="37" y="492"/>
			<point x="38" y="489" type="curve"/>
			<point x="180" y="25" type="line"/>
			<point x="186" y="9"/>
			<point x="194" y="0"/>
		</contour>
	</outline>
</glyph>
<glyph name="x" format="2">
	<advance width="539"/>
	<unicode hex="0078"/>
	<anchor x="270" y="0" name="bottom"/>
	<anchor x="270" y="520" name="top"/>
	<outline>
		<contour>
			<point x="50" y="0" type="curve" smooth="yes"/>
			<point x="101" y="0" type="line" smooth="yes"/>
			<point x="115" y="0"/>
			<point x="122" y="9"/>
			<point x="127" y="15" type="curve" smooth="yes"/>
			<point x="269" y="198" type="line"/>
			<point x="409" y="15" type="line" smooth="yes"/>
			<point x="414" y="8"/>
			<point x="421" y="0"/>
			<point x="435" y="0" type="curve" smooth="yes"/>
			<point x="488" y="0" type="line" smooth="yes"/>
			<point x="500" y="0"/>
			<point x="509" y="9"/>
			<point x="509" y="21" type="curve" smooth="yes"/>
			<point x="509" y="26"/>
			<point x="508" y="31"/>
			<point x="502" y="39" type="curve" smooth="yes"/>
			<point x="328" y="264" type="line"/>
			<point x="493" y="481" type="line" smooth="yes"/>
			<point x="499" y="488"/>
			<point x="500" y="494"/>
			<point x="500" y="499" type="curve" smooth="yes"/>
			<point x="500" y="511"/>
			<point x="491" y="520"/>
			<point x="479" y="520" type="curve" smooth="yes"/>
			<point x="430" y="520" type="line" smooth="yes"/>
			<point x="416" y="520"/>
			<point x="409" y="510"/>
			<point x="404" y="503" type="curve" smooth="yes"/>
			<point x="271" y="331" type="line"/>
			<point x="138" y="504" type="line" smooth="yes"/>
			<point x="133" y="511"/>
			<point x="126" y="520"/>
			<point x="112" y="520" type="curve" smooth="yes"/>
			<point x="61" y="520" type="line" smooth="yes"/>
			<point x="49" y="520"/>
			<point x="40" y="511"/>
			<point x="40" y="499" type="curve" smooth="yes"/>
			<point x="40" y="494"/>
			<point x="41" y="488"/>
			<point x="47" y="481" type="curve" smooth="yes"/>
			<point x="210" y="266" type="line"/>
			<point x="36" y="39" type="line" smooth="yes"/>
			<point x="30" y="31"/>
			<point x="29" y="25"/>
			<point x="29" y="21" type="curve" smooth="yes"/>
			<point x="29" y="9"/>
			<point x="39" y="0"/>
		</contour>
	</outline>
</glyph>
<glyph name="y" format="2">
	<advance width="551.5"/>
	<unicode hex="0079"/>
	<anchor x="276" y="0" name="bottom"/>
	<anchor x="273" y="520" name="top"/>
	<outline>
		<contour>
			<point x="165" y="-190" type="curve" smooth="yes"/>
			<point x="212" y="-190" type="line" smooth="yes"/>
			<point x="226" y="-190"/>
			<point x="233" y="-182"/>
			<point x="237" y="-173" type="curve" smooth="yes"/>
			<point x="521" y="482" type="line" smooth="yes"/>
			<point x="524" y="491"/>
			<point x="526" y="495"/>
			<point x="526" y="500" type="curve" smooth="yes"/>
			<point x="526" y="511"/>
			<point x="517" y="520"/>
			<point x="505" y="520" type="curve" smooth="yes"/>
			<point x="458" y="520" type="line" smooth="yes"/>
			<point x="444" y="520"/>
			<point x="437" y="512"/>
			<point x="433" y="503" type="curve" smooth="yes"/>
			<point x="277" y="139" type="line"/>
			<point x="125" y="503" type="line" smooth="yes"/>
			<point x="122" y="512"/>
			<point x="115" y="520"/>
			<point x="101" y="520" type="curve" smooth="yes"/>
			<point x="52" y="520" type="line" smooth="yes"/>
			<point x="40" y="520"/>
			<point x="31" y="511"/>
			<point x="31" y="499" type="curve" smooth="yes"/>
			<point x="31" y="495"/>
			<point x="33" y="490"/>
			<point x="36" y="482" type="curve" smooth="yes"/>
			<point x="227" y="31" type="line"/>
			<point x="150" y="-152" type="line" smooth="yes"/>
			<point x="146" y="-161"/>
			<point x="145" y="-165"/>
			<point x="145" y="-170" type="curve" smooth="yes"/>
			<point x="145" y="-181"/>
			<point x="154" y="-190"/>
		</contour>
	</outline>
</glyph>
<glyph name="z" format="2">
	<advance width="508.75"/>
	<unicode hex="007A"/>
	<anchor x="254" y="0" name="bottom"/>
	<anchor x="254" y="260" name="center"/>
	<anchor x="255" y="520" name="top"/>
	<outline>
		<contour>
			<point x="64" y="0" type="curve" smooth="yes"/>
			<point x="449" y="0" type="line" smooth="yes"/>
			<point x="463" y="0"/>
			<point x="472" y="10"/>
			<point x="472" y="23" type="curve" smooth="yes"/>
			<point x="472" y="56" type="line" smooth="yes"/>
			<point x="472" y="70"/>
			<point x="463" y="79"/>
			<point x="449" y="79" type="curve" smooth="yes"/>
			<point x="165" y="79" type="line"/>
			<point x="438" y="429" type="line" smooth="yes"/>
			<point x="445" y="439"/>
			<point x="452" y="448"/>
			<point x="452" y="460" type="curve" smooth="yes"/>
			<point x="452" y="497" type="line" smooth="yes"/>
			<point x="452" y="510"/>
			<point x="443" y="520"/>
			<point x="429" y="520" type="curve" smooth="yes"/>
			<point x="73" y="520" type="line" smooth="yes"/>
			<point x="60" y="520"/>
			<point x="50" y="510"/>
			<point x="50" y="497" type="curve" smooth="yes"/>
			<point x="50" y="464" type="line" smooth="yes"/>
			<point x="50" y="450"/>
			<point x="60" y="441"/>
			<point x="73" y="441" type="curve" smooth="yes"/>
			<point x="331" y="441" type="line"/>
			<point x="55" y="90" type="line" smooth="yes"/>
			<point x="48" y="80"/>
			<point x="41" y="70"/>
			<point x="41" y="58" type="curve" smooth="yes"/>
			<point x="41" y="23" type="line" smooth="yes"/>
			<point x="41" y="10"/>
			<point x="50" y="0"/>
		</contour>
	</outline>
</glyph>
<glyph name="braceleft" format="2">
	<advance width="190"/>
	<unicode hex="007B"/>
	<outline>
		<contour>
			<point x="168" y="-244" type="curve" smooth="yes"/>
			<point x="59" y="-244"/>
			<point x="22" y="-101"/>
			<point x="22" y="137" type="curve" smooth="yes"/>
			<point x="22" y="172"/>
			<point x="12" y="228"/>
			<point x="-9" y="239" type="curve" smooth="yes"/>
			<point x="-18" y="244"/>
			<point x="-25" y="250"/>
			<point x="-25" y="257" type="curve" smooth="yes"/>
			<point x="-25" y="268"/>
			<point x="-15" y="281"/>
			<point x="0" y="281" type="curve" smooth="yes"/>
			<point x="115" y="281"/>
			<point x="168" y="671"/>
			<point x="328" y="671" type="curve" smooth="yes"/>
			<point x="336" y="671"/>
			<point x="340" y="665"/>
			<point x="340" y="657" type="curve" smooth="yes"/>
			<point x="340" y="646"/>
			<point x="334" y="637"/>
			<point x="324" y="635" type="curve" smooth="yes"/>
			<point x="248" y="622"/>
			<point x="203" y="272"/>
			<point x="46" y="239" type="curve"/>
			<point x="131" y="126"/>
			<point x="79" y="-169"/>
			<point x="173" y="-203" type="curve" smooth="yes"/>
			<point x="182" y="-206"/>
			<point x="189" y="-217"/>
			<point x="189" y="-227" type="curve" smooth="yes"/>
			<point x="189" y="-239"/>
			<point x="182" y="-244"/>
		</contour>
	</outline>
</glyph>
<glyph name="bar" format="2">
	<advance width="213"/>
	<unicode hex="007C"/>
	<outline>
		<contour>
			<point x="156" y="695" type="curve" smooth="yes"/>
			<point x="158" y="697"/>
			<point x="163" y="700"/>
			<point x="169" y="700" type="curve" smooth="yes"/>
			<point x="177" y="700"/>
			<point x="182" y="694"/>
			<point x="182" y="687" type="curve" smooth="yes"/>
			<point x="182" y="677"/>
			<point x="111" y="122"/>
			<point x="89" y="-138" type="curve" smooth="yes"/>
			<point x="87" y="-156"/>
			<point x="70" y="-159"/>
			<point x="54" y="-159" type="curve" smooth="yes"/>
			<point x="32" y="-159"/>
			<point x="-1" y="-159"/>
			<point x="-1" y="-135" type="curve" smooth="yes"/>
			<point x="-1" y="-51"/>
			<point x="119" y="656"/>
		</contour>
	</outline>
</glyph>
<glyph name="braceright" format="2">
	<advance width="190"/>
	<unicode hex="007D"/>
	<outline>
		<contour>
			<point x="-55" y="-203" type="curve" smooth="yes"/>
			<point x="-73" y="-203"/>
			<point x="-102" y="-200"/>
			<point x="-102" y="-182" type="curve" smooth="yes"/>
			<point x="-102" y="-168"/>
			<point x="-87" y="-159"/>
			<point x="-77" y="-159" type="curve" smooth="yes"/>
			<point x="23" y="-159"/>
			<point x="75" y="136"/>
			<point x="193" y="213" type="curve"/>
			<point x="57" y="298"/>
			<point x="136" y="641"/>
			<point x="66" y="681" type="curve" smooth="yes"/>
			<point x="58" y="686"/>
			<point x="58" y="694"/>
			<point x="58" y="701" type="curve" smooth="yes"/>
			<point x="58" y="709"/>
			<point x="64" y="716"/>
			<point x="71" y="716" type="curve" smooth="yes"/>
			<point x="72" y="716"/>
			<point x="75" y="716"/>
			<point x="76" y="715" type="curve" smooth="yes"/>
			<point x="227" y="660"/>
			<point x="143" y="276"/>
			<point x="250" y="237" type="curve" smooth="yes"/>
			<point x="260" y="233"/>
			<point x="267" y="222"/>
			<point x="267" y="212" type="curve" smooth="yes"/>
			<point x="267" y="202"/>
			<point x="259" y="196"/>
			<point x="247" y="196" type="curve" smooth="yes"/>
			<point x="164" y="180"/>
			<point x="121" y="-203"/>
		</contour>
	</outline>
</glyph>
<glyph name="asciitilde" format="2">
	<advance width="491"/>
	<unicode hex="007E"/>
	<outline>
		<contour>
			<point x="17" y="210" type="curve" smooth="yes"/>
			<point x="8" y="210"/>
			<point x="6" y="213"/>
			<point x="6" y="219" type="curve" smooth="yes"/>
			<point x="6" y="237"/>
			<point x="70" y="303"/>
			<point x="184" y="303" type="curve" smooth="yes"/>
			<point x="244" y="303"/>
			<point x="281" y="267"/>
			<point x="353" y="267" type="curve" smooth="yes"/>
			<point x="406" y="267"/>
			<point x="434" y="297"/>
			<point x="473" y="297" type="curve" smooth="yes"/>
			<point x="481" y="297"/>
			<point x="484" y="293"/>
			<point x="484" y="287" type="curve" smooth="yes"/>
			<point x="484" y="264"/>
			<point x="412" y="210"/>
			<point x="315" y="210" type="curve" smooth="yes"/>
			<point x="260" y="210"/>
			<point x="199" y="244"/>
			<point x="160" y="244" type="curve" smooth="yes"/>
			<point x="85" y="244"/>
			<point x="56" y="210"/>
		</contour>
	</outline>
</glyph>
<glyph name="exclamdown" format="2">
	<advance width="175"/>
	<unicode hex="00A1"/>
	<outline>
		<contour>
			<point x="188" y="581" type="curve" smooth="yes"/>
			<point x="160" y="581"/>
			<point x="151" y="584"/>
			<point x="151" y="605" type="curve" smooth="yes"/>
			<point x="151" y="649"/>
			<point x="194" y="678"/>
			<point x="231" y="678" type="curve" smooth="yes"/>
			<point x="251" y="678"/>
			<point x="253" y="672"/>
			<point x="253" y="660" type="curve" smooth="yes"/>
			<point x="253" y="646"/>
			<point x="247" y="633"/>
			<point x="241" y="607" type="curve" smooth="yes"/>
			<point x="236" y="586"/>
			<point x="220" y="581"/>
		</contour>
		<contour>
			<point x="4" y="0" type="curve" smooth="yes"/>
			<point x="-18" y="0"/>
			<point x="-33" y="0"/>
			<point x="-33" y="21" type="curve" smooth="yes"/>
			<point x="-33" y="92"/>
			<point x="91" y="499"/>
			<point x="154" y="499" type="curve" smooth="yes"/>
			<point x="166" y="499"/>
			<point x="174" y="497"/>
			<point x="174" y="485" type="curve" smooth="yes"/>
			<point x="174" y="457"/>
			<point x="106" y="277"/>
			<point x="52" y="24" type="curve" smooth="yes"/>
			<point x="47" y="-1"/>
			<point x="26" y="0"/>
		</contour>
	</outline>
</glyph>
<glyph name="cent" format="2">
	<advance width="559.75"/>
	<unicode hex="00A2"/>
	<outline>
		<contour>
			<point x="260" y="-100" type="curve"/>
			<point x="301" y="-100" type="line"/>
			<point x="314" y="-100"/>
			<point x="324" y="-90"/>
			<point x="324" y="-77" type="curve"/>
			<point x="324" y="-7" type="line"/>
			<point x="462" y="10"/>
			<point x="508" y="109"/>
			<point x="510" y="156" type="curve" smooth="yes"/>
			<point x="511" y="169"/>
			<point x="500" y="179"/>
			<point x="487" y="179" type="curve"/>
			<point x="439" y="179" type="line"/>
			<point x="425" y="179"/>
			<point x="420" y="173"/>
			<point x="414" y="158" type="curve" smooth="yes"/>
			<point x="390" y="92"/>
			<point x="343" y="69"/>
			<point x="282" y="69" type="curve" smooth="yes"/>
			<point x="210" y="69"/>
			<point x="154" y="115"/>
			<point x="151" y="225" type="curve" smooth="yes"/>
			<point x="150" y="245"/>
			<point x="150" y="273"/>
			<point x="151" y="295" type="curve" smooth="yes"/>
			<point x="154" y="404"/>
			<point x="210" y="451"/>
			<point x="282" y="451" type="curve" smooth="yes"/>
			<point x="342" y="451"/>
			<point x="390" y="428"/>
			<point x="414" y="362" type="curve" smooth="yes"/>
			<point x="420" y="347"/>
			<point x="425" y="342"/>
			<point x="439" y="342" type="curve"/>
			<point x="487" y="342" type="line"/>
			<point x="500" y="342"/>
			<point x="511" y="351"/>
			<point x="510" y="364" type="curve" smooth="yes"/>
			<point x="508" y="412"/>
			<point x="461" y="510"/>
			<point x="324" y="527" type="curve"/>
			<point x="324" y="587" type="line"/>
			<point x="324" y="600"/>
			<point x="314" y="610"/>
			<point x="301" y="610" type="curve"/>
			<point x="260" y="610" type="line"/>
			<point x="247" y="610"/>
			<point x="237" y="600"/>
			<point x="237" y="587" type="curve"/>
			<point x="237" y="526" type="line"/>
			<point x="126" y="511"/>
			<point x="58" y="428"/>
			<point x="55" y="300" type="curve" smooth="yes"/>
			<point x="54" y="279"/>
			<point x="54" y="240"/>
			<point x="55" y="220" type="curve" smooth="yes"/>
			<point x="59" y="91"/>
			<point x="126" y="9"/>
			<point x="237" y="-6" type="curve"/>
			<point x="237" y="-77" type="line"/>
			<point x="237" y="-90"/>
			<point x="247" y="-100"/>
		</contour>
	</outline>
</glyph>
<glyph name="currency" format="2">
	<advance width="588.5"/>
	<unicode hex="00A4"/>
	<outline>
		<contour>
			<point x="96" y="78" type="line"/>
			<point x="105" y="69"/>
			<point x="119" y="69"/>
			<point x="128" y="78" type="curve"/>
			<point x="171" y="122" type="line"/>
			<point x="206" y="96"/>
			<point x="248" y="83"/>
			<point x="294" y="83" type="curve" smooth="yes"/>
			<point x="340" y="83"/>
			<point x="383" y="96"/>
			<point x="417" y="122" type="curve"/>
			<point x="460" y="78" type="line"/>
			<point x="470" y="69"/>
			<point x="483" y="69"/>
			<point x="493" y="78" type="curve"/>
			<point x="517" y="102" type="line"/>
			<point x="526" y="111"/>
			<point x="526" y="125"/>
			<point x="517" y="134" type="curve"/>
			<point x="473" y="177" type="line"/>
			<point x="497" y="211"/>
			<point x="512" y="254"/>
			<point x="512" y="300" type="curve" smooth="yes"/>
			<point x="512" y="346"/>
			<point x="497" y="388"/>
			<point x="473" y="423" type="curve"/>
			<point x="517" y="466" type="line"/>
			<point x="526" y="475"/>
			<point x="526" y="489"/>
			<point x="517" y="498" type="curve"/>
			<point x="493" y="522" type="line"/>
			<point x="483" y="531"/>
			<point x="470" y="531"/>
			<point x="460" y="522" type="curve"/>
			<point x="417" y="479" type="line"/>
			<point x="383" y="503"/>
			<point x="340" y="518"/>
			<point x="294" y="518" type="curve" smooth="yes"/>
			<point x="248" y="518"/>
			<point x="206" y="503"/>
			<point x="171" y="479" type="curve"/>
			<point x="128" y="522" type="line"/>
			<point x="119" y="531"/>
			<point x="105" y="531"/>
			<point x="96" y="522" type="curve"/>
			<point x="72" y="498" type="line"/>
			<point x="63" y="489"/>
			<point x="63" y="475"/>
			<point x="72" y="466" type="curve"/>
			<point x="116" y="423" type="line"/>
			<point x="91" y="388"/>
			<point x="77" y="346"/>
			<point x="77" y="300" type="curve" smooth="yes"/>
			<point x="77" y="254"/>
			<point x="91" y="211"/>
			<point x="116" y="177" type="curve"/>
			<point x="72" y="134" type="line"/>
			<point x="63" y="125"/>
			<point x="63" y="111"/>
			<point x="72" y="102" type="curve"/>
		</contour>
		<contour>
			<point x="294" y="161" type="curve" smooth="yes"/>
			<point x="217" y="161"/>
			<point x="156" y="223"/>
			<point x="156" y="300" type="curve" smooth="yes"/>
			<point x="156" y="377"/>
			<point x="217" y="439"/>
			<point x="294" y="439" type="curve" smooth="yes"/>
			<point x="371" y="439"/>
			<point x="433" y="377"/>
			<point x="433" y="300" type="curve" smooth="yes"/>
			<point x="433" y="223"/>
			<point x="371" y="161"/>
		</contour>
	</outline>
</glyph>
<glyph name="yen" format="2">
	<advance width="616.75"/>
	<unicode hex="00A5"/>
	<outline>
		<contour>
			<point x="282" y="0" type="curve" smooth="yes"/>
			<point x="334" y="0" type="line" smooth="yes"/>
			<point x="348" y="0"/>
			<point x="358" y="10"/>
			<point x="358" y="23" type="curve" smooth="yes"/>
			<point x="358" y="280" type="line"/>
			<point x="580" y="667" type="line" smooth="yes"/>
			<point x="581" y="671"/>
			<point x="583" y="675"/>
			<point x="583" y="680" type="curve" smooth="yes"/>
			<point x="583" y="691"/>
			<point x="574" y="700"/>
			<point x="563" y="700" type="curve" smooth="yes"/>
			<point x="510" y="700" type="line" smooth="yes"/>
			<point x="497" y="700"/>
			<point x="489" y="692"/>
			<point x="483" y="683" type="curve" smooth="yes"/>
			<point x="308" y="382" type="line"/>
			<point x="134" y="683" type="line" smooth="yes"/>
			<point x="128" y="692"/>
			<point x="119" y="700"/>
			<point x="107" y="700" type="curve" smooth="yes"/>
			<point x="54" y="700" type="line" smooth="yes"/>
			<point x="43" y="700"/>
			<point x="34" y="691"/>
			<point x="34" y="680" type="curve" smooth="yes"/>
			<point x="34" y="675"/>
			<point x="35" y="671"/>
			<point x="37" y="667" type="curve" smooth="yes"/>
			<point x="259" y="280" type="line"/>
			<point x="259" y="23" type="line" smooth="yes"/>
			<point x="259" y="10"/>
			<point x="269" y="0"/>
		</contour>
		<contour>
			<point x="117" y="106" type="curve" smooth="yes"/>
			<point x="500" y="106" type="line" smooth="yes"/>
			<point x="514" y="106"/>
			<point x="523" y="116"/>
			<point x="523" y="129" type="curve" smooth="yes"/>
			<point x="523" y="164" type="line" smooth="yes"/>
			<point x="523" y="177"/>
			<point x="514" y="187"/>
			<point x="500" y="187" type="curve" smooth="yes"/>
			<point x="117" y="187" type="line" smooth="yes"/>
			<point x="103" y="187"/>
			<point x="94" y="177"/>
			<point x="94" y="164" type="curve" smooth="yes"/>
			<point x="94" y="129" type="line" smooth="yes"/>
			<point x="94" y="116"/>
			<point x="103" y="106"/>
		</contour>
		<contour>
			<point x="117" y="236" type="curve" smooth="yes"/>
			<point x="500" y="236" type="line" smooth="yes"/>
			<point x="514" y="236"/>
			<point x="523" y="245"/>
			<point x="523" y="258" type="curve" smooth="yes"/>
			<point x="523" y="293" type="line" smooth="yes"/>
			<point x="523" y="307"/>
			<point x="514" y="316"/>
			<point x="500" y="316" type="curve" smooth="yes"/>
			<point x="117" y="316" type="line" smooth="yes"/>
			<point x="103" y="316"/>
			<point x="94" y="307"/>
			<point x="94" y="293" type="curve" smooth="yes"/>
			<point x="94" y="258" type="line" smooth="yes"/>
			<point x="94" y="245"/>
			<point x="103" y="236"/>
		</contour>
	</outline>
</glyph>
<glyph name="brokenbar" format="2">
	<advance width="238.3125"/>
	<unicode hex="00A6"/>
	<outline>
		<contour>
			<point x="100" y="475" type="curve" smooth="yes"/>
			<point x="139" y="475" type="line" smooth="yes"/>
			<point x="152" y="475"/>
			<point x="162" y="485"/>
			<point x="162" y="498" type="curve" smooth="yes"/>
			<point x="162" y="806" type="line"/>
			<point x="162" y="819"/>
			<point x="152" y="829"/>
			<point x="139" y="829" type="curve" smooth="yes"/>
			<point x="100" y="829" type="line" smooth="yes"/>
			<point x="86" y="829"/>
			<point x="77" y="819"/>
			<point x="77" y="806" type="curve" smooth="yes"/>
			<point x="77" y="498" type="line" smooth="yes"/>
			<point x="77" y="485"/>
			<point x="86" y="475"/>
		</contour>
		<contour>
			<point x="100" y="0" type="curve" smooth="yes"/>
			<point x="139" y="0" type="line" smooth="yes"/>
			<point x="152" y="0"/>
			<point x="162" y="10"/>
			<point x="162" y="23" type="curve" smooth="yes"/>
			<point x="162" y="331" type="line"/>
			<point x="162" y="344"/>
			<point x="152" y="354"/>
			<point x="139" y="354" type="curve" smooth="yes"/>
			<point x="100" y="354" type="line" smooth="yes"/>
			<point x="86" y="354"/>
			<point x="77" y="344"/>
			<point x="77" y="331" type="curve" smooth="yes"/>
			<point x="77" y="23" type="line" smooth="yes"/>
			<point x="77" y="10"/>
			<point x="86" y="0"/>
		</contour>
	</outline>
</glyph>
<glyph name="section" format="2">
	<advance width="568.5625"/>
	<unicode hex="00A7"/>
	<outline>
		<contour>
			<point x="279" y="-140" type="curve" smooth="yes"/>
			<point x="409" y="-140"/>
			<point x="474" y="-55"/>
			<point x="474" y="30" type="curve" smooth="yes"/>
			<point x="474" y="64"/>
			<point x="468" y="92"/>
			<point x="450" y="115" type="curve"/>
			<point x="493" y="147"/>
			<point x="526" y="190"/>
			<point x="526" y="247" type="curve" smooth="yes"/>
			<point x="526" y="352"/>
			<point x="469" y="401"/>
			<point x="320" y="445" type="curve" smooth="yes"/>
			<point x="212" y="475"/>
			<point x="187" y="491"/>
			<point x="187" y="545" type="curve" smooth="yes"/>
			<point x="187" y="594"/>
			<point x="220" y="635"/>
			<point x="291" y="635" type="curve" smooth="yes"/>
			<point x="372" y="635"/>
			<point x="394" y="601"/>
			<point x="406" y="570" type="curve" smooth="yes"/>
			<point x="412" y="556"/>
			<point x="419" y="552"/>
			<point x="431" y="552" type="curve" smooth="yes"/>
			<point x="477" y="552" type="line" smooth="yes"/>
			<point x="489" y="552"/>
			<point x="499" y="560"/>
			<point x="498" y="572" type="curve" smooth="yes"/>
			<point x="495" y="630"/>
			<point x="432" y="710"/>
			<point x="290" y="710" type="curve" smooth="yes"/>
			<point x="160" y="710"/>
			<point x="94" y="625"/>
			<point x="94" y="540" type="curve" smooth="yes"/>
			<point x="94" y="506"/>
			<point x="100" y="478"/>
			<point x="118" y="455" type="curve"/>
			<point x="75" y="422"/>
			<point x="42" y="380"/>
			<point x="42" y="323" type="curve" smooth="yes"/>
			<point x="42" y="218"/>
			<point x="100" y="169"/>
			<point x="249" y="125" type="curve" smooth="yes"/>
			<point x="357" y="95"/>
			<point x="382" y="79"/>
			<point x="382" y="25" type="curve" smooth="yes"/>
			<point x="382" y="-24"/>
			<point x="349" y="-65"/>
			<point x="278" y="-65" type="curve" smooth="yes"/>
			<point x="197" y="-65"/>
			<point x="175" y="-31"/>
			<point x="162" y="0" type="curve" smooth="yes"/>
			<point x="156" y="15"/>
			<point x="149" y="19"/>
			<point x="138" y="19" type="curve" smooth="yes"/>
			<point x="92" y="19" type="line" smooth="yes"/>
			<point x="79" y="19"/>
			<point x="70" y="11"/>
			<point x="71" y="-2" type="curve" smooth="yes"/>
			<point x="74" y="-60"/>
			<point x="137" y="-140"/>
		</contour>
		<contour>
			<point x="381" y="165" type="curve"/>
			<point x="353" y="178"/>
			<point x="320" y="190"/>
			<point x="281" y="202" type="curve" smooth="yes"/>
			<point x="155" y="240"/>
			<point x="131" y="273"/>
			<point x="131" y="325" type="curve" smooth="yes"/>
			<point x="131" y="362"/>
			<point x="151" y="384"/>
			<point x="188" y="405" type="curve"/>
			<point x="214" y="392"/>
			<point x="245" y="381"/>
			<point x="288" y="368" type="curve" smooth="yes"/>
			<point x="413" y="331"/>
			<point x="438" y="298"/>
			<point x="438" y="245" type="curve" smooth="yes"/>
			<point x="438" y="208"/>
			<point x="417" y="186"/>
		</contour>
	</outline>
</glyph>
<glyph name="dieresis" format="2">
	<advance width="400.9375"/>
	<unicode hex="00A8"/>
	<outline>
		<contour>
			<point x="258" y="621" type="curve" smooth="yes"/>
			<point x="312" y="621" type="line" smooth="yes"/>
			<point x="325" y="621"/>
			<point x="335" y="630"/>
			<point x="335" y="643" type="curve" smooth="yes"/>
			<point x="335" y="697" type="line" smooth="yes"/>
			<point x="335" y="710"/>
			<point x="325" y="720"/>
			<point x="312" y="720" type="curve" smooth="yes"/>
			<point x="258" y="720" type="line" smooth="yes"/>
			<point x="245" y="720"/>
			<point x="235" y="710"/>
			<point x="235" y="697" type="curve" smooth="yes"/>
			<point x="235" y="643" type="line" smooth="yes"/>
			<point x="235" y="630"/>
			<point x="245" y="621"/>
		</contour>
		<contour>
			<point x="88" y="621" type="curve" smooth="yes"/>
			<point x="143" y="621" type="line" smooth="yes"/>
			<point x="156" y="621"/>
			<point x="166" y="630"/>
			<point x="166" y="643" type="curve" smooth="yes"/>
			<point x="166" y="697" type="line" smooth="yes"/>
			<point x="166" y="710"/>
			<point x="156" y="720"/>
			<point x="143" y="720" type="curve" smooth="yes"/>
			<point x="88" y="720" type="line" smooth="yes"/>
			<point x="75" y="720"/>
			<point x="66" y="710"/>
			<point x="66" y="697" type="curve" smooth="yes"/>
			<point x="66" y="643" type="line" smooth="yes"/>
			<point x="66" y="630"/>
			<point x="75" y="621"/>
		</contour>
	</outline>
</glyph>
<glyph name="copyright" format="2">
	<advance width="826.125"/>
	<unicode hex="00A9"/>
	<outline>
		<contour>
			<point x="413" y="-10" type="curve" smooth="yes"/>
			<point x="612" y="-10"/>
			<point x="773" y="151"/>
			<point x="773" y="350" type="curve" smooth="yes"/>
			<point x="773" y="549"/>
			<point x="612" y="710"/>
			<point x="413" y="710" type="curve" smooth="yes"/>
			<point x="214" y="710"/>
			<point x="53" y="549"/>
			<point x="53" y="350" type="curve" smooth="yes"/>
			<point x="53" y="151"/>
			<point x="214" y="-10"/>
		</contour>
		<contour>
			<point x="413" y="53" type="curve" smooth="yes"/>
			<point x="251" y="53"/>
			<point x="121" y="188"/>
			<point x="121" y="350" type="curve" smooth="yes"/>
			<point x="121" y="512"/>
			<point x="251" y="648"/>
			<point x="413" y="648" type="curve" smooth="yes"/>
			<point x="575" y="648"/>
			<point x="706" y="512"/>
			<point x="706" y="350" type="curve" smooth="yes"/>
			<point x="706" y="188"/>
			<point x="575" y="53"/>
		</contour>
		<contour>
			<point x="413" y="158" type="curve" smooth="yes"/>
			<point x="523" y="158"/>
			<point x="575" y="220"/>
			<point x="576" y="269" type="curve" smooth="yes"/>
			<point x="576" y="282"/>
			<point x="567" y="291"/>
			<point x="554" y="291" type="curve" smooth="yes"/>
			<point x="522" y="291" type="line" smooth="yes"/>
			<point x="507" y="291"/>
			<point x="502" y="281"/>
			<point x="498" y="272" type="curve" smooth="yes"/>
			<point x="487" y="242"/>
			<point x="463" y="225"/>
			<point x="413" y="225" type="curve" smooth="yes"/>
			<point x="342" y="225"/>
			<point x="326" y="278"/>
			<point x="324" y="317" type="curve" smooth="yes"/>
			<point x="323" y="335"/>
			<point x="323" y="367"/>
			<point x="324" y="385" type="curve" smooth="yes"/>
			<point x="326" y="424"/>
			<point x="342" y="477"/>
			<point x="413" y="477" type="curve" smooth="yes"/>
			<point x="463" y="477"/>
			<point x="487" y="460"/>
			<point x="498" y="430" type="curve" smooth="yes"/>
			<point x="502" y="421"/>
			<point x="507" y="411"/>
			<point x="522" y="411" type="curve" smooth="yes"/>
			<point x="554" y="411" type="line" smooth="yes"/>
			<point x="567" y="411"/>
			<point x="576" y="420"/>
			<point x="576" y="433" type="curve" smooth="yes"/>
			<point x="575" y="482"/>
			<point x="523" y="544"/>
			<point x="413" y="544" type="curve" smooth="yes"/>
			<point x="311" y="544"/>
			<point x="252" y="473"/>
			<point x="249" y="386" type="curve" smooth="yes"/>
			<point x="248" y="368"/>
			<point x="248" y="334"/>
			<point x="249" y="316" type="curve" smooth="yes"/>
			<point x="252" y="229"/>
			<point x="311" y="158"/>
		</contour>
	</outline>
</glyph>
<glyph name="ordfeminine" format="2">
	<advance width="364"/>
	<unicode hex="00AA"/>
	<outline>
		<contour>
			<point x="146" y="429" type="curve" smooth="yes"/>
			<point x="181" y="429"/>
			<point x="215" y="443"/>
			<point x="227" y="463" type="curve"/>
			<point x="227" y="455" type="line" smooth="yes"/>
			<point x="227" y="443"/>
			<point x="235" y="434"/>
			<point x="247" y="434" type="curve"/>
			<point x="278" y="434" type="line" smooth="yes"/>
			<point x="290" y="434"/>
			<point x="298" y="443"/>
			<point x="298" y="455" type="curve" smooth="yes"/>
			<point x="298" y="597" type="line" smooth="yes"/>
			<point x="298" y="662"/>
			<point x="256" y="705"/>
			<point x="185" y="705" type="curve" smooth="yes"/>
			<point x="114" y="705"/>
			<point x="71" y="662"/>
			<point x="69" y="641" type="curve" smooth="yes"/>
			<point x="68" y="629"/>
			<point x="77" y="625"/>
			<point x="88" y="625" type="curve" smooth="yes"/>
			<point x="119" y="625" type="line" smooth="yes"/>
			<point x="140" y="625"/>
			<point x="143" y="644"/>
			<point x="182" y="644" type="curve" smooth="yes"/>
			<point x="224" y="644"/>
			<point x="226" y="619"/>
			<point x="226" y="610" type="curve"/>
			<point x="164" y="601" type="line"/>
			<point x="95" y="591"/>
			<point x="51" y="558"/>
			<point x="51" y="506" type="curve" smooth="yes"/>
			<point x="51" y="463"/>
			<point x="87" y="429"/>
		</contour>
		<contour>
			<point x="159" y="487" type="curve" smooth="yes"/>
			<point x="139" y="487"/>
			<point x="123" y="495"/>
			<point x="123" y="509" type="curve" smooth="yes"/>
			<point x="123" y="527"/>
			<point x="133" y="542"/>
			<point x="182" y="549" type="curve" smooth="yes"/>
			<point x="226" y="556" type="line"/>
			<point x="226" y="518"/>
			<point x="207" y="487"/>
		</contour>
	</outline>
</glyph>
<glyph name="guillemetleft" format="2">
	<advance width="346"/>
	<unicode hex="00AB"/>
	<outline>
		<contour>
			<point x="285" y="-3" type="curve" smooth="yes"/>
			<point x="267" y="-3"/>
			<point x="254" y="31"/>
			<point x="142" y="101" type="curve" smooth="yes"/>
			<point x="130" y="109"/>
			<point x="126" y="124"/>
			<point x="126" y="138" type="curve" smooth="yes"/>
			<point x="126" y="150"/>
			<point x="129" y="161"/>
			<point x="132" y="169" type="curve" smooth="yes"/>
			<point x="139" y="185"/>
			<point x="166" y="210"/>
			<point x="222" y="295" type="curve" smooth="yes"/>
			<point x="226" y="301"/>
			<point x="234" y="307"/>
			<point x="247" y="307" type="curve" smooth="yes"/>
			<point x="266" y="307"/>
			<point x="297" y="294"/>
			<point x="297" y="274" type="curve" smooth="yes"/>
			<point x="297" y="269"/>
			<point x="296" y="265"/>
			<point x="293" y="261" type="curve" smooth="yes"/>
			<point x="266" y="222"/>
			<point x="217" y="174"/>
			<point x="181" y="148" type="curve"/>
			<point x="211" y="126"/>
			<point x="303" y="61"/>
			<point x="303" y="22" type="curve" smooth="yes"/>
			<point x="303" y="7"/>
			<point x="295" y="-3"/>
		</contour>
		<contour>
			<point x="167" y="-12" type="curve" smooth="yes"/>
			<point x="148" y="-12"/>
			<point x="117" y="37"/>
			<point x="12" y="102" type="curve" smooth="yes"/>
			<point x="0" y="110"/>
			<point x="-4" y="125"/>
			<point x="-4" y="140" type="curve" smooth="yes"/>
			<point x="-4" y="151"/>
			<point x="-2" y="162"/>
			<point x="2" y="170" type="curve" smooth="yes"/>
			<point x="9" y="186"/>
			<point x="51" y="234"/>
			<point x="107" y="318" type="curve" smooth="yes"/>
			<point x="111" y="324"/>
			<point x="119" y="331"/>
			<point x="132" y="331" type="curve" smooth="yes"/>
			<point x="150" y="331"/>
			<point x="182" y="318"/>
			<point x="182" y="297" type="curve" smooth="yes"/>
			<point x="182" y="293"/>
			<point x="180" y="288"/>
			<point x="178" y="285" type="curve" smooth="yes"/>
			<point x="151" y="245"/>
			<point x="87" y="175"/>
			<point x="51" y="149" type="curve"/>
			<point x="81" y="127"/>
			<point x="185" y="52"/>
			<point x="185" y="13" type="curve" smooth="yes"/>
			<point x="185" y="-2"/>
			<point x="177" y="-12"/>
		</contour>
	</outline>
</glyph>
<glyph name="logicalnot" format="2">
	<advance width="577.8125"/>
	<unicode hex="00AC"/>
	<outline>
		<contour>
			<point x="447" y="159" type="curve"/>
			<point x="483" y="159" type="line" smooth="yes"/>
			<point x="497" y="159"/>
			<point x="506" y="169"/>
			<point x="506" y="182" type="curve" smooth="yes"/>
			<point x="506" y="338" type="line" smooth="yes"/>
			<point x="506" y="352"/>
			<point x="497" y="361"/>
			<point x="483" y="361" type="curve" smooth="yes"/>
			<point x="93" y="361" type="line" smooth="yes"/>
			<point x="79" y="361"/>
			<point x="70" y="352"/>
			<point x="70" y="338" type="curve" smooth="yes"/>
			<point x="70" y="305" type="line" smooth="yes"/>
			<point x="70" y="292"/>
			<point x="79" y="282"/>
			<point x="93" y="282" type="curve" smooth="yes"/>
			<point x="424" y="282" type="line"/>
			<point x="424" y="182" type="line" smooth="yes"/>
			<point x="424" y="169"/>
			<point x="433" y="159"/>
		</contour>
	</outline>
</glyph>
<glyph name="registered" format="2">
	<advance width="826.125"/>
	<unicode hex="00AE"/>
	<outline>
		<contour>
			<point x="413" y="-10" type="curve" smooth="yes"/>
			<point x="612" y="-10"/>
			<point x="773" y="151"/>
			<point x="773" y="350" type="curve" smooth="yes"/>
			<point x="773" y="549"/>
			<point x="612" y="710"/>
			<point x="413" y="710" type="curve" smooth="yes"/>
			<point x="214" y="710"/>
			<point x="53" y="549"/>
			<point x="53" y="350" type="curve" smooth="yes"/>
			<point x="53" y="151"/>
			<point x="214" y="-10"/>
		</contour>
		<contour>
			<point x="413" y="53" type="curve" smooth="yes"/>
			<point x="251" y="53"/>
			<point x="121" y="188"/>
			<point x="121" y="350" type="curve" smooth="yes"/>
			<point x="121" y="512"/>
			<point x="251" y="648"/>
			<point x="413" y="648" type="curve" smooth="yes"/>
			<point x="575" y="648"/>
			<point x="706" y="512"/>
			<point x="706" y="350" type="curve" smooth="yes"/>
			<point x="706" y="188"/>
			<point x="575" y="53"/>
		</contour>
		<contour>
			<point x="297" y="168" type="curve"/>
			<point x="327" y="168" type="line" smooth="yes"/>
			<point x="340" y="168"/>
			<point x="349" y="177"/>
			<point x="349" y="190" type="curve" smooth="yes"/>
			<point x="349" y="298" type="line"/>
			<point x="425" y="298" type="line"/>
			<point x="490" y="187" type="line" smooth="yes"/>
			<point x="496" y="175"/>
			<point x="505" y="168"/>
			<point x="519" y="168" type="curve" smooth="yes"/>
			<point x="546" y="168" type="line" smooth="yes"/>
			<point x="561" y="168"/>
			<point x="568" y="179"/>
			<point x="568" y="190" type="curve" smooth="yes"/>
			<point x="568" y="196"/>
			<point x="566" y="201"/>
			<point x="564" y="204" type="curve" smooth="yes"/>
			<point x="500" y="312" type="line"/>
			<point x="540" y="328"/>
			<point x="569" y="363"/>
			<point x="569" y="416" type="curve" smooth="yes"/>
			<point x="569" y="503"/>
			<point x="504" y="534"/>
			<point x="428" y="534" type="curve" smooth="yes"/>
			<point x="297" y="534" type="line" smooth="yes"/>
			<point x="284" y="534"/>
			<point x="275" y="525"/>
			<point x="275" y="512" type="curve" smooth="yes"/>
			<point x="275" y="190" type="line" smooth="yes"/>
			<point x="275" y="177"/>
			<point x="284" y="168"/>
		</contour>
		<contour>
			<point x="349" y="364" type="line"/>
			<point x="349" y="469" type="line"/>
			<point x="426" y="469" type="line" smooth="yes"/>
			<point x="479" y="469"/>
			<point x="494" y="444"/>
			<point x="494" y="416" type="curve" smooth="yes"/>
			<point x="494" y="389"/>
			<point x="479" y="364"/>
			<point x="426" y="364" type="curve" smooth="yes"/>
		</contour>
	</outline>
</glyph>
<glyph name="macron" format="2">
	<advance width="399.875"/>
	<unicode hex="00AF"/>
	<outline>
		<contour>
			<point x="88" y="617" type="curve" smooth="yes"/>
			<point x="311" y="617" type="line" smooth="yes"/>
			<point x="324" y="617"/>
			<point x="334" y="626"/>
			<point x="334" y="639" type="curve" smooth="yes"/>
			<point x="334" y="670" type="line" smooth="yes"/>
			<point x="334" y="683"/>
			<point x="324" y="692"/>
			<point x="311" y="692" type="curve" smooth="yes"/>
			<point x="88" y="692" type="line" smooth="yes"/>
			<point x="75" y="692"/>
			<point x="66" y="683"/>
			<point x="66" y="670" type="curve" smooth="yes"/>
			<point x="66" y="639" type="line" smooth="yes"/>
			<point x="66" y="626"/>
			<point x="75" y="617"/>
		</contour>
	</outline>
</glyph>
<glyph name="degree" format="2">
	<advance width="387.75"/>
	<unicode hex="00B0"/>
	<outline>
		<contour>
			<point x="194" y="426" type="curve" smooth="yes"/>
			<point x="275" y="426"/>
			<point x="341" y="487"/>
			<point x="341" y="568" type="curve" smooth="yes"/>
			<point x="341" y="649"/>
			<point x="275" y="710"/>
			<point x="194" y="710" type="curve" smooth="yes"/>
			<point x="113" y="710"/>
			<point x="47" y="649"/>
			<point x="47" y="568" type="curve" smooth="yes"/>
			<point x="47" y="487"/>
			<point x="113" y="426"/>
		</contour>
		<contour>
			<point x="194" y="492" type="curve" smooth="yes"/>
			<point x="149" y="492"/>
			<point x="118" y="523"/>
			<point x="118" y="568" type="curve" smooth="yes"/>
			<point x="118" y="613"/>
			<point x="149" y="644"/>
			<point x="194" y="644" type="curve" smooth="yes"/>
			<point x="239" y="644"/>
			<point x="270" y="613"/>
			<point x="270" y="568" type="curve" smooth="yes"/>
			<point x="270" y="523"/>
			<point x="239" y="492"/>
		</contour>
	</outline>
</glyph>
